<svg width="636" height="338" viewBox="0 0 636 338" fill="none" xmlns="http://www.w3.org/2000/svg">
<g clip-path="url(#clip0_804_5203)">
<path d="M565.019 337.284H79.4916C79.4916 337.284 19.5336 297.24 60.0673 222.239C96.9941 153.914 123.7 196.484 112.531 73.836C108.065 24.7682 140.151 0.0390256 184.604 -3.07287e-05C228.573 -0.0390871 274.506 18.747 316.798 10.1025C327.563 7.90237 337.912 6.18606 347.849 4.91456C349.022 4.76267 350.19 4.61513 351.349 4.4806C351.671 4.44154 351.988 4.40249 352.307 4.36994C389.542 0.0390257 420.914 2.03741 446.921 8.37972C542.965 31.7983 565.814 114.47 540.509 156.596C505.439 214.983 644.612 220.705 565.023 337.286L565.019 337.284Z" fill="#EBF3FA"/>
<path d="M475.936 239.337C475.936 239.337 447.561 247.975 449.496 253.15C451.43 258.325 480.418 241.249 480.418 241.249C480.418 241.249 504.52 259.204 508.535 269.094C508.535 269.094 475.524 267.393 478.674 271.934C481.825 276.475 516.092 279.839 516.092 279.839C516.092 279.839 533.523 302.053 521 313.622C508.479 325.192 497.847 322.625 495.028 319.457C492.21 316.289 480.277 292.749 477.556 294.943C474.835 297.138 478.236 315.469 485.58 322.846C485.58 322.846 456.486 325.673 451.027 312.284C445.567 298.894 451.404 290.818 447.88 282.605C444.356 274.392 439.209 269.734 439.148 274.794C439.087 279.854 447.509 292.467 445.42 301.68C443.331 310.891 442.69 317.801 434.06 307.228C425.431 296.655 415.828 274.605 422.721 265.59C423.02 265.197 423.307 264.821 423.583 264.461C422.964 265.112 422.721 265.59 422.721 265.59C420.302 264.071 412.506 263.973 406.649 264.138C405.685 264.229 404.319 264.29 402.428 264.309C401.592 264.353 400.91 264.394 400.436 264.424C387.798 265.711 370.904 277.354 370.904 277.354L368.899 275.18C384.159 260.067 404.252 262.094 404.252 262.094C419.442 262.278 429.615 256.576 429.615 256.576C429.615 256.576 430.462 227.132 453.346 228.712C453.346 228.712 468.431 231.656 475.934 239.337H475.936Z" fill="#D2E2F9"/>
<path d="M362.912 133.77L386.795 187.136L457.999 155.321V155.318L488.001 141.913L464.118 88.5472L408.099 113.578L362.912 133.77Z" fill="#CFE7FF"/>
<path d="M462.334 96.5038L480.876 137.936L389.909 178.583L371.366 137.151L462.334 96.5038ZM394.432 175.046L475.17 138.971C477.313 138.014 478.273 135.502 477.315 133.36L463.387 102.239C462.421 100.08 459.886 99.1119 457.726 100.078L377.043 136.131C374.919 137.079 373.968 139.568 374.919 141.688L388.903 172.933C389.848 175.044 392.326 175.988 394.437 175.046H394.432Z" fill="#C0D8FB"/>
<path d="M431.112 148.69C437.272 145.936 440.034 138.715 437.279 132.557C434.523 126.401 427.296 123.641 421.133 126.395C414.973 129.148 412.211 136.37 414.966 142.527C417.722 148.683 424.949 151.443 431.112 148.69Z" fill="#C0D8FB"/>
<path d="M356.574 124.839L404.337 158.601L449.383 94.9763V94.9742L468.364 68.1663L420.602 34.4043L385.162 84.4615L356.574 124.839Z" fill="#DCEAFF"/>
<path d="M423.123 42.1591L460.204 68.3703L402.654 149.655L365.573 123.444L423.123 42.1591ZM404.745 144.311L455.822 72.1674C457.177 70.2537 456.723 67.6022 454.808 66.2482L426.956 46.5595C425.023 45.1947 422.35 45.6525 420.982 47.5815L369.938 119.679C368.596 121.576 369.046 124.201 370.943 125.542L398.908 145.309C400.798 146.644 403.412 146.197 404.748 144.309L404.745 144.311Z" fill="#C0D8FB"/>
<path d="M422.867 102.959C426.765 97.4543 425.458 89.8339 419.948 85.9391C414.439 82.0444 406.813 83.3506 402.915 88.8553C399.017 94.3601 400.324 101.98 405.833 105.875C411.343 109.77 418.969 108.464 422.867 102.959Z" fill="#C0D8FB"/>
<path d="M476.096 156.733C476.096 156.733 484.795 155.425 489.01 160.901C493.223 166.378 491.457 171.696 498.525 172.297C505.594 172.896 506.816 175.706 505.322 179.598C503.828 183.491 512.662 183.628 514.566 188.924C516.469 194.221 515.518 203.321 502.061 200.875C488.604 198.43 483.672 190.28 477.438 192.454C471.203 194.626 462.367 188.371 465.494 184.504C468.621 180.638 463.592 181.067 463.998 172.297C464.406 163.525 470.152 156.529 476.096 156.733Z" fill="#163560"/>
<path d="M423.914 205.608C423.914 205.608 421.495 203.073 419.575 202.579C417.473 202.036 414.505 201.531 414.19 202.212C413.818 203.021 417.588 204.354 418.109 205.241C418.633 206.128 417.794 206.05 416.333 205.946C414.869 205.842 415.393 206.313 415.653 206.391C415.914 206.469 418.031 207.567 418.815 207.723C419.03 207.767 419.367 207.791 419.779 207.81C420.865 207.86 422.491 207.884 423.914 208.168C423.914 208.168 424.463 206.523 423.914 205.608Z" fill="#FFB27D"/>
<path d="M422.352 206.189C422.713 207.437 423.323 208.064 423.323 208.064C423.323 208.064 435.414 212.703 444.2 211.358C444.506 211.312 444.808 211.258 445.103 211.197C446.717 210.861 448.428 210.44 450.148 209.976C457.492 207.988 464.914 205.221 464.914 205.221C464.914 205.221 465.07 204.605 465.294 203.601C466.221 199.415 468.286 188.451 464.914 186.722C464.914 186.722 463.129 187.501 460.94 189.263C455.952 193.279 447.537 200.867 442.975 202.03C438.769 203.104 427.607 204.182 422.68 204.46C422.68 204.46 422.098 205.306 422.354 206.189H422.352Z" fill="#F9DDBF"/>
<path d="M456.863 205.024C454.19 207.159 452.439 208.886 450.148 209.976C457.493 207.988 464.915 205.221 464.915 205.221C464.915 205.221 465.071 204.605 465.295 203.601L464.511 202.03C464.511 202.03 461.147 201.602 456.865 205.024H456.863Z" fill="#F2CCAA"/>
<path d="M444.201 211.358C444.507 211.312 444.809 211.258 445.105 211.197C444.616 211.232 444.323 211.284 444.201 211.358Z" fill="#F2CCAA"/>
<path d="M511.007 322.284C511.007 322.284 514.23 325.222 513.6 327.312C512.97 329.399 510.063 330.792 509.67 333.344C509.277 335.895 507.704 337.286 506.291 337.286H499.546C499.546 337.286 498.504 335.49 501.02 334.949C503.535 334.409 504.484 331.41 504.326 328.626C504.169 325.843 504.562 322.13 504.562 322.13L509.906 320.893L511.007 322.284Z" fill="#3E5B87"/>
<path d="M483.733 323.768C483.733 323.768 484.893 336.216 483.477 336.913L465.373 336.876C465.373 336.876 465.373 334.789 468.281 334.324C471.188 333.86 476.298 332.159 477.162 328.37C478.027 324.582 483.733 323.768 483.733 323.768Z" fill="#3E5B87"/>
<path d="M468.114 218.867L479.46 227.768L490.285 220.072L491.167 219.755C491.167 219.755 492.952 218.87 493.484 214.654C493.549 214.133 493.927 209.68 494.3 205.193C494.704 200.35 495.104 195.47 495.104 195.47L488.194 185.227C473.682 182.165 464.913 186.72 464.913 186.72C464.913 186.72 464.238 192.118 463.13 199.821C462.025 207.521 468.114 218.867 468.114 218.867Z" fill="#F9DDBF"/>
<path d="M468.949 221.373C468.949 221.373 463.729 237.608 463.395 243.134C463.06 248.661 473.373 321.655 473.788 324.2C474.178 326.6 477.162 328.132 477.162 328.132C477.162 328.132 478.535 328.941 480.493 328.388C483.21 327.622 484.07 326.704 484.07 326.704C484.07 326.704 488.133 274.646 485.618 256.051C483.103 237.456 483.075 221.373 483.075 221.373H468.952H468.949Z" fill="#ED7D2B"/>
<path d="M491.064 220.89C491.064 220.89 499.027 231.565 499.768 238.78C500.511 245.996 500.932 271.344 502.513 278.378C504.094 285.413 509.905 298.95 509.905 320.893C509.905 320.893 509.301 322.15 507.436 322.82C506.838 323.035 506.041 323.243 505.264 323.419C503.727 323.77 502.148 323.02 501.446 321.609C497.518 313.707 485.006 288.218 484.363 282.926C483.909 279.181 479.959 254.402 471.34 239.86C469.271 236.369 472.611 222.487 472.611 222.487L491.062 220.89H491.064Z" fill="#F99746"/>
<path d="M480.258 187.46C481.756 187.03 482.522 186.075 482.438 184.513C482.316 182.222 481.797 180.019 482.177 176.756L481.693 176.797L473.541 177.481C473.541 177.481 473.176 182.41 473.174 182.43C472.922 185.62 473.135 189.506 480.258 187.46Z" fill="#FFB27D"/>
<path d="M473.542 177.478C473.542 177.478 473.442 180.006 473.182 182.369C477.657 182.745 480.474 178.941 481.694 176.795L473.542 177.478Z" fill="#E8945B"/>
<path d="M471.801 179.548C471.801 179.548 482.339 180.907 483.086 174.337C483.833 167.766 485.694 163.516 478.997 162.37C472.3 161.225 470.706 163.583 469.922 165.716C469.139 167.849 469.078 179.026 471.801 179.548Z" fill="#FFB27D"/>
<path d="M474.207 161.672C474.207 161.672 476.231 169.706 480.539 171.344C484.847 172.983 486.906 172.011 486.906 172.011C486.906 172.011 483.807 168.927 483.631 164.134C483.631 164.134 476.802 158.25 474.209 161.674L474.207 161.672Z" fill="#163560"/>
<path d="M474.851 162.377C474.851 162.377 472.616 162.936 471.559 164.399C470.525 165.829 469.561 167.771 469.452 170.273C469.452 170.273 467.863 164.787 470.644 162.099C473.593 159.248 474.848 162.377 474.848 162.377H474.851Z" fill="#163560"/>
<path d="M510.151 233.166C510.151 233.166 509.381 236.141 508.699 236.601C508.017 237.059 506.008 239.663 506.523 240.774C507.216 242.266 508.929 244.454 509.761 244.208C510.592 243.961 509.824 241.796 511.385 240.216C512.175 239.417 514.004 237.962 513.856 236.395C513.706 234.824 513.307 232.858 513.307 232.858L510.151 233.168V233.166Z" fill="#FFB27D"/>
<path d="M509.588 234.969C509.588 234.969 507.321 236.549 506.248 237.026C505.173 237.504 505.605 237.888 506.157 237.892C506.791 237.896 507.427 237.794 508.469 237.176C509.51 236.56 510.144 234.954 509.59 234.967L509.588 234.969Z" fill="#FFB27D"/>
<path d="M488.195 185.227C488.195 185.227 494.501 186.748 498.643 190.636C505.159 196.755 512.354 202.659 513.867 208.789C515.122 213.87 515.309 220.892 513.867 234.425C513.867 234.425 512.999 234.789 511.305 234.713C509.813 234.646 509.129 234.101 509.129 234.101C509.129 234.101 506.002 216.394 503.453 211.546C502.152 209.075 484.389 199.686 484.389 199.686L488.195 185.227Z" fill="#F9DDBF"/>
<path d="M490.285 220.072L491.166 219.755C491.166 219.755 492.951 218.87 493.483 214.654C493.548 214.133 493.926 209.68 494.3 205.193C494.3 205.193 490.3 201.214 489.075 203.592C487.852 205.968 490.678 210.451 489.64 213.098C488.599 215.747 486.804 219.299 490.282 220.072H490.285Z" fill="#F2CCAA"/>
<path d="M468.116 218.867C468.116 218.867 470.212 220.523 474.375 220.608C479.347 220.707 491.669 219.34 491.669 219.34C491.669 219.34 492.216 220.868 492.194 222.482C492.194 222.482 477.145 226.275 468.427 223.036C468.427 223.036 467.302 220.922 468.116 218.865V218.867Z" fill="#233862"/>
<path d="M473.181 224.889C471.931 224.889 470.912 223.739 470.912 222.322C470.912 220.905 471.931 219.755 473.181 219.755C474.432 219.755 475.451 220.905 475.451 222.322C475.451 223.739 474.432 224.889 473.181 224.889ZM473.181 220.508C472.345 220.508 471.663 221.321 471.663 222.322C471.663 223.322 472.343 224.136 473.181 224.136C474.02 224.136 474.699 223.322 474.699 222.322C474.699 221.321 474.02 220.508 473.181 220.508Z" fill="white"/>
<path opacity="0.3" d="M249.096 194.253C249.096 194.253 254.015 208.136 251.383 208.867C248.751 209.6 247.014 193.014 247.014 193.014C247.014 193.014 232.76 188.588 227.637 189.859C227.637 189.859 238.039 202.587 235.303 202.648C232.565 202.709 221.129 189.961 221.129 189.961C221.129 189.961 207.145 189.447 206.224 197.833C205.303 206.217 209.457 209.73 211.551 209.936C213.644 210.143 226.536 208.068 226.463 209.798C226.389 211.527 218.085 215.502 212.984 214.71C212.984 214.71 220.43 227.189 227.37 225.474C234.313 223.762 235.811 219.073 240.119 218.093C244.43 217.112 247.802 217.817 245.804 219.316C243.807 220.814 236.302 221.113 233.246 224.632C230.191 228.152 227.629 230.419 234.382 230.799C241.136 231.177 252.749 228.603 254.31 223.218C254.378 222.983 254.443 222.76 254.506 222.545C254.43 222.981 254.31 223.218 254.31 223.218C255.628 223.745 257.965 226.839 259.624 229.232C259.872 229.645 260.249 230.211 260.799 230.973C261.027 231.32 261.211 231.606 261.339 231.804C264.549 237.241 264.89 247.4 264.89 247.4L266.347 247.569C267.871 237.057 261.146 229.597 261.146 229.597C256.597 223.565 255.872 217.83 255.872 217.83C255.872 217.83 267.352 208.917 259.982 200.209C259.982 200.209 254.365 195.023 249.094 194.255L249.096 194.253Z" fill="#AEC3FF"/>
<path d="M237.412 240.071C237.412 240.071 251.896 253.081 249.307 255.624C246.719 258.167 234.215 239.964 234.215 239.964C234.215 239.964 214.886 243.963 209.749 248.735C209.749 248.735 229.863 256.878 226.728 258.707C223.592 260.536 202.268 253.033 202.268 253.033C202.268 253.033 185.725 261.417 189.962 271.773C194.198 282.13 201.236 283.551 203.794 282.449C206.352 281.347 219.992 270.647 220.999 272.709C222.009 274.77 214.893 284.734 208.474 287.086C208.474 287.086 224.999 296.837 231.968 290.384C238.936 283.931 237.707 277.506 242.085 273.598C246.463 269.688 250.819 268.345 249.451 271.372C248.083 274.399 239.566 279.57 238.25 285.63C236.934 291.69 235.397 295.98 243.468 292.081C251.54 288.184 263.379 277.725 261.783 270.45C261.713 270.133 261.646 269.829 261.583 269.541C261.77 270.098 261.783 270.45 261.783 270.45C263.644 270.218 268.31 272.32 271.75 274.043C272.297 274.364 273.094 274.781 274.215 275.315C274.699 275.573 275.094 275.785 275.368 275.935C282.53 280.205 289.348 291.82 289.348 291.82L291.144 291.082C286.262 277.858 273.746 273.49 273.746 273.49C264.656 269.387 260.187 263.172 260.187 263.172C260.187 263.172 267.863 245.419 253.809 240.01C253.809 240.01 244.013 237.577 237.416 240.066L237.412 240.071Z" fill="#D2E2F9"/>
<path d="M154.168 130.8C153.957 131.9 151.825 132.969 151.304 133.121C150.826 131.776 149.784 130.524 149.838 130.581C149.89 130.474 149.951 130.348 150.023 130.212C150.509 129.266 151.445 127.76 152.607 127.41C154.333 126.885 157.734 126.562 157.94 127.285C158.144 128.003 154.405 129.563 154.168 130.802V130.8Z" fill="#FFB27D"/>
<path d="M161.762 336.722H139.743C138.164 335.652 140.168 325.2 140.168 325.2C140.168 325.2 146.179 322.922 147.215 327.555C148.255 332.185 154.87 333.656 158.37 334.222C160.765 334.611 161.523 335.926 161.762 336.72V336.722Z" fill="#3E5B87"/>
<path d="M193.69 336.722H171.671C170.092 335.652 172.096 325.2 172.096 325.2C172.096 325.2 178.105 322.922 179.143 327.555C180.183 332.185 186.797 333.656 190.298 334.222C192.693 334.611 193.451 335.926 193.69 336.72V336.722Z" fill="#3E5B87"/>
<path d="M187.766 230.096C187.766 230.096 186.775 242.433 185.614 257.266C184.033 277.413 179.768 327.366 179.768 327.366C179.768 327.366 176.973 329.748 170.78 328.444C170.78 328.444 165.51 311.212 163.933 291.542C163.909 291.219 163.883 290.896 163.859 290.57C162.393 270.548 160.113 228.384 160.113 228.384L187.768 230.094L187.766 230.096Z" fill="#FF9E55"/>
<path d="M188.102 225.832C188.102 225.832 186.776 242.434 185.612 257.266L163.931 291.545C163.907 291.221 163.881 290.898 163.857 290.573C162.391 270.55 160.111 228.386 160.111 228.386L188.102 225.832Z" fill="#ED823A"/>
<path d="M183.266 222.708L147.927 327.201C147.927 327.201 142.018 330.223 139.597 326.133C139.597 326.133 140.157 282.08 146.47 271.149C150.037 264.971 152.526 247.648 152.1 241.796C151.269 230.33 154.687 219.657 154.687 219.657L183.264 222.706L183.266 222.708Z" fill="#FF9E55"/>
<path d="M174.76 168.177C172.361 169.439 170.017 169.52 167.985 169.088C166.126 168.697 164.532 167.877 163.394 167.152C162.228 166.408 161.542 165.759 161.542 165.759C161.542 165.759 161.622 165.642 161.759 165.412C162.469 164.199 164.619 159.842 163.661 152.84C163.648 152.749 164.343 152.879 165.392 153.127C168.513 153.865 174.784 155.644 175.062 155.722H175.073C175.073 155.722 175.149 157.195 175.407 159.834C175.429 160.066 175.453 160.309 175.477 160.561C175.509 160.871 175.542 161.198 175.579 161.535C175.87 164.28 174.754 168.177 174.754 168.177H174.76Z" fill="#FFB27D"/>
<path d="M175.412 159.834C170.754 160.901 163.803 154.029 163.803 154.029C164.311 153.652 164.845 153.352 165.397 153.127C168.517 153.865 174.788 155.644 175.066 155.722H175.077C175.077 155.722 175.153 157.195 175.412 159.834Z" fill="#ED975D"/>
<path d="M181.737 130.027C181.737 130.027 179.911 127.272 178.115 127.109C176.319 126.946 172.595 127.371 172.869 128.07C173.746 130.309 176.88 129.313 177.674 130.73C178.354 131.943 180.764 132.449 180.764 132.449L181.739 130.025L181.737 130.027Z" fill="#FFB27D"/>
<path d="M176.995 155.349C176.995 155.349 175.079 156.037 172.638 156.364C169.069 156.846 164.371 156.562 162.897 152.246C160.413 144.979 157.238 140.622 164.55 137.656C168.463 136.068 170.969 135.983 172.669 136.591C174.146 137.114 175.018 138.16 175.676 139.192C177.097 141.416 179.952 154.079 176.995 155.351V155.349Z" fill="#FFB27D"/>
<path d="M176.313 134.632C178.336 137.435 175.978 141.288 172.564 140.731C171.229 140.514 170.139 140.347 169.52 140.622C167.702 141.429 167.375 144.478 167.342 145.444C167.309 146.413 167.181 147.229 164.712 146.65C164.308 146.555 164.015 146.583 163.815 146.704C162.903 147.245 163.844 149.642 164.339 150.608C164.473 150.872 164.56 151.159 164.595 151.456C164.673 152.155 164.654 153.335 163.805 154.027C163.653 154.149 161.175 155.232 155.205 146.103C154.267 144.671 153.37 141.442 154.821 138.335C156.267 135.228 162.695 131.774 168.026 131.108C173.726 130.396 176.061 134.276 176.317 134.629L176.313 134.632Z" fill="#2A4E96"/>
<path d="M189.878 177.96C172.393 194.277 175.466 163.199 175.466 163.199C175.466 163.199 182.124 160.246 184.223 160.246C186.321 160.246 187.859 154.407 194.512 144.682L194.508 144.678L180.521 132.713C180.521 132.713 181.168 129.155 181.941 129.333C183.023 129.58 185.085 130.227 187.555 131.155C193.95 133.56 203.068 137.849 204.912 141.961C204.912 141.961 205.259 163.607 189.878 177.962V177.96Z" fill="#AEC3FF"/>
<path d="M174.993 132.017L174.967 131.982C174.982 131.997 174.991 132.008 174.993 132.017Z" fill="#7F2722"/>
<path d="M188.037 226.653C188.037 226.653 177.618 230.189 166.578 230.274C164.42 230.291 161.364 229.873 158.83 229.447C156.239 229.009 154.192 228.566 154.192 228.566C151.972 228.054 149.521 226.685 149.851 224.155C150.845 216.472 150.203 196.347 150.713 183.78C150.713 183.78 150.739 181.328 149.178 179.611C149.178 179.611 149.173 179.611 149.173 179.607C148.917 179.327 148.62 179.067 148.272 178.841C145.94 177.322 135.034 167.009 130.314 150.56C129.755 148.685 129.53 147.531 129.517 147.468C129.517 147.468 129.517 147.462 129.517 147.459C130.856 141.358 145.812 132.084 149.432 130.426C149.542 130.377 149.664 130.409 149.796 130.502C149.796 130.502 149.796 130.502 149.801 130.507C150.991 131.505 151.492 133.397 151.508 133.429C151.508 133.436 151.512 133.44 151.514 133.447L140.253 148.008C148.75 156.175 151.443 161.58 153.497 161.153C155.473 160.743 162.116 162.145 162.637 162.255C162.793 162.22 162.949 162.186 163.11 162.158C163.11 162.158 170.2 166.15 175.464 163.195C175.464 163.195 175.516 163.203 175.614 163.219C176.897 163.42 186.054 164.941 188.265 167.276C189.027 168.081 189.318 172.974 189.399 178.396C189.516 185.949 189.221 194.535 189.221 194.537C189.755 202.763 194.08 225.396 188.035 226.65L188.037 226.653Z" fill="#AEC3FF"/>
<path d="M162.672 162.266C162.672 162.266 170.518 170.351 176.127 168.695C176.127 168.695 176.874 167.604 174.348 167.252C171.823 166.903 169.095 167.046 162.672 162.266Z" fill="#94B0ED"/>
<path d="M158.83 229.447C156.24 229.009 154.192 228.566 154.192 228.566C151.972 228.054 149.521 226.685 149.851 224.155C150.845 216.472 150.203 196.347 150.713 183.78C150.713 183.78 150.739 181.328 149.178 179.611C151.625 181.77 158.309 188.178 159.949 195.093C161.697 202.475 160.454 221.81 158.832 229.447H158.83Z" fill="#94B0ED"/>
<path d="M150.144 130.277C150.144 130.277 150.172 128.072 150.556 127.63C150.941 127.185 151.208 128.428 151.266 128.812C151.325 129.196 150.144 130.277 150.144 130.277Z" fill="#FFB27D"/>
<path d="M181.212 129.324C181.212 129.324 180.65 127.84 180.515 127.439C180.38 127.037 180.098 127.016 180.063 127.282C180.031 127.549 179.946 128.118 180.146 128.435C180.346 128.751 181.21 129.324 181.21 129.324H181.212Z" fill="#FFB27D"/>
<path d="M221.201 34.2936C221.06 33.9942 220.886 33.7208 220.684 33.4734L220.682 33.4713C220.53 33.2868 220.363 33.1176 220.181 32.9614L219.421 32.1933L219.221 32.3408C215.336 30.4401 207.317 32.4536 199.202 37.7479C189.395 44.1445 183.1 52.9539 184.915 57.6341L184.639 57.8381L185.729 58.923C185.781 58.9772 185.836 59.0315 185.89 59.0835L185.92 59.1139L185.929 59.1204C186.205 59.3721 186.52 59.5913 186.872 59.7757L186.878 59.7801C190.713 61.7871 198.819 59.7887 207.021 54.438C217.01 47.9221 223.358 38.9023 221.197 34.2915L221.201 34.2936Z" fill="#FFA412"/>
<path d="M198.035 36.5806C208.024 30.0647 217.874 28.5176 220.035 33.1263C222.196 37.7349 215.848 46.7548 205.859 53.2728C195.87 59.7887 186.02 61.3358 183.86 56.7272C181.699 52.1185 188.046 43.0987 198.035 36.5806Z" fill="#FFB93E"/>
<path d="M190.862 57.4171C190.052 57.4171 189.314 57.326 188.665 57.1394C187.418 56.7814 186.554 56.0914 186.096 55.0911C185.195 53.1296 186.029 50.2156 188.446 46.8871C190.806 43.6346 194.409 40.3365 198.591 37.6004C205.012 33.3975 211.544 31.3687 215.231 32.4298C216.478 32.7878 217.342 33.4778 217.8 34.4781C218.701 36.4396 217.868 39.3536 215.451 42.6821C213.09 45.9346 209.488 49.2327 205.305 51.9688C200.015 55.4296 194.652 57.4171 190.865 57.4171H190.862ZM213.053 32.8876C209.431 32.8876 204.111 34.8643 198.99 38.2145C194.882 40.9028 191.347 44.1358 189.038 47.3167C186.817 50.3762 185.987 53.0993 186.763 54.7874C187.13 55.5858 187.838 56.1391 188.869 56.4364C189.447 56.6035 190.109 56.6838 190.841 56.6838C194.463 56.6838 199.783 54.7092 204.906 51.3569C209.014 48.6685 212.549 45.4355 214.858 42.2546C217.079 39.1952 217.909 36.4721 217.134 34.784C216.767 33.9855 216.059 33.4322 215.027 33.135C214.45 32.9679 213.787 32.8876 213.055 32.8876H213.053Z" fill="#FFA412"/>
<path d="M197.923 47.3037C198.231 47.1692 198.505 47.0195 198.746 46.8589C198.987 46.6984 199.208 46.5096 199.413 46.2926C199.617 46.0756 199.81 45.8283 199.99 45.5484C200.173 45.2685 200.355 44.9452 200.537 44.5763C200.859 43.9384 201.189 43.3439 201.528 42.7906C201.866 42.2373 202.244 41.7252 202.663 41.2522C203.082 40.7792 203.56 40.3474 204.097 39.9503C204.633 39.5554 205.263 39.1995 205.981 38.8828C206.605 38.6094 207.167 38.4336 207.667 38.3555C208.166 38.2774 208.594 38.2926 208.948 38.3989C209.304 38.5052 209.582 38.6983 209.782 38.9761C209.984 39.2538 210.094 39.6161 210.114 40.0631L212.47 39.0281L212.346 40.2953L209.957 41.3433C209.825 41.8358 209.606 42.3284 209.297 42.8166C208.989 43.3048 208.607 43.7756 208.149 44.2226C207.69 44.6718 207.158 45.0949 206.555 45.4963C205.951 45.8955 205.28 46.2557 204.546 46.579L204.768 44.2899C205.649 43.9037 206.32 43.4827 206.783 43.0292C207.245 42.5758 207.497 42.1309 207.541 41.6905C207.564 41.4518 207.534 41.2695 207.452 41.1415C207.369 41.0135 207.247 40.931 207.085 40.8963C206.922 40.8616 206.726 40.8681 206.496 40.918C206.266 40.9679 206.016 41.0526 205.745 41.1719C205.473 41.2912 205.226 41.4258 205 41.5755C204.774 41.7252 204.561 41.9053 204.361 42.1179C204.162 42.3284 203.968 42.5779 203.784 42.8643C203.597 43.1507 203.402 43.4914 203.195 43.8863C202.859 44.5242 202.52 45.1188 202.179 45.6721C201.838 46.2232 201.456 46.7374 201.033 47.2104C200.611 47.6835 200.131 48.1196 199.593 48.5145C199.054 48.9094 198.431 49.2631 197.719 49.5755C197.072 49.8598 196.501 50.0377 196.001 50.1136C195.502 50.1896 195.078 50.17 194.731 50.0615C194.383 49.9509 194.114 49.7513 193.923 49.4627C193.734 49.1741 193.628 48.8074 193.608 48.3604L191.417 49.3216L191.539 48.061L193.719 47.1041C193.827 46.6376 194.012 46.1494 194.27 45.6438C194.531 45.1383 194.883 44.6349 195.328 44.1358C195.773 43.6368 196.32 43.1529 196.972 42.6864C197.621 42.2199 198.388 41.7925 199.267 41.4062L199.046 43.6975C198.524 43.9254 198.084 44.1662 197.727 44.4179C197.369 44.6696 197.078 44.9213 196.852 45.1773C196.626 45.4334 196.461 45.6829 196.357 45.9303C196.253 46.1754 196.19 46.4076 196.168 46.6246C196.144 46.8719 196.17 47.0694 196.249 47.2148C196.327 47.3602 196.442 47.46 196.6 47.512C196.757 47.5641 196.948 47.5728 197.174 47.5337C197.4 47.4947 197.647 47.4166 197.919 47.2972L197.923 47.3037Z" fill="#FFA412"/>
<path d="M210.084 78.1604C210.187 77.9434 210.312 77.7438 210.46 77.5659C210.569 77.4313 210.693 77.3098 210.825 77.197L211.377 76.6394L211.522 76.7457C214.343 75.3657 220.165 76.8281 226.056 80.6708C233.176 85.3142 237.745 91.7108 236.427 95.1087L236.629 95.2562L235.837 96.0439C235.8 96.0829 235.761 96.122 235.719 96.161L235.698 96.1827L235.691 96.1871C235.491 96.3715 235.261 96.5299 235.007 96.6622H235.003V96.6644C232.219 98.1225 226.334 96.6709 220.378 92.787C213.125 88.0547 208.517 81.5084 210.084 78.1604Z" fill="#FFA412"/>
<path d="M226.903 79.8203C219.65 75.088 212.499 73.9662 210.931 77.312C209.363 80.6578 213.971 87.2063 221.224 91.9386C228.477 96.6709 235.628 97.7927 237.196 94.4469C238.764 91.1011 234.156 84.5526 226.903 79.8203Z" fill="#FFB93E"/>
<path d="M221.626 90.9926C218.59 89.005 215.974 86.6117 214.26 84.251C212.506 81.8339 211.9 79.7183 212.556 78.2949C212.888 77.568 213.515 77.069 214.421 76.8086C217.098 76.0383 221.839 77.5116 226.501 80.5623C229.537 82.5477 232.154 84.9432 233.867 87.3039C235.621 89.7211 236.227 91.8366 235.572 93.26C235.239 93.9869 234.612 94.4859 233.706 94.7463C233.235 94.883 232.699 94.9481 232.11 94.9481C229.361 94.9481 225.465 93.5052 221.626 90.9926ZM214.566 77.3185C213.817 77.5333 213.303 77.9369 213.038 78.5162C212.475 79.74 213.079 81.7167 214.69 83.9386C216.367 86.2494 218.933 88.5949 221.917 90.5477C225.635 92.9801 229.498 94.4143 232.128 94.4143C232.66 94.4143 233.139 94.3557 233.559 94.2342C234.308 94.0194 234.822 93.6158 235.087 93.0365C235.65 91.8127 235.046 89.8361 233.435 87.6142C231.758 85.3034 229.192 82.9578 226.208 81.005C222.49 78.5726 218.627 77.1384 215.997 77.1384C215.465 77.1384 214.985 77.197 214.566 77.3185Z" fill="#FFA412"/>
<path d="M227.526 87.7769C227.689 87.8051 227.828 87.7986 227.941 87.7617C228.054 87.7227 228.139 87.6511 228.195 87.5448C228.252 87.4384 228.271 87.2952 228.254 87.1151C228.239 86.9567 228.193 86.7897 228.117 86.6118C228.041 86.4338 227.922 86.2516 227.759 86.065C227.596 85.8784 227.383 85.6961 227.123 85.5138C226.862 85.3316 226.543 85.158 226.165 84.9909L226.004 83.3289C226.645 83.6088 227.198 83.919 227.672 84.2597C228.143 84.5982 228.541 84.9497 228.864 85.312C229.188 85.6744 229.444 86.0389 229.633 86.4078C229.822 86.7745 229.954 87.1282 230.035 87.4688L231.618 88.1632L231.707 89.0788L230.115 88.3801C230.1 88.7034 230.024 88.9703 229.887 89.1808C229.748 89.3913 229.555 89.5345 229.301 89.6148C229.049 89.695 228.74 89.7081 228.378 89.6538C228.015 89.5996 227.6 89.4694 227.131 89.2632C226.614 89.0354 226.161 88.7794 225.77 88.493C225.379 88.2066 225.031 87.8898 224.725 87.5469C224.419 87.2041 224.141 86.8309 223.893 86.4295C223.646 86.0281 223.398 85.5963 223.155 85.1341C223.005 84.8477 222.862 84.6004 222.727 84.3921C222.593 84.1837 222.452 84.0037 222.308 83.8496C222.163 83.6955 222.009 83.5654 221.846 83.4569C221.683 83.3484 221.503 83.2507 221.305 83.1639C221.107 83.0772 220.925 83.0164 220.76 82.9795C220.593 82.9426 220.452 82.9383 220.334 82.9622C220.217 82.9882 220.128 83.0468 220.069 83.1401C220.009 83.2334 219.987 83.3657 220.004 83.5393C220.035 83.8583 220.219 84.1816 220.554 84.5114C220.89 84.8412 221.377 85.145 222.017 85.427L222.178 87.0891C221.646 86.8548 221.159 86.5922 220.721 86.3036C220.282 86.0129 219.896 85.7048 219.563 85.3793C219.231 85.0538 218.953 84.7132 218.73 84.3573C218.506 84.0015 218.347 83.6456 218.252 83.2876L216.517 82.526L216.428 81.606L218.139 82.3568C218.154 82.0335 218.234 81.7688 218.38 81.567C218.525 81.3652 218.727 81.2241 218.986 81.1482C219.244 81.0701 219.555 81.0592 219.917 81.1157C220.28 81.1721 220.688 81.3001 221.142 81.4997C221.665 81.7297 222.121 81.9879 222.51 82.2743C222.901 82.5607 223.246 82.8754 223.55 83.2182C223.854 83.561 224.128 83.9321 224.373 84.3356C224.619 84.737 224.858 85.1688 225.092 85.631C225.225 85.8979 225.357 86.1344 225.49 86.3362C225.622 86.5401 225.761 86.7181 225.909 86.8765C226.056 87.0327 226.217 87.1694 226.393 87.2866C226.567 87.4037 226.766 87.5122 226.99 87.6099C227.188 87.6966 227.368 87.7531 227.531 87.7813L227.526 87.7769Z" fill="#FFA412"/>
<path d="M397.543 85.6394L223.345 115.767L260.719 331.52L434.917 301.392L397.543 85.6394Z" fill="#F8FCFF"/>
<path d="M411.133 280.429C410.905 279.099 410.456 277.914 409.783 276.87C409.112 275.822 408.275 274.961 407.266 274.286C406.256 273.611 405.09 273.149 403.77 272.9C402.451 272.652 401.027 272.659 399.503 272.923C397.974 273.188 396.64 273.657 395.505 274.329C394.367 275.004 393.437 275.829 392.712 276.803C391.989 277.777 391.485 278.873 391.205 280.079C390.925 281.29 390.903 282.56 391.133 283.887C391.364 285.215 391.811 286.394 392.48 287.418C393.144 288.444 393.982 289.292 394.992 289.969C396.004 290.644 397.155 291.109 398.456 291.362C399.752 291.612 401.166 291.61 402.695 291.345C404.219 291.08 405.563 290.607 406.723 289.93C407.88 289.253 408.823 288.427 409.546 287.45C410.269 286.478 410.775 285.393 411.055 284.204C411.337 283.013 411.366 281.755 411.133 280.424V280.429ZM398.871 212.586L379.796 215.882L390.693 266.262L405.555 263.691L398.868 212.586H398.871Z" fill="#F78248"/>
<path d="M385.783 112.931L336.963 121.376C336.45 121.465 335.961 121.12 335.872 120.608C335.783 120.096 336.127 119.608 336.641 119.519L385.461 111.076C385.974 110.987 386.463 111.33 386.552 111.844C386.641 112.356 386.297 112.845 385.783 112.934V112.931Z" fill="#AEC3FF"/>
<path d="M386.883 119.291L338.063 127.734C337.551 127.823 337.062 127.478 336.973 126.966C336.884 126.454 337.227 125.965 337.742 125.876L386.562 117.434C387.075 117.345 387.563 117.688 387.652 118.202C387.741 118.714 387.398 119.202 386.883 119.291Z" fill="#AEC3FF"/>
<path d="M387.985 125.651L339.165 134.093C338.652 134.182 338.164 133.84 338.075 133.325C337.986 132.813 338.329 132.325 338.843 132.236L387.664 123.791C388.176 123.702 388.665 124.047 388.754 124.559C388.843 125.071 388.5 125.56 387.985 125.649V125.651Z" fill="#AEC3FF"/>
<path d="M360.506 149.959L326.797 155.789C326.059 155.917 325.357 155.423 325.229 154.685C325.101 153.947 325.596 153.246 326.334 153.118L360.043 147.288C360.781 147.16 361.483 147.655 361.611 148.392C361.739 149.13 361.244 149.831 360.506 149.959Z" fill="#AEC3FF"/>
<path d="M390.866 144.708L370.135 148.295C369.397 148.423 368.695 147.928 368.567 147.19C368.439 146.453 368.934 145.752 369.672 145.624L390.404 142.037C391.142 141.909 391.844 142.404 391.972 143.141C392.1 143.879 391.605 144.58 390.866 144.708Z" fill="#AEC3FF"/>
<path d="M313.592 158.074L249.524 169.155C248.785 169.283 248.084 168.788 247.956 168.051C247.828 167.313 248.323 166.612 249.061 166.484L313.13 155.403C313.868 155.275 314.569 155.77 314.698 156.507C314.826 157.245 314.331 157.946 313.592 158.074Z" fill="#AEC3FF"/>
<path d="M302.909 169.437L251.124 178.394C250.386 178.522 249.684 178.027 249.556 177.29C249.428 176.552 249.923 175.851 250.662 175.723L302.446 166.766C303.184 166.638 303.886 167.133 304.014 167.871C304.142 168.608 303.647 169.309 302.909 169.437Z" fill="#AEC3FF"/>
<path d="M363.268 158.998L311.484 167.955C310.745 168.083 310.044 167.589 309.916 166.851C309.788 166.113 310.283 165.412 311.021 165.284L362.805 156.327C363.544 156.199 364.245 156.694 364.373 157.432C364.501 158.169 364.006 158.87 363.268 158.998Z" fill="#AEC3FF"/>
<path d="M364.628 177.552L330.919 183.382C330.181 183.511 329.479 183.016 329.351 182.278C329.223 181.54 329.718 180.839 330.457 180.711L364.165 174.881C364.903 174.753 365.605 175.248 365.733 175.986C365.861 176.723 365.366 177.424 364.628 177.552Z" fill="#AEC3FF"/>
<path d="M394.99 172.301L374.259 175.888C373.521 176.016 372.819 175.521 372.691 174.784C372.563 174.046 373.058 173.345 373.796 173.217L394.528 169.63C395.266 169.502 395.968 169.997 396.096 170.735C396.224 171.472 395.729 172.173 394.99 172.301Z" fill="#AEC3FF"/>
<path d="M317.716 185.667L253.648 196.748C252.909 196.876 252.208 196.382 252.08 195.644C251.952 194.906 252.447 194.205 253.185 194.077L317.254 182.996C317.992 182.868 318.694 183.363 318.822 184.101C318.95 184.838 318.455 185.539 317.716 185.667Z" fill="#AEC3FF"/>
<path d="M307.033 197.031L255.248 205.987C254.51 206.115 253.808 205.621 253.68 204.883C253.552 204.145 254.047 203.444 254.786 203.316L306.57 194.359C307.308 194.231 308.01 194.726 308.138 195.464C308.266 196.202 307.771 196.902 307.033 197.031Z" fill="#AEC3FF"/>
<path d="M396.564 181.547L315.608 195.549C314.869 195.677 314.168 195.182 314.04 194.444C313.912 193.706 314.407 193.006 315.145 192.878L396.102 178.876C396.84 178.748 397.541 179.243 397.67 179.98C397.798 180.718 397.303 181.419 396.564 181.547Z" fill="#AEC3FF"/>
<path d="M368.032 197.195L334.323 203.026C333.585 203.154 332.884 202.659 332.756 201.921C332.627 201.184 333.123 200.483 333.861 200.355L367.569 194.524C368.308 194.396 369.009 194.891 369.137 195.629C369.265 196.367 368.77 197.067 368.032 197.195Z" fill="#AEC3FF"/>
<path d="M398.393 191.945L377.661 195.531C376.923 195.659 376.222 195.164 376.093 194.427C375.965 193.689 376.46 192.988 377.199 192.86L397.93 189.273C398.669 189.145 399.37 189.64 399.498 190.378C399.626 191.116 399.131 191.816 398.393 191.945Z" fill="#AEC3FF"/>
<path d="M321.119 205.31L257.05 216.392C256.312 216.52 255.61 216.025 255.482 215.287C255.354 214.549 255.849 213.849 256.587 213.721L320.656 202.639C321.394 202.511 322.096 203.006 322.224 203.744C322.352 204.482 321.857 205.182 321.119 205.31Z" fill="#AEC3FF"/>
<path d="M310.435 216.674L258.651 225.631C257.912 225.759 257.211 225.264 257.083 224.526C256.955 223.788 257.45 223.088 258.188 222.96L309.972 214.003C310.711 213.875 311.412 214.369 311.54 215.107C311.668 215.845 311.173 216.546 310.435 216.674Z" fill="#AEC3FF"/>
<path d="M370.792 206.235L319.008 215.192C318.27 215.32 317.568 214.825 317.44 214.087C317.312 213.35 317.807 212.649 318.545 212.521L370.33 203.564C371.068 203.436 371.77 203.93 371.898 204.668C372.026 205.406 371.531 206.107 370.792 206.235Z" fill="#AEC3FF"/>
<path d="M318.414 61.2382L302.981 63.6119C302.477 61.8804 300.644 66.3437 299.007 71.8072C297.756 75.9776 296.618 80.7316 296.277 83.752C295.812 87.842 296.312 97.1418 299.044 101.837C301.743 106.476 298.979 111.209 297.081 110.74C294.805 110.176 288.384 102.104 285.721 98.4285C285.102 97.5714 284.686 96.9552 284.573 96.7252C282.735 92.991 286.39 84.672 286.327 80.4148C286.325 80.2239 286.314 80.0373 286.297 79.8637C286.199 78.9524 285.721 77.798 285.039 76.5569C282.692 72.2824 277.928 66.9729 277.928 66.9729L303.838 55.1974L318.414 61.2382Z" fill="#E59365"/>
<path d="M298.17 63.8484C298.17 63.8484 296.941 67.0923 294.733 72.9334C293.182 77.0278 291.152 82.4002 288.724 88.8293C287.801 91.2725 286.696 94.844 285.721 98.4285C284.188 104.048 282.974 109.698 283.278 111.061C285.098 119.211 282.729 126.699 278.464 125.128C275.882 124.175 273.304 115.453 272.774 112.743C271.917 108.364 272.225 99.4005 272.546 93.631C272.72 90.4957 272.9 88.3042 272.9 88.3042L285.039 76.5569L298.17 63.8484Z" fill="#F2A36D"/>
<path d="M369.318 52.4244C362.602 57.1264 362.276 62.7028 362.009 66.1094C361.338 74.5585 353.423 86.9481 342.689 99.3376C336.847 106.081 331.666 115.958 329.864 119.892C329.862 119.899 329.857 119.907 329.855 119.914C329.375 120.968 328.55 123.16 327.571 125.655C327.354 126.206 327.13 126.773 326.9 127.345C326.066 129.431 325.156 131.587 324.274 133.382C323.295 135.378 322.35 136.923 321.573 137.411C321.147 137.678 320.435 137.591 319.608 137.274C318.824 136.979 317.936 136.478 317.084 135.875C315.656 134.862 314.335 133.562 313.812 132.468C313.651 132.134 313.51 131.787 313.386 131.429C312.776 129.663 312.607 127.61 312.828 125.21C313.256 120.523 315.171 114.515 318.192 106.737C322.841 94.7702 322.203 88.7143 320.452 83.3549C319.312 79.8724 317.651 76.5222 312.518 74.4761C311.912 74.2374 310.053 73.3369 307.517 72.6231C305.117 71.9461 302.116 71.4362 299.006 71.8072C300.644 66.3437 302.477 61.8804 302.98 63.6119L318.413 61.2382L303.838 55.1974L277.927 66.9729C277.927 66.9729 282.692 72.2824 285.039 76.5569L272.9 88.3042C272.9 88.3042 272.72 90.4957 272.546 93.6311C272.043 94.5662 271.676 95.5578 271.491 96.6189C270.688 101.206 268.323 105.73 265.967 110.749H265.964C264.258 114.379 262.555 118.271 261.452 122.635C258.796 133.134 252.833 134.215 249.724 131.03C249.685 130.991 249.645 130.949 249.606 130.908C248.653 129.871 248.67 124.18 248.951 119.063C249.159 115.231 249.511 111.721 249.715 110.723C250.34 107.607 255.589 95.3799 258.143 82.7235C260.047 73.2849 274.896 59.2398 285.397 40.6576C290.626 31.41 310.583 28.9473 331.482 16.9591C332.606 16.3169 333.836 15.8764 335.004 15.3144L334.904 15.399L369.318 52.4244Z" fill="#FFB27D"/>
<path d="M303.838 55.1974L318.413 61.2382L302.98 63.6119C302.476 61.8804 300.643 66.3437 299.006 71.8072C298.895 71.8203 298.784 71.8354 298.674 71.8506C297.555 72.0069 296.426 72.2781 295.306 72.7034C295.115 72.775 294.923 72.8531 294.732 72.9334C292.381 73.9336 290.098 75.6261 288.105 78.3188C288.035 78.4099 287.966 78.5011 287.894 78.5922V78.5965C287.894 78.5965 287.892 78.5965 287.89 78.5987C287.408 79.2258 286.882 79.8311 286.326 80.4148C285.907 80.8596 285.469 81.2936 285.017 81.7167C282.939 83.6673 280.594 85.4227 278.444 87.1998C276.329 88.953 274.392 90.7235 273.08 92.7328C272.889 93.0278 272.709 93.3273 272.546 93.631C272.72 90.4957 272.9 88.3042 272.9 88.3042L285.039 76.5569C282.691 72.2824 277.927 66.9729 277.927 66.9729L303.838 55.1974Z" fill="#FFB27D"/>
<path d="M400.53 31.9286C396.734 34.1309 393.19 36.2161 390.104 38.0647C390.028 38.1103 389.952 38.1559 389.876 38.2014C388.337 39.1301 386.912 39.998 385.64 40.79C385.566 40.8334 385.497 40.879 385.425 40.9224C383.182 42.3197 381.423 43.4675 380.309 44.2856C377.464 46.3686 372.793 48.9072 369.343 52.4049V52.4114C369.343 52.4114 369.327 52.4201 369.321 52.4245H369.319L334.904 15.3991L335.004 15.3144H335.006C338.342 13.7023 341.608 11.9643 344.802 10.1047C348.366 10.0961 351.953 10.2371 355.556 10.517C356.665 10.6038 357.777 10.7014 358.889 10.8143C359.204 10.8468 359.516 10.8794 359.831 10.9141C362.691 11.22 365.56 11.6128 368.435 12.0901H368.437C373.503 12.9298 378.585 14.0212 383.664 15.3513C390.085 20.8387 395.655 26.376 400.53 31.9286Z" fill="#FFB27D"/>
<path d="M391.36 39.5662L387.742 41.8749L386.795 42.4781L370.022 53.1817L369.321 52.4266L369.319 52.4244L334.904 15.399L335.004 15.3144H335.006L347.847 4.91458C349.019 4.7627 350.187 4.61732 351.347 4.48062C351.666 4.44157 351.986 4.40468 352.303 4.36996C354.007 5.77816 356.672 8.10635 359.829 10.9119H359.831C369.951 19.9057 385.116 33.8249 389.876 38.2014C390.825 39.0737 391.36 39.5662 391.36 39.5662Z" fill="#9FC1F4"/>
<path d="M446.916 8.37758L395.11 45.1166C395.11 45.1166 391.742 43.8559 387.742 41.8706C387.055 41.5277 386.35 41.1675 385.64 40.7857C383.153 39.4534 380.61 37.8933 378.602 36.2204C369.299 28.4807 360.763 17.6925 355.555 10.5127C353.681 7.93061 352.239 5.81723 351.345 4.47846C351.666 4.4394 351.983 4.40035 352.302 4.3678C389.538 0.0368884 420.91 2.03527 446.916 8.37758Z" fill="#F99746"/>
<path d="M373.516 42.9316C374.085 42.0181 375.288 41.7382 376.202 42.3089C377.116 42.8773 377.396 44.0794 376.825 44.9929C376.256 45.9064 375.053 46.1863 374.139 45.6156C373.225 45.0471 372.945 43.8451 373.516 42.9316Z" fill="#2A4E96"/>
<path d="M223.346 115.765L316.795 99.6023L305.054 151.165L238.696 165.586L223.346 115.765Z" fill="#F8FCFF"/>
<path d="M312.627 145.517L245.883 157.061L246.049 158.021L312.793 146.477L312.627 145.517Z" fill="#F78248"/>
<path d="M248.301 134C249.923 133.72 251.296 133.683 252.419 133.892C253.541 134.1 254.429 134.556 255.079 135.256C255.73 135.957 256.158 136.912 256.366 138.116C256.507 138.93 256.475 139.67 256.273 140.334C256.069 140.998 255.752 141.586 255.32 142.096C254.888 142.608 254.401 143.048 253.86 143.417L260.466 150.289L256.26 151.016L250.805 144.901L248.788 145.25L249.976 152.103L246.186 152.758L243.092 134.898L248.299 133.998L248.301 134ZM248.571 137.151L247.422 137.35L248.258 142.176L249.48 141.965C250.736 141.748 251.598 141.384 252.067 140.87C252.536 140.358 252.701 139.694 252.56 138.878C252.412 138.032 252.017 137.478 251.372 137.22C250.727 136.962 249.793 136.94 248.571 137.151Z" fill="#F78248"/>
<path d="M273.011 148.121L262.718 149.903L259.624 132.043L269.917 130.262L270.456 133.364L263.952 134.49L264.632 138.411L270.684 137.365L271.222 140.468L265.17 141.514L265.967 146.121L272.471 144.994L273.014 148.121H273.011Z" fill="#F78248"/>
<path d="M280.468 146.832L276.74 147.477L273.646 129.617L283.891 127.844L284.429 130.947L277.913 132.073L278.71 136.68L284.772 135.632L285.309 138.722L279.246 139.77L280.468 146.83V146.832Z" fill="#F78248"/>
<path d="M301.936 124.724L303.938 136.281C304.151 137.511 304.072 138.667 303.701 139.75C303.33 140.833 302.648 141.759 301.651 142.527C300.655 143.295 299.326 143.823 297.662 144.111C295.297 144.519 293.393 144.229 291.944 143.239C290.496 142.247 289.601 140.759 289.256 138.771L287.263 127.265L291.041 126.612L292.935 137.546C293.191 139.019 293.671 140.002 294.377 140.492C295.082 140.982 296.027 141.126 297.208 140.922C298.04 140.779 298.689 140.518 299.158 140.145C299.627 139.77 299.931 139.264 300.073 138.628C300.214 137.993 300.205 137.214 300.046 136.294L298.157 125.384L301.936 124.731V124.724Z" fill="#F78248"/>
<path d="M324.274 133.382C323.295 135.378 322.35 136.923 321.573 137.411C321.147 137.678 320.435 137.591 319.608 137.274C318.824 136.979 317.936 136.478 317.084 135.875L320.446 139.917L325.262 139.084L324.274 133.382ZM313.386 131.429C312.776 129.663 312.607 127.61 312.828 125.21L311.093 123.14L306.312 123.967L309.406 141.827L312.794 141.241L311.336 132.837C311.213 132.271 311.091 131.707 310.967 131.145C310.846 130.583 310.722 130.021 310.6 129.454C310.477 128.888 310.351 128.326 310.22 127.771L310.329 127.751L313.386 131.429Z" fill="#F78248"/>
<path d="M343.014 126.64C342.682 124.726 342.026 123.186 341.042 122.016C340.059 120.849 338.821 120.053 337.329 119.627C335.837 119.202 334.152 119.152 332.278 119.475L329.863 119.892C329.863 119.892 329.857 119.907 329.855 119.914C329.375 120.968 328.55 123.16 327.57 125.655L329.761 138.305L334.823 137.431C336.877 137.075 338.573 136.43 339.915 135.499C341.257 134.566 342.196 133.36 342.732 131.878C343.268 130.398 343.364 128.652 343.014 126.64ZM338.506 132.049C337.776 133.191 336.487 133.922 334.636 134.241L333.01 134.523L330.995 122.893L333.012 122.544C334.12 122.353 335.086 122.396 335.911 122.672C336.736 122.949 337.416 123.479 337.95 124.264C338.484 125.048 338.867 126.1 339.095 127.419C339.431 129.365 339.236 130.908 338.506 132.049Z" fill="#F78248"/>
<path d="M372.493 331.506V335.153C372.493 335.442 372.387 335.713 372.205 335.939C372.013 336.175 371.74 336.36 371.418 336.464C371.319 336.499 371.216 336.522 371.11 336.538C371.012 336.553 370.915 336.559 370.815 336.559H301.576C300.74 336.559 300.04 336.039 299.917 335.364C299.91 335.318 299.904 335.273 299.901 335.225C299.901 335.201 299.901 335.177 299.901 335.153V331.506C299.901 331.482 299.901 331.458 299.901 331.434C299.904 331.387 299.91 331.341 299.917 331.295C300.04 330.621 300.74 330.1 301.576 330.1H370.815C370.917 330.1 371.015 330.106 371.11 330.122C371.216 330.137 371.319 330.163 371.418 330.195C371.738 330.299 372.013 330.484 372.205 330.72C372.387 330.946 372.493 331.215 372.493 331.506Z" fill="#FFB93E"/>
<path d="M338.494 336.557H301.4C300.711 336.557 300.134 336.115 299.96 335.518C299.942 335.468 299.929 335.416 299.919 335.364C299.912 335.318 299.905 335.273 299.903 335.225C299.903 335.201 299.903 335.177 299.903 335.153V331.506C299.903 331.482 299.903 331.458 299.903 331.434C299.905 331.387 299.912 331.341 299.919 331.295C299.927 331.243 299.942 331.191 299.96 331.141C300.131 330.545 300.711 330.102 301.4 330.102H333.94C334.459 332.005 335.671 334.633 338.496 336.559L338.494 336.557Z" fill="#FFA412"/>
<path d="M364.067 330.1H363.281V336.559H364.067V330.1Z" fill="#FFA412"/>
<path d="M361.403 330.1H360.617V336.559H361.403V330.1Z" fill="#FFA412"/>
<path d="M358.209 330.1H357.423V336.559H358.209V330.1Z" fill="#FFA412"/>
<path d="M353.312 330.1H352.526V336.559H353.312V330.1Z" fill="#FFA412"/>
<path d="M348.135 330.1H347.349V336.559H348.135V330.1Z" fill="#FFA412"/>
<path d="M340.198 330.1H339.412V336.559H340.198V330.1Z" fill="#FFA412"/>
<path d="M332.765 330.1H331.979V336.559H332.765V330.1Z" fill="#FFA412"/>
<path d="M326.129 330.1H325.343V336.559H326.129V330.1Z" fill="#FFA412"/>
<path d="M366.602 330.1H365.815V336.559H366.602V330.1Z" fill="#FFA412"/>
<path d="M368.278 330.1H367.492V336.559H368.278V330.1Z" fill="#FFA412"/>
<path d="M369.896 330.1H369.11V336.559H369.896V330.1Z" fill="#FFA412"/>
<path d="M371.114 330.121V336.535C371.019 336.551 370.919 336.557 370.819 336.557H370.328V330.098H370.819C370.919 330.098 371.019 330.106 371.114 330.119V330.121Z" fill="#FFA412"/>
<path d="M372.206 330.72V335.937C372.015 336.173 371.741 336.357 371.42 336.462V330.193C371.741 330.297 372.015 330.482 372.206 330.718V330.72Z" fill="#FFA412"/>
<path d="M365.09 325.046V328.692C365.09 328.982 364.984 329.254 364.806 329.479C364.758 329.538 364.704 329.594 364.647 329.646C364.474 329.803 364.261 329.926 364.018 330.004C363.92 330.037 363.816 330.061 363.711 330.076C363.616 330.091 363.516 330.1 363.418 330.1H294.177C293.343 330.1 292.644 329.577 292.52 328.902C292.514 328.856 292.507 328.811 292.505 328.765C292.505 328.741 292.505 328.718 292.505 328.692V325.046C292.505 325.022 292.505 324.996 292.505 324.973C292.505 324.927 292.514 324.881 292.52 324.836C292.644 324.161 293.341 323.638 294.177 323.638H363.418C363.462 323.638 363.507 323.638 363.551 323.645C363.568 323.645 363.583 323.645 363.598 323.649C363.598 323.649 363.605 323.649 363.607 323.649C363.627 323.649 363.648 323.649 363.67 323.655C363.685 323.655 363.698 323.66 363.714 323.662C363.82 323.677 363.924 323.701 364.02 323.734C364.078 323.753 364.135 323.775 364.189 323.799C364.226 323.816 364.263 323.833 364.298 323.851C364.317 323.862 364.339 323.875 364.359 323.885C364.378 323.896 364.398 323.907 364.415 323.92C364.489 323.964 364.556 324.013 364.619 324.07C364.641 324.087 364.658 324.107 364.678 324.124C364.691 324.135 364.702 324.146 364.712 324.157C364.719 324.163 364.726 324.17 364.73 324.176L364.745 324.191C364.767 324.213 364.788 324.237 364.808 324.263C364.988 324.489 365.092 324.756 365.092 325.048L365.09 325.046Z" fill="#FFB93E"/>
<path d="M331.091 330.1H293.997C293.309 330.1 292.731 329.653 292.559 329.056C292.542 329.006 292.529 328.954 292.518 328.902C292.512 328.856 292.505 328.811 292.503 328.765C292.503 328.741 292.503 328.718 292.503 328.692V325.046C292.503 325.022 292.503 324.996 292.503 324.973C292.503 324.927 292.512 324.881 292.518 324.836C292.527 324.784 292.542 324.732 292.559 324.682C292.731 324.085 293.309 323.638 293.997 323.638H326.537C326.55 323.692 326.565 323.744 326.583 323.799C327.126 325.686 328.346 328.225 331.093 330.1H331.091Z" fill="#FFA412"/>
<path d="M356.665 323.64H355.879V330.1H356.665V323.64Z" fill="#FFA412"/>
<path d="M354.001 323.64H353.215V330.1H354.001V323.64Z" fill="#FFA412"/>
<path d="M350.807 323.64H350.021V330.1H350.807V323.64Z" fill="#FFA412"/>
<path d="M345.91 323.64H345.124V330.1H345.91V323.64Z" fill="#FFA412"/>
<path d="M340.732 323.64H339.946V330.1H340.732V323.64Z" fill="#FFA412"/>
<path d="M332.794 323.64H332.008V330.1H332.794V323.64Z" fill="#FFA412"/>
<path d="M325.362 323.64H324.576V330.1H325.362V323.64Z" fill="#FFA412"/>
<path d="M318.727 323.64H317.94V330.1H318.727V323.64Z" fill="#FFA412"/>
<path d="M359.199 323.64H358.413V330.1H359.199V323.64Z" fill="#FFA412"/>
<path d="M360.876 323.64H360.09V330.1H360.876V323.64Z" fill="#FFA412"/>
<path d="M362.494 323.64H361.708V330.1H362.494V323.64Z" fill="#FFA412"/>
<path d="M363.71 323.664V330.078C363.614 330.093 363.514 330.1 363.415 330.1H362.924V323.64H363.415C363.514 323.64 363.614 323.649 363.71 323.662V323.664Z" fill="#FFA412"/>
<path d="M364.804 324.261V329.477C364.613 329.714 364.339 329.898 364.018 330.002V323.734C364.339 323.838 364.613 324.024 364.804 324.259V324.261Z" fill="#FFA412"/>
<path d="M368.667 318.747V322.395C368.667 322.686 368.561 322.955 368.378 323.18C368.187 323.417 367.916 323.601 367.592 323.705C367.494 323.738 367.39 323.762 367.284 323.779C367.188 323.792 367.088 323.801 366.991 323.801H297.749C297.473 323.801 297.209 323.742 296.976 323.64C296.518 323.439 296.179 323.063 296.095 322.621C296.088 322.59 296.086 322.56 296.081 322.529C296.081 322.51 296.077 322.488 296.077 322.466C296.077 322.443 296.077 322.419 296.077 322.395V318.747C296.077 318.724 296.077 318.7 296.077 318.676C296.079 318.63 296.084 318.583 296.092 318.539C296.216 317.862 296.915 317.341 297.749 317.341H366.991C367.09 317.341 367.19 317.348 367.284 317.363C367.39 317.378 367.494 317.402 367.592 317.435C367.913 317.541 368.187 317.725 368.378 317.962C368.561 318.188 368.667 318.457 368.667 318.747Z" fill="#FFB93E"/>
<path d="M334.667 323.801H297.573C297.323 323.801 297.091 323.742 296.885 323.64C296.474 323.439 296.172 323.063 296.096 322.621C296.09 322.59 296.088 322.56 296.083 322.529C296.083 322.51 296.079 322.488 296.079 322.466C296.079 322.443 296.079 322.419 296.079 322.395V318.747C296.079 318.724 296.079 318.7 296.079 318.676C296.081 318.63 296.086 318.583 296.094 318.539C296.103 318.487 296.118 318.437 296.133 318.389C296.303 317.788 296.883 317.341 297.571 317.341H330.111C330.617 319.19 331.777 321.729 334.439 323.64C334.513 323.695 334.589 323.749 334.667 323.801Z" fill="#FFA412"/>
<path d="M360.241 317.341H359.455V323.801H360.241V317.341Z" fill="#FFA412"/>
<path d="M357.577 317.341H356.791V323.801H357.577V317.341Z" fill="#FFA412"/>
<path d="M354.383 317.341H353.597V323.801H354.383V317.341Z" fill="#FFA412"/>
<path d="M349.488 317.341H348.702V323.801H349.488V317.341Z" fill="#FFA412"/>
<path d="M344.309 317.341H343.522V323.801H344.309V317.341Z" fill="#FFA412"/>
<path d="M336.372 317.341H335.586V323.801H336.372V317.341Z" fill="#FFA412"/>
<path d="M328.938 317.341H328.152V323.801H328.938V317.341Z" fill="#FFA412"/>
<path d="M322.303 317.341H321.517V323.801H322.303V317.341Z" fill="#FFA412"/>
<path d="M362.777 317.341H361.991V323.801H362.777V317.341Z" fill="#FFA412"/>
<path d="M364.452 317.341H363.666V323.801H364.452V317.341Z" fill="#FFA412"/>
<path d="M366.07 317.341H365.284V323.801H366.07V317.341Z" fill="#FFA412"/>
<path d="M367.288 317.363V323.777C367.192 323.792 367.093 323.799 366.993 323.799H366.502V317.339H366.993C367.093 317.339 367.192 317.348 367.288 317.361V317.363Z" fill="#FFA412"/>
<path d="M368.38 317.962V323.178C368.189 323.415 367.915 323.599 367.594 323.703V317.435C367.915 317.539 368.189 317.725 368.38 317.96V317.962Z" fill="#FFA412"/>
<path d="M370.327 312.29V315.935C370.327 316.226 370.22 316.495 370.038 316.721C370.014 316.751 369.988 316.779 369.962 316.808C369.829 316.949 369.669 317.068 369.484 317.155C369.41 317.189 369.332 317.222 369.252 317.248C369.152 317.281 369.05 317.304 368.943 317.32C368.896 317.326 368.848 317.333 368.798 317.337C368.748 317.341 368.696 317.344 368.646 317.344H299.407C298.568 317.344 297.871 316.821 297.748 316.146C297.741 316.1 297.735 316.055 297.732 316.009V312.216C297.776 311.531 298.408 310.973 299.207 310.893C299.272 310.886 299.339 310.882 299.407 310.882H368.646C368.696 310.882 368.748 310.884 368.798 310.888C368.848 310.893 368.896 310.897 368.943 310.906C369.05 310.921 369.152 310.945 369.252 310.977C369.571 311.081 369.847 311.266 370.038 311.502C370.22 311.728 370.327 311.997 370.327 312.288V312.29Z" fill="#FFB93E"/>
<path d="M336.327 317.344H299.233C298.547 317.344 297.967 316.899 297.794 316.302C297.776 316.252 297.763 316.2 297.752 316.148C297.746 316.102 297.739 316.057 297.737 316.011V312.219C297.776 311.535 298.341 310.975 299.055 310.895C299.114 310.888 299.173 310.884 299.233 310.884H331.774C331.774 310.884 331.774 310.891 331.774 310.895C332.295 312.793 333.507 315.419 336.327 317.344Z" fill="#FFA412"/>
<path d="M361.9 310.882H361.114V317.341H361.9V310.882Z" fill="#FFA412"/>
<path d="M359.236 310.882H358.45V317.341H359.236V310.882Z" fill="#FFA412"/>
<path d="M356.042 310.882H355.256V317.341H356.042V310.882Z" fill="#FFA412"/>
<path d="M351.145 310.882H350.359V317.341H351.145V310.882Z" fill="#FFA412"/>
<path d="M345.968 310.882H345.182V317.341H345.968V310.882Z" fill="#FFA412"/>
<path d="M338.031 310.882H337.245V317.341H338.031V310.882Z" fill="#FFA412"/>
<path d="M330.598 310.882H329.812V317.341H330.598V310.882Z" fill="#FFA412"/>
<path d="M323.962 310.882H323.176V317.341H323.962V310.882Z" fill="#FFA412"/>
<path d="M364.436 310.882H363.65V317.341H364.436V310.882Z" fill="#FFA412"/>
<path d="M366.111 310.882H365.325V317.341H366.111V310.882Z" fill="#FFA412"/>
<path d="M367.729 310.882H366.943V317.341H367.729V310.882Z" fill="#FFA412"/>
<path d="M368.947 310.906V317.32C368.852 317.335 368.752 317.341 368.652 317.341H368.161V310.882H368.652C368.752 310.882 368.852 310.891 368.947 310.904V310.906Z" fill="#FFA412"/>
<path d="M370.039 311.505V316.721C369.848 316.957 369.574 317.142 369.253 317.246V310.977C369.574 311.081 369.848 311.268 370.039 311.502V311.505Z" fill="#FFA412"/>
<path d="M365.234 305.842V309.487C365.234 309.778 365.13 310.047 364.95 310.272C364.759 310.511 364.485 310.695 364.161 310.799C364.064 310.832 363.959 310.856 363.857 310.871C363.825 310.878 363.792 310.882 363.76 310.884H363.747C363.729 310.886 363.712 310.888 363.695 310.888C363.679 310.888 363.666 310.888 363.649 310.893C363.619 310.893 363.59 310.895 363.56 310.895H294.321C293.428 310.895 292.692 310.3 292.646 309.561C292.646 309.537 292.646 309.513 292.646 309.487V305.842C292.646 305.818 292.646 305.792 292.646 305.768C292.646 305.748 292.649 305.729 292.651 305.709C292.718 305.115 293.233 304.622 293.908 304.479C293.923 304.475 293.941 304.47 293.958 304.468C294.075 304.446 294.197 304.433 294.321 304.433H363.56C363.612 304.433 363.66 304.433 363.71 304.44C363.731 304.442 363.753 304.444 363.773 304.446H363.779C363.805 304.446 363.831 304.453 363.857 304.457C363.962 304.472 364.066 304.496 364.161 304.529C364.483 304.633 364.759 304.817 364.95 305.056C365.132 305.282 365.234 305.549 365.234 305.842Z" fill="#FFB93E"/>
<path d="M331.234 310.893H294.142C293.343 310.893 292.69 310.298 292.648 309.558C292.648 309.534 292.648 309.511 292.648 309.485V305.839C292.648 305.815 292.648 305.789 292.648 305.765C292.648 305.746 292.651 305.726 292.653 305.707C292.714 305.097 293.191 304.6 293.815 304.468C293.834 304.461 293.856 304.457 293.878 304.455C293.964 304.44 294.053 304.431 294.145 304.431H326.683C326.687 304.448 326.691 304.461 326.696 304.479C327.221 306.373 328.433 308.97 331.223 310.88C331.228 310.884 331.234 310.886 331.239 310.891L331.234 310.893Z" fill="#FFA412"/>
<path d="M356.811 304.433H356.024V310.893H356.811V304.433Z" fill="#FFA412"/>
<path d="M354.146 304.433H353.36V310.893H354.146V304.433Z" fill="#FFA412"/>
<path d="M350.952 304.433H350.166V310.893H350.952V304.433Z" fill="#FFA412"/>
<path d="M346.056 304.433H345.27V310.893H346.056V304.433Z" fill="#FFA412"/>
<path d="M340.878 304.433H340.092V310.893H340.878V304.433Z" fill="#FFA412"/>
<path d="M332.939 304.433H332.153V310.893H332.939V304.433Z" fill="#FFA412"/>
<path d="M325.508 304.433H324.722V310.893H325.508V304.433Z" fill="#FFA412"/>
<path d="M318.872 304.433H318.086V310.893H318.872V304.433Z" fill="#FFA412"/>
<path d="M359.345 304.433H358.559V310.893H359.345V304.433Z" fill="#FFA412"/>
<path d="M361.021 304.433H360.235V310.893H361.021V304.433Z" fill="#FFA412"/>
<path d="M362.64 304.433H361.854V310.893H362.64V304.433Z" fill="#FFA412"/>
<path d="M363.855 304.457V310.871C363.76 310.886 363.66 310.893 363.56 310.893H363.069V304.433H363.56C363.66 304.433 363.76 304.442 363.855 304.455V304.457Z" fill="#FFA412"/>
<path d="M364.95 305.056V310.272C364.759 310.509 364.485 310.693 364.164 310.797V304.529C364.485 304.633 364.759 304.819 364.95 305.054V305.056Z" fill="#FFA412"/>
<path d="M365.091 299.428V303.073C365.091 303.364 364.984 303.633 364.806 303.858C364.759 303.917 364.704 303.973 364.648 304.027C364.474 304.184 364.261 304.307 364.018 304.385C363.94 304.412 363.86 304.431 363.779 304.446H363.773C363.751 304.451 363.731 304.455 363.71 304.457C363.614 304.472 363.514 304.481 363.417 304.481H294.175C294.104 304.481 294.03 304.477 293.958 304.468C293.93 304.468 293.902 304.461 293.876 304.457C293.17 304.349 292.614 303.867 292.514 303.268C292.507 303.227 292.503 303.188 292.501 303.147C292.501 303.121 292.501 303.097 292.501 303.073V299.428C292.501 299.401 292.501 299.378 292.501 299.354C292.501 299.308 292.51 299.263 292.516 299.217C292.64 298.542 293.337 298.019 294.173 298.019H363.414C363.458 298.019 363.503 298.019 363.547 298.024C363.553 298.024 363.56 298.024 363.564 298.024C363.577 298.024 363.59 298.024 363.603 298.024C363.623 298.024 363.645 298.028 363.666 298.032C363.681 298.032 363.694 298.032 363.71 298.039C363.816 298.054 363.92 298.078 364.016 298.11C364.074 298.13 364.131 298.152 364.185 298.176C364.402 298.271 364.589 298.406 364.739 298.564C364.761 298.588 364.782 298.612 364.802 298.636C364.982 298.861 365.086 299.13 365.086 299.421L365.091 299.428Z" fill="#FFB93E"/>
<path d="M331.091 304.481H293.997C293.969 304.481 293.938 304.481 293.91 304.481C293.878 304.481 293.845 304.475 293.815 304.472C293.144 304.392 292.607 303.895 292.516 303.27C292.509 303.229 292.505 303.19 292.503 303.149C292.503 303.123 292.503 303.099 292.503 303.075V299.43C292.503 299.404 292.503 299.38 292.503 299.356C292.503 299.31 292.512 299.265 292.518 299.219C292.527 299.167 292.542 299.115 292.559 299.065C292.731 298.469 293.309 298.022 293.997 298.022H326.537C326.55 298.076 326.565 298.128 326.583 298.182C327.121 300.055 328.327 302.565 331.026 304.435C331.048 304.453 331.071 304.466 331.093 304.483L331.091 304.481Z" fill="#FFA412"/>
<path d="M356.665 298.021H355.879V304.481H356.665V298.021Z" fill="#FFA412"/>
<path d="M354.001 298.021H353.215V304.481H354.001V298.021Z" fill="#FFA412"/>
<path d="M350.807 298.021H350.021V304.481H350.807V298.021Z" fill="#FFA412"/>
<path d="M345.91 298.021H345.124V304.481H345.91V298.021Z" fill="#FFA412"/>
<path d="M340.732 298.021H339.946V304.481H340.732V298.021Z" fill="#FFA412"/>
<path d="M332.794 298.021H332.008V304.481H332.794V298.021Z" fill="#FFA412"/>
<path d="M325.362 298.021H324.576V304.481H325.362V298.021Z" fill="#FFA412"/>
<path d="M318.727 298.022H317.94V304.481H318.727V298.022Z" fill="#FFA412"/>
<path d="M359.199 298.021H358.413V304.481H359.199V298.021Z" fill="#FFA412"/>
<path d="M360.876 298.021H360.09V304.481H360.876V298.021Z" fill="#FFA412"/>
<path d="M362.494 298.021H361.708V304.481H362.494V298.021Z" fill="#FFA412"/>
<path d="M363.71 298.043V304.457C363.614 304.472 363.514 304.479 363.415 304.479H362.924V298.019H363.415C363.514 298.019 363.614 298.028 363.71 298.041V298.043Z" fill="#FFA412"/>
<path d="M364.804 298.642V303.858C364.613 304.095 364.339 304.279 364.018 304.383V298.115C364.339 298.219 364.613 298.406 364.804 298.64V298.642Z" fill="#FFA412"/>
<path d="M368.667 293.129V296.774C368.667 297.065 368.561 297.336 368.378 297.562C368.187 297.798 367.916 297.983 367.592 298.087C367.494 298.119 367.39 298.143 367.284 298.158C367.188 298.173 367.088 298.182 366.991 298.182H297.749C297.473 298.182 297.209 298.124 296.976 298.022C296.518 297.82 296.179 297.444 296.095 297.002C296.088 296.971 296.086 296.941 296.081 296.911C296.081 296.889 296.077 296.869 296.077 296.848C296.077 296.824 296.077 296.8 296.077 296.774V293.129C296.077 293.105 296.077 293.079 296.077 293.055C296.079 293.009 296.084 292.964 296.092 292.918C296.216 292.243 296.915 291.72 297.749 291.72H366.991C367.09 291.72 367.19 291.729 367.284 291.744C367.39 291.76 367.494 291.783 367.592 291.816C367.913 291.92 368.187 292.107 368.378 292.343C368.561 292.569 368.667 292.836 368.667 293.129Z" fill="#FFB93E"/>
<path d="M334.667 298.18H297.573C297.323 298.18 297.091 298.121 296.885 298.019C296.474 297.818 296.172 297.442 296.096 297C296.09 296.969 296.088 296.939 296.083 296.908C296.083 296.887 296.079 296.867 296.079 296.845C296.079 296.822 296.079 296.798 296.079 296.772V293.126C296.079 293.103 296.079 293.077 296.079 293.053C296.081 293.007 296.086 292.962 296.094 292.916C296.103 292.864 296.118 292.816 296.133 292.766C296.303 292.167 296.883 291.718 297.571 291.718H330.111C330.617 293.569 331.777 296.108 334.439 298.019C334.513 298.074 334.589 298.126 334.667 298.18Z" fill="#FFA412"/>
<path d="M360.241 291.723H359.455V298.182H360.241V291.723Z" fill="#FFA412"/>
<path d="M357.577 291.723H356.791V298.182H357.577V291.723Z" fill="#FFA412"/>
<path d="M354.383 291.723H353.597V298.182H354.383V291.723Z" fill="#FFA412"/>
<path d="M349.488 291.723H348.702V298.182H349.488V291.723Z" fill="#FFA412"/>
<path d="M344.309 291.723H343.522V298.182H344.309V291.723Z" fill="#FFA412"/>
<path d="M336.372 291.723H335.586V298.182H336.372V291.723Z" fill="#FFA412"/>
<path d="M328.938 291.723H328.152V298.182H328.938V291.723Z" fill="#FFA412"/>
<path d="M322.303 291.723H321.517V298.182H322.303V291.723Z" fill="#FFA412"/>
<path d="M362.777 291.723H361.991V298.182H362.777V291.723Z" fill="#FFA412"/>
<path d="M364.452 291.723H363.666V298.182H364.452V291.723Z" fill="#FFA412"/>
<path d="M366.07 291.723H365.284V298.182H366.07V291.723Z" fill="#FFA412"/>
<path d="M367.288 291.744V298.158C367.192 298.173 367.093 298.18 366.993 298.18H366.502V291.72H366.993C367.093 291.72 367.192 291.729 367.288 291.742V291.744Z" fill="#FFA412"/>
<path d="M368.38 292.343V297.559C368.189 297.796 367.915 297.98 367.594 298.084V291.816C367.915 291.92 368.189 292.107 368.38 292.341V292.343Z" fill="#FFA412"/>
<path d="M374.326 286.669V290.317C374.326 290.607 374.22 290.874 374.041 291.1H374.039C374.015 291.132 373.989 291.161 373.963 291.189C373.857 291.302 373.733 291.399 373.594 291.477C373.525 291.516 373.451 291.553 373.373 291.584C373.336 291.599 373.297 291.614 373.255 291.627C373.158 291.66 373.053 291.684 372.949 291.699C372.854 291.714 372.754 291.72 372.654 291.72H303.413C302.577 291.72 301.879 291.2 301.756 290.525C301.747 290.479 301.743 290.434 301.74 290.386C301.738 290.362 301.738 290.338 301.738 290.314V286.667C301.738 286.643 301.738 286.619 301.74 286.595C301.782 285.912 302.414 285.352 303.215 285.272C303.28 285.263 303.345 285.261 303.413 285.261H372.654C372.754 285.261 372.854 285.27 372.949 285.283C373.056 285.3 373.16 285.324 373.255 285.356C373.535 285.448 373.779 285.599 373.965 285.795C373.992 285.823 374.018 285.851 374.041 285.882H374.044C374.224 286.109 374.328 286.376 374.328 286.667L374.326 286.669Z" fill="#FFB93E"/>
<path d="M340.326 291.72H303.232C302.544 291.72 301.962 291.273 301.795 290.675C301.78 290.625 301.764 290.575 301.756 290.525C301.747 290.479 301.743 290.434 301.74 290.386C301.738 290.362 301.738 290.338 301.738 290.314V286.667C301.738 286.643 301.738 286.619 301.74 286.595C301.777 285.912 302.342 285.352 303.056 285.272C303.115 285.263 303.174 285.261 303.234 285.261H335.775C335.775 285.261 335.775 285.267 335.775 285.272C336.296 287.17 337.508 289.796 340.328 291.718L340.326 291.72Z" fill="#FFA412"/>
<path d="M365.9 285.263H365.114V291.723H365.9V285.263Z" fill="#FFA412"/>
<path d="M363.236 285.263H362.45V291.723H363.236V285.263Z" fill="#FFA412"/>
<path d="M360.042 285.263H359.256V291.723H360.042V285.263Z" fill="#FFA412"/>
<path d="M355.145 285.263H354.359V291.723H355.145V285.263Z" fill="#FFA412"/>
<path d="M349.968 285.263H349.182V291.723H349.968V285.263Z" fill="#FFA412"/>
<path d="M342.031 285.263H341.245V291.723H342.031V285.263Z" fill="#FFA412"/>
<path d="M334.598 285.263H333.812V291.723H334.598V285.263Z" fill="#FFA412"/>
<path d="M327.962 285.263H327.176V291.723H327.962V285.263Z" fill="#FFA412"/>
<path d="M368.436 285.263H367.65V291.723H368.436V285.263Z" fill="#FFA412"/>
<path d="M370.111 285.263H369.325V291.723H370.111V285.263Z" fill="#FFA412"/>
<path d="M371.729 285.263H370.943V291.723H371.729V285.263Z" fill="#FFA412"/>
<path d="M372.947 285.285V291.699C372.852 291.714 372.752 291.72 372.652 291.72H372.161V285.261H372.652C372.752 285.261 372.852 285.27 372.947 285.283V285.285Z" fill="#FFA412"/>
<path d="M374.04 285.884V291.1C373.849 291.336 373.575 291.521 373.254 291.625V285.356C373.575 285.461 373.849 285.647 374.04 285.882V285.884Z" fill="#FFA412"/>
<path d="M365.234 280.22V283.866C365.234 284.157 365.13 284.426 364.95 284.651C364.759 284.89 364.485 285.074 364.161 285.178C364.064 285.211 363.959 285.235 363.857 285.25C363.825 285.254 363.792 285.259 363.76 285.263H363.747C363.725 285.267 363.703 285.267 363.681 285.27C363.668 285.27 363.655 285.27 363.642 285.27C363.614 285.27 363.588 285.272 363.56 285.272H294.321C293.719 285.272 293.189 285.003 292.896 284.601C292.751 284.406 292.662 284.18 292.646 283.937C292.646 283.911 292.646 283.887 292.646 283.864V280.218C292.646 280.192 292.646 280.168 292.646 280.145C292.683 279.546 293.174 279.042 293.834 278.873C293.989 278.832 294.151 278.81 294.321 278.81H363.56C363.59 278.81 363.619 278.81 363.649 278.81C363.664 278.81 363.679 278.81 363.692 278.814C363.749 278.817 363.803 278.823 363.857 278.832C363.962 278.847 364.066 278.871 364.161 278.903C364.211 278.919 364.259 278.936 364.305 278.958C364.489 279.034 364.652 279.138 364.789 279.261C364.789 279.261 364.793 279.266 364.795 279.27C364.802 279.277 364.809 279.281 364.815 279.287C364.863 279.331 364.906 279.379 364.947 279.429C365.13 279.654 365.232 279.923 365.232 280.216L365.234 280.22Z" fill="#FFB93E"/>
<path d="M331.235 285.274H294.143C293.622 285.274 293.159 285.018 292.892 284.636C292.749 284.432 292.66 284.196 292.646 283.94C292.646 283.914 292.646 283.89 292.646 283.866V280.221C292.646 280.195 292.646 280.171 292.646 280.147C292.683 279.502 293.183 278.971 293.839 278.843C293.936 278.823 294.038 278.812 294.14 278.812H326.679C326.692 278.862 326.707 278.912 326.722 278.962C327.261 280.848 328.479 283.384 331.219 285.263C331.224 285.263 331.23 285.27 331.235 285.274Z" fill="#FFA412"/>
<path d="M356.811 278.814H356.024V285.274H356.811V278.814Z" fill="#FFA412"/>
<path d="M354.146 278.814H353.36V285.274H354.146V278.814Z" fill="#FFA412"/>
<path d="M350.952 278.814H350.166V285.274H350.952V278.814Z" fill="#FFA412"/>
<path d="M346.056 278.814H345.27V285.274H346.056V278.814Z" fill="#FFA412"/>
<path d="M340.878 278.814H340.092V285.274H340.878V278.814Z" fill="#FFA412"/>
<path d="M332.939 278.814H332.153V285.274H332.939V278.814Z" fill="#FFA412"/>
<path d="M325.508 278.814H324.722V285.274H325.508V278.814Z" fill="#FFA412"/>
<path d="M318.872 278.815H318.086V285.274H318.872V278.815Z" fill="#FFA412"/>
<path d="M359.345 278.814H358.559V285.274H359.345V278.814Z" fill="#FFA412"/>
<path d="M361.021 278.814H360.235V285.274H361.021V278.814Z" fill="#FFA412"/>
<path d="M362.64 278.814H361.854V285.274H362.64V278.814Z" fill="#FFA412"/>
<path d="M363.855 278.836V285.25C363.76 285.265 363.66 285.272 363.56 285.272H363.069V278.812H363.56C363.66 278.812 363.76 278.821 363.855 278.834V278.836Z" fill="#FFA412"/>
<path d="M364.95 279.435V284.651C364.759 284.888 364.485 285.072 364.164 285.176V278.908C364.485 279.012 364.759 279.199 364.95 279.433V279.435Z" fill="#FFA412"/>
<path d="M370.326 273.911V277.558C370.326 277.849 370.219 278.118 370.039 278.344C369.848 278.58 369.575 278.765 369.253 278.869C369.155 278.901 369.053 278.925 368.947 278.94C368.851 278.956 368.752 278.962 368.652 278.962H299.413C299.143 278.962 298.889 278.908 298.663 278.812C298.16 278.6 297.797 278.179 297.743 277.686C297.743 277.667 297.738 277.647 297.738 277.63C297.738 277.606 297.738 277.582 297.738 277.558V273.911C297.738 273.887 297.738 273.863 297.738 273.839C297.78 273.154 298.411 272.596 299.213 272.516C299.278 272.509 299.343 272.505 299.41 272.505H368.649C368.749 272.505 368.849 272.513 368.945 272.526C369.051 272.542 369.153 272.566 369.251 272.598C369.572 272.702 369.846 272.889 370.037 273.123C370.219 273.349 370.324 273.618 370.324 273.909L370.326 273.911Z" fill="#FFB93E"/>
<path d="M336.326 278.964H299.232C298.993 278.964 298.765 278.91 298.565 278.815C298.114 278.602 297.792 278.181 297.745 277.688C297.745 277.669 297.74 277.649 297.74 277.632C297.74 277.608 297.74 277.584 297.74 277.56V273.913C297.74 273.889 297.74 273.865 297.74 273.841C297.777 273.158 298.342 272.598 299.056 272.518C299.113 272.511 299.173 272.507 299.232 272.507H331.77C331.77 272.507 331.77 272.514 331.772 272.518C332.281 274.369 333.444 276.907 336.111 278.817C336.181 278.867 336.252 278.917 336.324 278.967L336.326 278.964Z" fill="#FFA412"/>
<path d="M361.9 272.505H361.114V278.964H361.9V272.505Z" fill="#FFA412"/>
<path d="M359.236 272.505H358.45V278.964H359.236V272.505Z" fill="#FFA412"/>
<path d="M356.042 272.505H355.256V278.964H356.042V272.505Z" fill="#FFA412"/>
<path d="M351.145 272.505H350.359V278.964H351.145V272.505Z" fill="#FFA412"/>
<path d="M345.968 272.505H345.182V278.964H345.968V272.505Z" fill="#FFA412"/>
<path d="M338.031 272.505H337.245V278.964H338.031V272.505Z" fill="#FFA412"/>
<path d="M330.598 272.505H329.812V278.964H330.598V272.505Z" fill="#FFA412"/>
<path d="M323.962 272.505H323.176V278.964H323.962V272.505Z" fill="#FFA412"/>
<path d="M364.436 272.505H363.65V278.964H364.436V272.505Z" fill="#FFA412"/>
<path d="M366.111 272.505H365.325V278.964H366.111V272.505Z" fill="#FFA412"/>
<path d="M367.729 272.505H366.943V278.964H367.729V272.505Z" fill="#FFA412"/>
<path d="M368.947 272.526V278.94C368.852 278.956 368.752 278.962 368.652 278.962H368.161V272.503H368.652C368.752 272.503 368.852 272.511 368.947 272.524V272.526Z" fill="#FFA412"/>
<path d="M370.039 273.125V278.341C369.848 278.578 369.574 278.762 369.253 278.867V272.598C369.574 272.702 369.848 272.889 370.039 273.123V273.125Z" fill="#FFA412"/>
<path d="M372.494 267.462V271.11C372.494 271.4 372.387 271.669 372.207 271.895C372.016 272.131 371.743 272.316 371.421 272.42C371.323 272.453 371.219 272.476 371.115 272.492C371.082 272.496 371.05 272.5 371.017 272.505C371 272.505 370.98 272.507 370.963 272.509C370.946 272.509 370.926 272.511 370.909 272.511C370.878 272.511 370.85 272.513 370.82 272.513H301.58C300.688 272.513 299.952 271.919 299.906 271.179C299.906 271.155 299.906 271.131 299.906 271.107V267.46C299.906 267.436 299.906 267.412 299.906 267.388C299.952 266.648 300.688 266.054 301.58 266.054H370.82C370.92 266.054 371.019 266.063 371.115 266.076C371.221 266.091 371.323 266.115 371.421 266.147C371.743 266.251 372.016 266.438 372.207 266.672C372.39 266.898 372.494 267.167 372.494 267.458V267.462Z" fill="#FFB93E"/>
<path d="M338.494 272.516H301.4C300.603 272.516 299.948 271.921 299.906 271.181C299.906 271.157 299.906 271.133 299.906 271.11V267.462C299.906 267.438 299.906 267.414 299.906 267.391C299.948 266.651 300.603 266.056 301.4 266.056H333.938C334.457 267.955 335.665 270.578 338.479 272.505C338.483 272.507 338.49 272.511 338.494 272.516Z" fill="#FFA412"/>
<path d="M364.068 266.056H363.282V272.516H364.068V266.056Z" fill="#FFA412"/>
<path d="M361.404 266.056H360.618V272.516H361.404V266.056Z" fill="#FFA412"/>
<path d="M358.21 266.056H357.424V272.516H358.21V266.056Z" fill="#FFA412"/>
<path d="M353.313 266.056H352.527V272.516H353.313V266.056Z" fill="#FFA412"/>
<path d="M348.136 266.056H347.35V272.516H348.136V266.056Z" fill="#FFA412"/>
<path d="M340.199 266.056H339.413V272.516H340.199V266.056Z" fill="#FFA412"/>
<path d="M332.766 266.056H331.979V272.516H332.766V266.056Z" fill="#FFA412"/>
<path d="M326.13 266.056H325.344V272.516H326.13V266.056Z" fill="#FFA412"/>
<path d="M366.602 266.056H365.816V272.516H366.602V266.056Z" fill="#FFA412"/>
<path d="M368.279 266.056H367.493V272.516H368.279V266.056Z" fill="#FFA412"/>
<path d="M369.897 266.056H369.111V272.516H369.897V266.056Z" fill="#FFA412"/>
<path d="M371.115 266.078V272.492C371.02 272.507 370.92 272.513 370.82 272.513H370.327V266.054H370.82C370.92 266.054 371.02 266.063 371.115 266.076V266.078Z" fill="#FFA412"/>
<path d="M372.207 266.677V271.893C372.016 272.129 371.742 272.314 371.421 272.418V266.149C371.742 266.254 372.016 266.44 372.207 266.674V266.677Z" fill="#FFA412"/>
<path d="M350.545 229.25C350.545 229.25 346.908 234.366 343.575 234.438C340.241 234.509 335.169 232.066 335.169 232.066C335.169 232.066 332.107 225.249 334.183 222.582C334.183 222.582 336.265 221.669 338.443 223.281C338.817 223.558 339.197 223.91 339.57 224.359C340.098 224.993 340.691 225.355 341.321 225.544C343.701 226.266 346.524 224.565 347.579 226.208C348.196 227.162 348.867 227.879 349.418 228.384C350.07 228.966 350.545 229.25 350.545 229.25Z" fill="#FFEDDC"/>
<path d="M303.135 266.152C303.135 266.152 315.988 235.03 339.126 234.438C339.126 234.438 360.483 236.809 361.67 266.152H303.135Z" fill="#FFEDDC"/>
<path d="M332.786 235.386C332.786 235.386 342.061 237.447 344.921 236.237C344.921 236.237 345.353 232.361 341.447 232.906C338.773 233.277 337.032 231.995 336.009 231.474C334.561 230.736 332.4 233.767 332.784 235.388L332.786 235.386Z" fill="#DB6A1D"/>
<path d="M340.858 229.545C340.265 229.99 338.443 223.279 338.443 223.279C338.817 223.556 339.197 223.908 339.57 224.357C340.098 224.99 340.691 225.353 341.321 225.542C341.327 225.737 341.434 229.111 340.858 229.543V229.545Z" fill="#E5C1A1"/>
<path d="M349.419 228.384C349.289 228.46 345 231.027 344.418 231.027C343.836 231.027 347.58 226.208 347.58 226.208C348.196 227.162 348.867 227.879 349.419 228.384Z" fill="#E5C1A1"/>
<path d="M315.691 257.457C315.454 257.253 324.787 243.725 327.359 243.625C329.93 243.527 335.706 246.589 339.888 246.984C344.071 247.378 348.125 246.194 348.915 248.663C349.706 251.132 351.882 259.889 350.546 261.291C349.211 262.693 320.824 261.838 315.691 257.457Z" fill="#F9DDBF"/>
<path opacity="0.5" d="M324.483 304.433C324.483 304.451 324.483 304.466 324.479 304.481C324.357 306.649 324.01 308.792 323.441 310.882C323.441 310.884 323.439 310.888 323.439 310.893C323.356 311.194 323.27 311.498 323.176 311.798C322.596 313.705 321.832 315.56 320.894 317.341C319.715 319.578 318.262 321.696 316.544 323.64C316.499 323.695 316.451 323.749 316.403 323.801C314.258 326.203 311.713 328.336 308.796 330.102C308.182 330.475 307.552 330.833 306.905 331.172C306.468 331.402 306.03 331.616 305.587 331.827C305.166 332.072 304.72 332.28 304.299 332.539C303.079 333.285 301.556 333.875 299.9 334.348V331.508C299.9 331.484 299.9 331.46 299.9 331.436C299.902 331.389 299.908 331.343 299.915 331.298C299.923 331.245 299.939 331.193 299.956 331.143C300.128 330.547 300.707 330.104 301.396 330.104H293.993C293.305 330.104 292.727 329.657 292.555 329.06C292.538 329.011 292.525 328.958 292.514 328.906C292.508 328.861 292.501 328.815 292.499 328.77C292.499 328.746 292.499 328.722 292.499 328.696V325.051C292.499 325.027 292.499 325.001 292.499 324.977C292.499 324.931 292.508 324.886 292.514 324.84C292.523 324.788 292.538 324.736 292.555 324.686C292.727 324.089 293.305 323.642 293.993 323.642H296.883C296.473 323.441 296.171 323.065 296.095 322.623C296.089 322.592 296.086 322.562 296.082 322.532C296.082 322.512 296.078 322.49 296.078 322.469C296.078 322.445 296.078 322.421 296.078 322.397V318.75C296.078 318.726 296.078 318.702 296.078 318.678C296.08 318.632 296.084 318.585 296.093 318.541C296.102 318.489 296.117 318.439 296.132 318.392C296.301 317.791 296.881 317.344 297.57 317.344H299.229C298.542 317.344 297.963 316.899 297.789 316.302C297.771 316.252 297.758 316.2 297.748 316.148C297.741 316.102 297.735 316.057 297.732 316.011V312.218C297.771 311.535 298.336 310.975 299.051 310.895H294.139C293.339 310.895 292.686 310.3 292.645 309.56C292.645 309.537 292.645 309.513 292.645 309.487V305.841C292.645 305.818 292.645 305.792 292.645 305.768C292.645 305.748 292.647 305.729 292.649 305.709C292.71 305.099 293.187 304.602 293.811 304.47C293.14 304.39 292.603 303.893 292.512 303.268C292.506 303.227 292.501 303.188 292.499 303.147C292.499 303.121 292.499 303.097 292.499 303.073V299.428C292.499 299.401 292.499 299.378 292.499 299.354C292.499 299.308 292.508 299.263 292.514 299.217C292.523 299.165 292.538 299.113 292.555 299.063C292.727 298.466 293.305 298.019 293.993 298.019H296.883C296.473 297.818 296.171 297.442 296.095 297C296.089 296.969 296.086 296.939 296.082 296.908C296.082 296.887 296.078 296.867 296.078 296.845C296.078 296.822 296.078 296.798 296.078 296.772V293.126C296.078 293.103 296.078 293.077 296.078 293.053C296.08 293.007 296.084 292.962 296.093 292.916C296.102 292.864 296.117 292.816 296.132 292.766C296.301 292.167 296.881 291.718 297.57 291.718H303.229C302.54 291.718 301.958 291.271 301.791 290.672C301.776 290.623 301.761 290.573 301.752 290.523C301.743 290.477 301.739 290.432 301.737 290.384C301.735 290.36 301.735 290.336 301.735 290.312V286.665C301.735 286.641 301.735 286.617 301.737 286.593C301.774 285.91 302.338 285.35 303.053 285.27H294.141C293.62 285.27 293.157 285.014 292.89 284.632L292.894 284.599L293.832 278.871L293.837 278.838L295.174 270.667C296.725 270.875 298.258 271.183 299.763 271.589C299.852 271.613 299.939 271.637 300.028 271.661C300.032 271.661 300.039 271.665 300.045 271.667C300.92 271.912 301.787 272.188 302.638 272.498C302.647 272.498 302.653 272.503 302.662 272.507C306.586 273.935 310.24 276.057 313.411 278.808C313.467 278.856 313.524 278.906 313.578 278.958C315.226 280.403 316.74 282.024 318.086 283.809C318.358 284.163 318.618 284.525 318.872 284.892C318.957 285.014 319.042 285.135 319.122 285.257C319.126 285.257 319.128 285.263 319.128 285.267C319.537 285.871 319.925 286.489 320.292 287.125C321.159 288.622 321.888 290.156 322.483 291.716C323.278 293.784 323.834 295.893 324.162 298.017C324.173 298.071 324.179 298.123 324.188 298.178C324.503 300.263 324.596 302.357 324.486 304.431L324.483 304.433Z" fill="#E2810E"/>
<path d="M315.972 308.723C320.19 290.407 308.75 272.141 290.419 267.926C272.089 263.711 253.809 275.142 249.59 293.458C245.372 311.774 256.812 330.04 275.143 334.255C293.473 338.47 311.753 327.039 315.972 308.723Z" fill="#E2810E"/>
<path d="M297.906 331.593C297.487 331.849 297.06 332.096 296.627 332.335C296.48 332.415 296.334 332.495 296.187 332.571C295.85 332.749 295.516 332.923 295.177 333.09C278.958 341.049 259.177 334.941 250.359 318.96C241.948 303.717 246.47 284.838 260.267 274.924C261.368 274.132 262.526 273.399 263.744 272.73C264.181 272.49 264.621 272.26 265.062 272.04C265.492 271.826 265.924 271.622 266.361 271.431C267.694 270.836 269.049 270.337 270.417 269.927C272.45 269.315 274.515 268.903 276.584 268.684C282.999 268.005 289.455 269.176 295.177 271.973C301.251 274.939 306.499 279.739 310.013 286.103C318.853 302.129 313.407 322.174 297.909 331.593H297.906Z" fill="#FFB93E"/>
<path d="M280.424 333.391C277.577 333.391 274.713 332.99 271.9 332.176C264.07 329.913 257.59 324.738 253.655 317.606C249.72 310.474 248.8 302.237 251.067 294.413C253.332 286.589 258.511 280.114 265.649 276.183C280.385 268.065 298.981 273.442 307.105 288.164C315.229 302.888 309.848 321.471 295.112 329.588C290.536 332.107 285.507 333.389 280.424 333.391ZM280.33 273.221C275.488 273.221 270.578 274.405 266.046 276.903C259.099 280.728 254.061 287.027 251.857 294.641C249.653 302.253 250.548 310.268 254.376 317.209C258.205 324.15 264.508 329.184 272.128 331.386C279.748 333.589 287.768 332.695 294.714 328.87C309.053 320.971 314.286 302.891 306.384 288.563C300.979 278.767 290.808 273.223 280.33 273.223V273.221Z" fill="#FFA412"/>
<path d="M295.387 305.848C295.32 305.681 295.248 305.518 295.176 305.36C294.625 304.147 293.936 303.164 293.111 302.411C292.177 301.56 291.094 300.925 289.86 300.499C288.627 300.074 287.248 299.816 285.728 299.725C284.208 299.631 282.553 299.61 280.766 299.66C279.661 299.692 278.716 299.673 277.932 299.603C277.148 299.532 276.484 299.386 275.939 299.167C275.392 298.948 274.949 298.646 274.608 298.267C274.267 297.887 273.984 297.42 273.761 296.872C273.537 296.323 273.409 295.778 273.376 295.235C273.344 294.695 273.424 294.183 273.617 293.697C273.813 293.211 274.128 292.764 274.566 292.352C275.005 291.94 275.583 291.588 276.304 291.295C277.633 290.755 278.872 290.768 280.023 291.33C281.174 291.894 282.112 293.066 282.836 294.847L289.774 292.033C289.17 290.549 288.412 289.295 287.502 288.27C286.592 287.248 285.567 286.456 284.427 285.897C283.287 285.339 282.045 285.011 280.701 284.918C279.359 284.823 277.96 284.966 276.514 285.346L274.549 280.509L270.708 282.067L272.645 286.836C271.259 287.554 270.084 288.39 269.118 289.342C268.154 290.297 267.413 291.328 266.897 292.439C266.378 293.55 266.106 294.715 266.08 295.936C266.054 297.158 266.297 298.399 266.812 299.662C267.402 301.118 268.165 302.27 269.098 303.121C270.032 303.971 271.114 304.605 272.347 305.021C273.578 305.44 274.957 305.69 276.482 305.77C278.006 305.852 279.665 305.85 281.457 305.763C282.497 305.705 283.398 305.711 284.162 305.781C284.927 305.85 285.587 305.998 286.145 306.221C286.701 306.447 287.166 306.759 287.535 307.163C287.904 307.566 288.217 308.081 288.468 308.703C288.692 309.255 288.803 309.801 288.801 310.346C288.801 310.893 288.677 311.413 288.429 311.91C288.184 312.407 287.817 312.869 287.326 313.293C286.838 313.716 286.217 314.08 285.463 314.386C284.807 314.651 284.13 314.829 283.426 314.913C282.725 314.998 282.041 314.931 281.372 314.707C280.703 314.486 280.078 314.08 279.496 313.496C278.912 312.913 278.406 312.093 277.978 311.036L271.04 313.85C271.763 315.632 272.673 317.046 273.769 318.088C274.864 319.131 276.063 319.88 277.363 320.329C278.666 320.778 280.026 320.976 281.448 320.917C282.868 320.861 284.271 320.629 285.654 320.223L287.446 324.634L291.263 323.085L289.461 318.652C290.846 317.934 292.034 317.105 293.022 316.168C293.939 315.3 294.655 314.367 295.172 313.362C295.213 313.282 295.254 313.199 295.294 313.117C295.817 312.023 296.097 310.862 296.13 309.636C296.162 308.413 295.915 307.146 295.383 305.839L295.387 305.848Z" fill="#FFA412"/>
<path d="M60.6669 336.57H580.824C581.156 336.57 581.425 336.839 581.425 337.171V337.401C581.425 337.733 581.156 338.002 580.824 338.002H60.6669C60.3347 338.002 60.0654 337.733 60.0654 337.401V337.171C60.0654 336.839 60.3347 336.57 60.6669 336.57Z" fill="#2E3552"/>
<path d="M419.778 207.808C419.778 207.808 418.124 207.853 416.888 207.122C415.653 206.391 414.339 205.909 414.784 205.586C415.229 205.263 415.453 205.423 416.139 205.688C416.827 205.951 418.83 206.031 419.477 205.324C420.124 204.616 419.778 207.808 419.778 207.808Z" fill="#FFB27D"/>
</g>
<defs>
<clipPath id="clip0_804_5203">
<rect width="544" height="338" fill="white" transform="translate(46)"/>
</clipPath>
</defs>
</svg>
