<svg width="553" height="361" viewBox="0 0 553 361" fill="none" xmlns="http://www.w3.org/2000/svg">
<g clip-path="url(#clip0_799_2261)">
<path d="M547.858 361H1.74872C0.783478 361 0 360.217 0 359.253C0 358.289 0.783478 357.506 1.74872 357.506H547.858C548.823 357.506 549.607 358.289 549.607 359.253C549.607 360.217 548.823 361 547.858 361Z" fill="#2E5B99"/>
<path d="M377.509 172.72L553 172.72V8.767L377.509 8.767V172.72Z" fill="#B0D1EC"/>
<path d="M86.6153 300.142H204.776V194.053H86.6153L86.6153 300.142Z" fill="#B0D1EC"/>
<path d="M354.801 111.065V96.3389C354.801 89.6509 360.225 84.23 366.917 84.23H495.923C502.617 84.23 508.043 89.6509 508.043 96.3389V356.642H174.342V111.065H354.801Z" fill="white"/>
<path d="M353.73 111.065V96.3389C353.73 89.6509 359.153 84.23 365.845 84.23H494.852C501.546 84.23 506.972 89.6509 506.972 96.3389V356.642H173.271V111.065H353.73Z" fill="#0F4599"/>
<path d="M495.792 121.241V356.644H186.667V120.085L495.792 121.241Z" fill="#BAE2FF"/>
<path d="M478.82 121.241V356.644H169.695V120.085L478.82 121.241Z" fill="#1480CC"/>
<path d="M157.233 111.067H462.627C468.895 111.067 473.512 115.305 474.412 121.166V356.644H141.106V127.14C141.031 118.682 148.671 111.067 157.235 111.067H157.233Z" fill="white"/>
<path d="M269.254 198.486L447.744 198.984L448.123 63.459L269.633 62.961L269.254 198.486Z" fill="#EBF3FF"/>
<path d="M273.93 191.986L443.29 192.458L443.638 67.867L274.278 67.3945L273.93 191.986Z" fill="#3397FF"/>
<path d="M429.013 182.416L320.177 182.111L379.686 125.074L429.013 182.416Z" fill="#E3EEFF"/>
<path d="M379.525 182.276L288.077 182.022L337.7 134.88L379.525 182.276Z" fill="#E3EEFF"/>
<path d="M354.605 121.289C359.527 116.371 359.527 108.398 354.605 103.48C349.682 98.562 341.701 98.562 336.779 103.48C331.857 108.398 331.857 116.371 336.779 121.289C341.701 126.207 349.682 126.207 354.605 121.289Z" fill="#E3EEFF"/>
<path d="M245.477 182.274L410.953 182.793L411.405 39.0193L245.929 38.4999L245.477 182.274Z" fill="#EBF3FF"/>
<path d="M250.289 175.387L406.367 175.877L406.783 43.705L250.704 43.2151L250.289 175.387Z" fill="#3397FF"/>
<path d="M391.466 61.9284H329.306V67.3848H391.466V61.9284Z" fill="#CCE5FF"/>
<path d="M264.998 82.1196L391.466 82.1196V76.6632L264.998 76.6632V82.1196Z" fill="#CCE5FF"/>
<path d="M264.998 97.1196L391.466 97.1196V91.6632L264.998 91.6632V97.1196Z" fill="#CCE5FF"/>
<path d="M155.762 111.067H461.156C467.424 111.067 472.041 115.305 472.942 121.166V357.489H139.635V127.14C139.56 118.682 147.201 111.067 155.765 111.067H155.762Z" fill="#66B8FF"/>
<path d="M474.41 356.642H508.041V355.287H474.41V356.642Z" fill="white"/>
<g style="mix-blend-mode:darken" opacity="0.5">
<path d="M508.043 210.667L495.791 218.653H479.606L474.412 222.644V218.851H141.105V210.667H508.043Z" fill="black"/>
</g>
<path d="M134.314 214.32L512.775 214.32V171.597L134.314 171.597V214.32Z" fill="#61B3F2"/>
<path d="M134.313 214.32L478.705 214.32V171.597L134.313 171.597V214.32Z" fill="#2E97E6"/>
<path d="M383.499 171.597V214.305H353.574L374.555 171.597H383.499Z" fill="#0E0E0E"/>
<path d="M373.155 192.912C373.155 198.821 374.19 204.171 375.926 208.02C377.62 211.961 379.979 214.305 382.582 214.305H390.528V171.612H382.582C377.372 171.612 373.153 181.183 373.153 192.912H373.155ZM380.683 199.948C379.195 199.478 378.038 196.571 378.038 192.912C378.038 189.252 379.195 186.439 380.683 185.969C382.173 186.439 383.33 189.348 383.33 192.912C383.33 196.475 382.173 199.478 380.683 199.948Z" fill="#2475B3"/>
<path d="M377.204 192.912C377.204 198.821 378.286 204.171 380.102 208.02C381.876 211.961 384.341 214.305 387.068 214.305H390.53V171.612H387.068C381.617 171.612 377.202 181.183 377.202 192.912H377.204ZM381.013 192.912C381.013 189.346 383.263 186.439 384.82 185.969C386.378 186.439 387.59 189.348 387.59 192.912C387.59 196.475 386.378 199.478 384.82 199.948C383.263 199.478 381.013 196.571 381.013 192.912Z" fill="#3F9EE6"/>
<path d="M376.964 192.912C376.964 198.821 377.998 204.171 379.734 208.02C381.429 211.961 383.788 214.305 386.391 214.305H394.336V171.612H386.391C381.18 171.612 376.962 181.183 376.962 192.912H376.964ZM384.49 199.948C383.002 199.478 381.845 196.571 381.845 192.912C381.845 189.252 383.002 186.439 384.49 185.969C385.979 186.439 387.137 189.348 387.137 192.912C387.137 196.475 385.979 199.478 384.49 199.948Z" fill="#2475B3"/>
<path d="M381.011 192.912C381.011 198.821 382.093 204.171 383.909 208.02C385.682 211.961 388.148 214.305 390.874 214.305H394.336V171.612H390.874C385.423 171.612 381.009 181.183 381.009 192.912H381.011ZM384.82 192.912C384.82 189.346 386.031 186.439 387.588 185.969C389.147 186.439 390.358 189.348 390.358 192.912C390.358 196.475 389.147 199.478 387.588 199.948C386.031 199.478 384.82 196.571 384.82 192.912Z" fill="#61B3F2"/>
<path d="M386.353 214.583C386.014 214.583 384.078 214.493 382.03 212.529C379.707 210.299 376.937 205.265 376.937 193.934C376.937 182.604 379.462 177.586 381.581 174.824C383.915 171.785 386.244 171.353 386.342 171.336C386.495 171.311 386.637 171.412 386.664 171.564C386.689 171.714 386.589 171.858 386.439 171.885C386.416 171.89 384.188 172.315 381.986 175.213C379.937 177.91 377.492 183.345 377.492 193.934C377.492 205.041 380.158 209.949 382.394 212.107C384.427 214.069 386.363 214.03 386.378 214.025C386.535 214.019 386.66 214.14 386.666 214.293C386.673 214.445 386.553 214.574 386.401 214.581C386.395 214.581 386.378 214.581 386.353 214.581V214.583Z" fill="#1A5380"/>
<path d="M387.586 199.376C387.962 199.47 388.242 199.564 388.618 199.658C388.556 199.721 388.556 199.752 388.618 199.752C403.741 204.257 414.916 218.142 414.916 234.751V270.416H426.938V234.751C426.938 211.669 410.689 192.34 388.994 187.459C388.524 187.271 388.054 187.178 387.586 187.086C384.11 186.334 383.828 198.815 387.586 199.376Z" fill="#E6E6E6"/>
<path d="M373.356 186.447V198.391C357.86 200.384 345.349 211.869 342.021 226.88C341.925 227.253 341.833 227.535 341.833 227.817C341.645 228.662 341.551 229.412 341.457 230.257C341.269 231.758 341.175 233.261 341.175 234.761V270.426H329.247V234.761C329.247 209.538 348.65 188.87 373.356 186.449V186.447Z" fill="#E6E6E6"/>
<path d="M387.308 195.853C415.497 200.791 419.126 231.453 419.126 231.453V270.424H414.897V234.759C414.897 217.802 403.258 203.626 387.594 199.401C386.397 199.013 385.651 195.51 385.651 195.51C385.651 195.51 386.393 195.677 387.308 195.853Z" fill="#999999"/>
<path d="M373.355 195.853V198.391C357.859 200.384 345.349 211.869 342.021 226.88C342.693 218.119 349.966 198.973 373.355 195.853Z" fill="#808080"/>
<path d="M387.586 199.376C387.962 199.47 388.242 199.564 388.618 199.658C388.336 198.907 386.809 197.201 386.621 193.638C386.433 189.977 387.676 187.503 388.994 187.459C388.524 187.271 388.054 187.178 387.586 187.086C384.11 186.334 383.828 198.815 387.586 199.376Z" fill="#666666"/>
<path d="M437.25 260.693H318.821V357.414H437.25V260.693Z" fill="#F7AF0C"/>
<path d="M379.817 284.585C379.441 284.491 379.065 284.491 378.689 284.491C370.614 284.491 364.037 291.027 364.037 299.174C364.037 305.14 367.608 310.256 372.678 312.623V337.534C372.678 340.851 375.401 343.598 378.687 343.598C378.969 343.598 379.345 343.598 379.627 343.504H379.907C382.632 342.934 384.7 340.473 384.7 337.536V312.625C389.769 310.352 393.339 305.142 393.339 299.176C393.339 291.409 387.42 285.157 379.815 284.589L379.817 284.585Z" fill="#CC840A"/>
<path d="M379.817 284.585C372.21 285.057 366.197 291.405 366.197 299.172C366.197 305.138 369.768 310.254 374.839 312.621V337.532C374.839 340.469 376.905 342.932 379.629 343.499H379.909C382.634 342.93 384.702 340.469 384.702 337.532V312.621C389.771 310.348 393.341 305.138 393.341 299.172C393.341 291.405 387.422 285.153 379.817 284.585Z" fill="#803D00"/>
<path d="M356.401 357.414H318.821V260.693H329.247C329.247 260.693 326.478 332.058 356.401 357.414Z" fill="#E6950B"/>
<path d="M411.823 357.414C420.799 338.227 419.125 286.641 419.125 260.693H431.053V357.414H411.823Z" fill="#F7E4AD"/>
<path d="M289.674 267.734C289.674 267.734 277.523 267.341 265.549 267.913C253.112 268.521 240.854 270.161 242.605 274.449C242.998 275.413 243.069 276.34 242.856 277.269C240.355 288.731 195.001 297.299 184.993 290.265C177.524 285.015 156.938 291.764 148.504 295.406C132.442 187.983 131.992 78.1661 146.216 70.5263C160.44 62.9199 199.86 72.5615 199.86 72.5615C199.86 72.5615 219.838 77.8468 227.986 132.442C236.17 187.002 289.672 267.734 289.672 267.734H289.674Z" fill="#4582E6"/>
<path d="M242.607 274.447C243 275.411 243.071 276.338 242.858 277.267C230.565 239.809 201.616 132.797 212.123 161.97C222.201 190.106 253.831 247.094 265.552 267.911C253.114 268.519 240.856 270.159 242.607 274.447Z" fill="#3D73CC"/>
<path d="M144.733 98.9293C133.045 113.211 130.902 116.676 119.966 117.426C123.648 119.747 125.827 122.888 127.329 126.28H127.365C130.582 133.315 131.046 141.527 136.658 146.133L129.939 152.74L128.223 154.454C128.223 154.454 127.973 154.239 127.544 153.846C124.613 151.133 112.963 140.17 106.029 130.1C101.955 124.245 99.4895 118.709 101.205 115.246C103.992 105.177 111.141 84.5034 129.331 78.3248C141.267 65.3643 152.954 72.3257 157.099 77.7174C162.638 84.9293 157.064 100.355 144.733 98.9272V98.9293Z" fill="#002E73"/>
<path d="M136.655 146.133L129.936 152.74L127.542 153.846C124.79 151.275 114.283 141.42 107.278 131.849C106.85 131.277 106.419 130.672 106.026 130.1C109.492 130.065 120.643 129.779 127.327 126.28H127.362C127.648 126.888 127.899 127.493 128.112 128.1C130.686 134.672 131.507 141.919 136.653 146.133H136.655Z" fill="#231F20"/>
<path d="M128.114 128.1C120.716 132.601 112.246 132.457 107.278 131.849C106.85 131.277 106.419 130.672 106.026 130.1C109.492 130.065 120.643 129.779 127.327 126.28H127.362C127.648 126.888 127.899 127.493 128.112 128.1H128.114Z" fill="#66B8FF"/>
<path d="M131.621 140.038C131.621 140.038 139.276 140.748 141.593 142.762C143.53 144.445 142.347 146.545 142.347 146.545C146.467 148.859 142.347 157.837 135.154 160.052C127.96 162.269 123.247 148.73 123.247 148.73C123.247 148.73 124.344 140.52 131.621 140.038Z" fill="#231F20"/>
<path d="M228.202 357.89H202.232C201.697 357.585 201.302 357.241 201.068 356.848C199.731 337.55 197.805 328.259 197.805 328.259L215.892 327.525L219.987 341.88C226.045 346.017 233.27 354.894 228.202 357.89Z" fill="#231F20"/>
<path d="M200.264 358.238H231.051C231.833 358.238 231.569 353.961 230.79 353.961L200.186 354.135C199.382 354.135 199.461 358.24 200.264 358.24V358.238Z" fill="#231F20"/>
<path d="M189.535 152.368C193.737 163.665 211.619 215.42 206.515 252.68C213.537 277.459 211.333 298.447 217.663 334.634L199.232 335.605C191.74 291.451 183.495 299.877 181.109 256.151C165.922 221.866 158.046 189.386 154.003 155.946C150.073 130.737 181.051 117.499 189.535 152.368Z" fill="#002E73"/>
<path d="M199.421 337.486C199.421 337.486 198.042 324.346 189.37 299.245C186.677 291.532 185.218 286.426 184.46 283.285C183.699 280.106 183.605 278.893 183.605 278.893C188.177 273.608 193.979 265.646 199.131 256.076C204.772 264.895 211.483 273.716 211.483 273.716C211.483 273.716 211.654 275.787 211.959 279.179C213.319 293.39 216.975 330.954 219.18 338.916C221.904 348.77 204.766 354.377 199.419 337.488L199.421 337.486Z" fill="#231F20"/>
<path d="M211.961 279.177C209.015 275.891 203.717 269.715 199.283 262.966C197.274 270.251 188.833 279.07 184.46 283.285C183.699 280.106 183.605 278.893 183.605 278.893C188.177 273.608 193.979 265.646 199.131 256.076C204.772 264.895 211.483 273.716 211.483 273.716C211.483 273.716 211.654 275.787 211.959 279.179L211.961 279.177Z" fill="#66B8FF"/>
<path d="M167.736 157.157C166.434 206.358 157.655 248.15 157.655 248.15C161.372 281.717 152.92 287.975 149.101 335.997L132.441 335.776C132.4 316.284 131.267 292.146 130.083 253.064C119.594 212.218 124.646 182.134 128.557 157.718C132.73 129.983 170.399 120.805 167.736 157.157Z" fill="#002E73"/>
<path d="M149.103 335.997C150.589 343.948 151.656 350.152 151.032 357.347L110.686 358.132C110.686 358.132 106.691 354.245 111.714 348.417C116.734 342.587 126.27 345.96 132.445 335.776L149.105 335.997H149.103Z" fill="#231F20"/>
<path d="M108.851 358.238H151.717C152.498 358.238 152.294 353.961 151.512 353.961L108.828 354.135C108.024 354.135 108.049 358.24 108.851 358.24V358.238Z" fill="#231F20"/>
<path d="M157.116 281.711C157.116 281.711 156.827 283.139 156.336 285.568C154.308 296.172 148.863 325.773 149.5 339.093C141.927 348.127 132.082 338.093 132.082 338.093L128.114 264.93L127.843 260.004C138.525 271.858 149.621 278.179 157.116 281.713V281.711Z" fill="#231F20"/>
<path d="M157.116 281.711C157.116 281.711 156.827 283.139 156.336 285.568C141.622 281.283 132.56 271.213 128.114 264.93L127.843 260.004C138.525 271.858 149.621 278.179 157.116 281.713V281.711Z" fill="#66B8FF"/>
<path d="M129.8 154.831C129.8 163.34 190.277 160.877 190.277 152.368C190.074 138.331 192.013 126.779 194.656 117.229C212.786 99.4825 211.706 85.7058 207.112 78.233C199.189 65.3455 159.165 66.076 144.755 71.616C139.033 73.8161 131.349 82.7772 128.892 97.0632C127.628 104.409 133.041 112.961 133.897 118.899C135.876 132.641 130.204 152.859 129.802 154.831H129.8Z" fill="#002E73"/>
<path d="M167.501 77.4606C170.485 75.0935 182.387 71.4385 185.555 68.8502L184.84 48.206L173.136 47.0684C169.741 47.3502 166.348 48.1621 163.429 49.3144L160.795 62.9074L160.214 65.8548C158.889 68.7562 161.515 72.2547 167.501 77.4627V77.4606Z" fill="#F7A594"/>
<path d="M180.9 52.8796C179.064 55.7018 171.377 62.9304 160.793 62.9053L163.072 51.145L180.9 52.8796Z" fill="#E6836F"/>
<path d="M154.997 25.6852C154.08 29.7515 152.189 38.6813 152.499 42.7934C152.969 49.0535 158.823 55.9982 163.927 56.9083C169.835 57.5094 177.8 55.7519 182.125 52.0405C184.531 49.2225 189.19 42.5367 191.334 36.6857C195.805 24.4808 187.172 13.7767 176.222 11.3053C165.27 8.83381 157.862 13.0065 155 25.6873L154.997 25.6852Z" fill="#F7A594"/>
<path d="M187.663 44.7493C189.947 40.7332 186.911 39.1071 183.585 42.2236C184.153 39.1927 187.611 30.315 184.548 27.3697C181.089 23.9527 165.864 25.441 157.687 16.9203C157.687 16.9203 163.783 3.56734 183.79 11.4535C206.388 23.4246 187.661 44.7493 187.661 44.7493H187.663Z" fill="#73382A"/>
<path d="M190.743 45.791C192.484 43.6974 192.575 40.9044 190.947 39.5525C189.318 38.2007 186.587 38.8019 184.846 40.8955C183.105 42.9891 183.014 45.7821 184.642 47.134C186.271 48.4858 189.002 47.8845 190.743 45.791Z" fill="#F7A594"/>
<path d="M160.881 61.7155C162.881 65.2849 183.456 63.4293 185.313 60.4297L186.456 71.8497L167.31 82.7L157.309 71.7078L160.881 61.7155Z" fill="#002E73"/>
<path d="M194.693 23.817C194.129 13.8205 174.764 -0.285975 160.874 4.95126C151.504 8.48311 153.702 18.4211 161.86 20.2977C169.054 21.953 188.977 13.3363 194.693 23.817Z" fill="#231F20"/>
<path d="M159.145 4.98258C159.145 4.98258 159.556 2.13122 161.096 0C150.228 7.11379 155.637 15.6199 155.764 15.9831C160.074 2.90563 170.36 3.5068 174.012 3.55272C164.614 -0.866263 159.239 4.59015 159.145 4.98258Z" fill="#231F20"/>
<path d="M129.047 157.718C144.823 164.517 181.27 163.02 192.164 157.812L194.949 167.03C171.25 172.612 148.577 172.768 127.054 166.855L129.047 157.716V157.718Z" fill="#66B8FF"/>
<path d="M234.616 136.101C224.18 147.277 202.165 160.025 202.165 160.025L195.411 150.312C202.416 146.455 206.275 136.458 212.958 129.601C215.246 127.245 217.856 125.28 221 123.995C210.349 121.246 204.988 118.603 196.125 102.428C183.723 101.57 181.043 85.3614 187.797 79.3247C192.872 74.7909 205.667 70.0421 215.031 84.9668C231.758 94.358 238.905 114.852 239.797 125.28C240.618 128.245 238.368 132.064 234.616 136.099V136.101Z" fill="#002E73"/>
<path d="M201.467 145.227C201.467 145.227 193.812 144.528 191.165 146.083C188.955 147.384 189.732 149.665 189.732 149.665C185.259 151.189 187.666 160.766 194.333 164.258C200.999 167.75 208.109 155.301 208.109 155.301C208.109 155.301 208.533 147.029 201.467 145.225V145.227Z" fill="#231F20"/>
<path d="M234.615 136.101C233.972 136.78 233.293 137.494 232.578 138.172C221.57 148.814 202.165 160.025 202.165 160.025L195.41 150.312C201.45 146.991 205.132 139.136 210.313 132.636C211.134 131.566 212.028 130.566 212.958 129.601C215.567 131.136 223.358 135.241 234.615 136.099V136.101Z" fill="#231F20"/>
<path d="M234.616 136.101C233.972 136.78 233.293 137.494 232.579 138.172C223.144 137.709 214.281 134.317 210.313 132.636C211.135 131.566 212.029 130.566 212.958 129.601C215.568 131.136 223.359 135.241 234.616 136.099V136.101Z" fill="#66B8FF"/>
<path d="M173.329 94.4623C173.333 94.4268 173.335 94.4122 173.335 94.4081C173.335 94.4143 173.329 94.4623 173.329 94.4623Z" fill="#D9FFFF"/>
<path d="M173.329 94.4623C173.333 94.4268 173.335 94.4122 173.335 94.4081C173.335 94.4143 173.329 94.4623 173.329 94.4623Z" fill="#D9FFFF"/>
<path d="M154.438 91.755C154.438 91.755 154.444 91.707 154.444 91.7007C154.444 91.7049 154.442 91.7195 154.438 91.755Z" fill="#D9FFFF"/>
<path d="M154.438 91.755C154.438 91.755 154.444 91.707 154.444 91.7007C154.444 91.7049 154.442 91.7195 154.438 91.755Z" fill="#D9FFFF"/>
<path d="M164.544 87.3673C166.424 90.323 169.673 92.997 173.317 94.4728C173.283 94.7525 173.101 96.3034 172.259 103.453C171.137 112.99 162.436 116.44 161.086 116.968C159.939 116.159 152.267 110.287 153.389 100.747C154.231 93.5981 154.413 92.0472 154.446 91.7675C158.311 91.3688 162.041 89.6947 164.542 87.3673H164.544Z" fill="white"/>
<path d="M163.551 92.4334C163.551 92.4334 163.541 92.4417 163.534 92.4459C161.719 93.8799 159.322 94.8735 156.767 95.2409L156.051 101.34C155.723 104.131 156.431 106.795 158.155 109.258C159.239 110.807 160.44 111.861 161.107 112.385C161.136 112.408 161.167 112.433 161.194 112.453C161.934 112.155 163.405 111.466 164.874 110.22C167.111 108.325 168.411 105.949 168.739 103.158L169.455 97.059C167.065 95.9778 164.972 94.3371 163.547 92.4313L163.551 92.4334Z" fill="#F7AF0C"/>
<path d="M158.376 68.6581C159.402 71.2924 162.824 73.6157 166.685 75.8763C174.526 74.5947 180.541 72.1691 186.427 68.7291C192.216 68.702 196.38 70.9271 200.665 72.5699L166.48 78.1286L146.4 70.5556C149.07 69.5849 152.894 68.9274 158.374 68.6581H158.376Z" fill="#66B8FF"/>
<path d="M275.82 139.535C275.82 139.366 275.818 139.293 275.818 139.276C275.818 139.308 275.82 139.535 275.82 139.535Z" fill="#D9FFFF"/>
<path d="M275.82 139.535C275.82 139.366 275.818 139.293 275.818 139.276C275.818 139.308 275.82 139.535 275.82 139.535Z" fill="#D9FFFF"/>
<path d="M174.967 140.646C174.967 140.646 174.965 140.418 174.965 140.387C174.965 140.404 174.965 140.479 174.967 140.646Z" fill="#D9FFFF"/>
<path d="M174.967 140.646C174.967 140.646 174.965 140.418 174.965 140.387C174.965 140.404 174.965 140.479 174.967 140.646Z" fill="#D9FFFF"/>
<path d="M225.005 112.769C236.841 125.212 255.663 135.35 275.762 139.592C275.776 140.925 275.858 148.308 276.238 182.347C276.744 227.754 233.437 250.229 226.714 253.677C220.158 250.728 176.009 228.86 175.504 183.454C175.126 149.415 175.042 142.03 175.027 140.698C195.026 136.016 213.449 125.468 225.007 112.767L225.005 112.769Z" fill="white"/>
<path d="M225.18 120.974C236.759 131.399 252.759 139.548 270.323 143.931L270.752 182.404C270.948 200.007 264.02 215.979 250.164 229.877C241.059 239.009 231.461 244.697 226.586 247.261C226.375 247.156 226.143 247.037 225.916 246.923L225.082 121.068C225.115 121.037 225.149 121.008 225.182 120.978L225.18 120.974Z" fill="#007880"/>
<path d="M225.08 121.066L225.914 246.92C220.812 244.324 211.533 238.947 202.627 230.399C188.463 216.81 181.184 200.994 180.988 183.391L180.56 144.919C197.972 140.163 213.744 131.699 225.08 121.066Z" fill="#008F99"/>
<path d="M205.075 176.651L205.274 206.457C205.297 209.776 246.042 209.508 246.019 206.189L245.82 176.384L205.075 176.651ZM220.49 187.802C220.471 185.036 222.7 182.79 225.481 182.773C228.262 182.754 230.539 184.971 230.556 187.737C230.569 189.758 229.355 191.521 227.614 192.315L227.671 200.781C227.679 201.906 226.764 202.848 225.613 202.854C224.48 202.862 223.555 201.933 223.546 200.808L223.49 192.361C221.72 191.59 220.5 189.843 220.488 187.804L220.49 187.802Z" fill="white"/>
<path d="M208.627 174.503L212.751 174.476L212.739 172.47C212.693 165.517 218.344 159.82 225.335 159.774C232.328 159.728 238.055 165.348 238.101 172.303L238.113 174.309L242.237 174.282L242.225 172.276C242.164 163.06 234.576 155.612 225.308 155.673C216.042 155.733 208.554 163.281 208.615 172.497L208.627 174.503Z" fill="white"/>
</g>
<defs>
<clipPath id="clip0_799_2261">
<rect width="553" height="361" fill="white"/>
</clipPath>
</defs>
</svg>
