<svg width="162" height="132" viewBox="0 0 162 132" fill="none" xmlns="http://www.w3.org/2000/svg">
<g clip-path="url(#clip0_767_2872)">
<path d="M92.7541 43.147C87.9004 40.4871 82.0233 40.4871 77.1696 43.147C77.1696 43.147 29.5267 69.3537 29.5267 69.4925C29.5267 80.2278 29.4741 112.615 29.4741 112.615C29.4741 122.82 37.7421 131.091 47.9421 131.091H121.982C132.182 131.091 140.45 122.82 140.45 112.615C140.45 112.615 140.45 80.1751 140.45 69.4446C140.45 69.3059 92.7541 43.147 92.7541 43.147Z" fill="white" stroke="#6BBF59" stroke-miterlimit="10"/>
<path d="M114.723 28.8093H58.1421C53.1638 28.8093 49.1281 32.8467 49.1281 37.8272V100.679C49.1281 105.66 53.1638 109.697 58.1421 109.697H114.723C119.701 109.697 123.737 105.66 123.737 100.679V37.8272C123.737 32.8467 119.701 28.8093 114.723 28.8093Z" fill="white" stroke="#6BBF59" stroke-miterlimit="10"/>
<path d="M140.359 69.4924C138.14 70.8511 92.7541 95.9671 92.7541 95.9671C87.9004 98.627 82.0233 98.627 77.1696 95.9671C77.1696 95.9671 31.7885 70.8511 29.5649 69.4924C29.5075 69.5403 29.4741 69.6073 29.4741 69.6838V112.615C29.4741 122.82 37.7421 131.091 47.9421 131.091H121.982C132.182 131.091 140.45 122.82 140.45 112.615V69.6838C140.45 69.6073 140.411 69.5403 140.359 69.4924Z" fill="white" stroke="#6BBF59" stroke-miterlimit="10"/>
<path d="M78.3508 76.1086L66.4197 61.0582C64.6886 58.8767 65.0569 55.7001 67.2374 53.9731C69.418 52.2413 72.5933 52.6096 74.3196 54.7911L80.1536 62.1489L98.459 48.4093C100.687 46.7349 103.848 47.1894 105.517 49.4187C107.191 51.6481 106.737 54.8103 104.508 56.4799L78.3508 76.1134V76.1086Z" fill="#006AC3"/>
<path d="M14.1861 131.282H24.1756" stroke="#006AC3" stroke-width="3" stroke-miterlimit="10" stroke-linecap="round"/>
<path d="M106.521 131.282H140.45" stroke="#006AC3" stroke-width="3" stroke-miterlimit="10" stroke-linecap="round"/>
<path d="M29.4789 131.282H96.0155" stroke="#006AC3" stroke-width="3" stroke-miterlimit="10" stroke-linecap="round"/>
<path d="M149.999 131.282H160.783" stroke="#006AC3" stroke-width="3" stroke-miterlimit="10" stroke-linecap="round"/>
<path d="M4.26342 109.094C3.22573 109.094 2.25977 108.683 1.54725 107.936C0.853866 107.209 0.480871 106.257 0.499999 105.253C0.519127 104.248 0.930378 103.31 1.65724 102.612C2.36019 101.937 3.2879 101.564 4.26342 101.564C5.30112 101.564 6.26708 101.976 6.97959 102.722C8.41897 104.219 8.36637 106.611 6.86961 108.047C6.16666 108.721 5.23895 109.094 4.26342 109.094ZM4.26342 102.44C3.51265 102.44 2.80492 102.727 2.26455 103.243C1.70984 103.779 1.39423 104.497 1.37988 105.267C1.36554 106.042 1.64768 106.769 2.18326 107.329C2.73319 107.903 3.4744 108.219 4.26821 108.219C5.01898 108.219 5.72671 107.932 6.26708 107.415C7.41476 106.31 7.45301 104.478 6.35315 103.33C5.80323 102.755 5.06202 102.44 4.26821 102.44H4.26342Z" fill="#B0D1EC"/>
<path d="M112.848 5.58302C112.107 5.56867 111.409 5.26249 110.892 4.72669C110.376 4.19088 110.098 3.48285 110.118 2.73654C110.132 1.99024 110.438 1.29656 110.973 0.77989C111.495 0.277571 112.183 0.00488281 112.915 0.00488281H112.963C113.709 0.0192348 114.402 0.32541 114.919 0.861218C115.435 1.39703 115.712 2.10506 115.693 2.85136C115.679 3.59766 115.373 4.29134 114.837 4.80801C114.316 5.31033 113.627 5.58781 112.905 5.58781H112.843L112.848 5.58302ZM112.905 0.87557C112.408 0.87557 111.939 1.06693 111.581 1.40659C111.213 1.76061 111.002 2.23901 110.993 2.7509C110.983 3.26278 111.17 3.74597 111.523 4.11433C111.877 4.4827 112.355 4.6932 112.867 4.70277C113.398 4.70277 113.871 4.51141 114.23 4.17174C114.598 3.81773 114.809 3.33933 114.818 2.82744C114.828 2.31555 114.641 1.83237 114.287 1.464C113.934 1.09563 113.455 0.885138 112.944 0.87557L112.905 0.63637V0.87557Z" fill="#B0D1EC"/>
<path d="M157.555 120.432C157.239 120.432 156.943 120.308 156.723 120.078L155.776 119.093C155.647 118.959 155.475 118.887 155.293 118.887C155.121 118.887 154.953 118.954 154.829 119.074L153.815 120.045C153.6 120.251 153.318 120.365 153.022 120.365C152.706 120.365 152.409 120.241 152.189 120.011C151.75 119.552 151.764 118.825 152.223 118.385L153.237 117.414C153.366 117.289 153.438 117.122 153.442 116.945C153.447 116.768 153.38 116.596 153.256 116.466L152.309 115.481C151.869 115.022 151.883 114.295 152.342 113.854L152.433 113.768C152.649 113.563 152.931 113.448 153.227 113.448C153.543 113.448 153.839 113.572 154.059 113.802L155.006 114.787C155.135 114.921 155.307 114.993 155.489 114.993C155.661 114.993 155.829 114.926 155.953 114.806L156.967 113.835C157.182 113.63 157.464 113.515 157.76 113.515C158.076 113.515 158.373 113.639 158.593 113.869C158.808 114.089 158.918 114.381 158.913 114.687C158.908 114.993 158.779 115.28 158.559 115.491L157.545 116.462C157.278 116.72 157.268 117.146 157.526 117.414L158.473 118.399C158.913 118.858 158.899 119.586 158.44 120.026L158.349 120.112C158.133 120.318 157.851 120.432 157.555 120.432Z" fill="#B0D1EC"/>
<path d="M148.966 82.9209C148.723 82.8875 148.55 82.6674 148.584 82.4282C148.622 82.1507 148.656 81.8685 148.684 81.591C148.713 81.3709 148.899 81.2035 149.119 81.2035H149.172C149.411 81.2322 149.583 81.4523 149.555 81.6915C149.521 81.9737 149.488 82.2608 149.449 82.543C149.421 82.7631 149.234 82.9257 149.014 82.9257H148.962L148.966 82.9209ZM149.206 80.8877C148.966 80.8638 148.789 80.6485 148.813 80.4094C148.852 80.0123 148.89 79.62 148.919 79.2229C148.938 78.9885 149.124 78.8211 149.363 78.8211C149.512 78.8306 149.617 78.888 149.693 78.9742C149.77 79.065 149.803 79.1751 149.794 79.2947C149.76 79.6917 149.727 80.0936 149.684 80.4907C149.66 80.7155 149.473 80.8877 149.249 80.8877H149.206ZM149.421 78.5053C149.301 78.4958 149.196 78.4431 149.115 78.357C149.033 78.2709 149 78.1561 149.005 78.0413C149.029 77.6442 149.052 77.2519 149.072 76.8548C149.081 76.6252 149.277 76.4339 149.507 76.4339C149.77 76.4434 149.961 76.6539 149.947 76.8931C149.928 77.295 149.908 77.692 149.88 78.0939C149.865 78.3235 149.674 78.5053 149.44 78.5053H149.416H149.421ZM149.55 76.1181C149.301 76.1085 149.11 75.9076 149.119 75.6684C149.129 75.2713 149.139 74.8791 149.143 74.482C149.143 74.2332 149.325 74.0466 149.564 74.0466C149.703 74.0466 149.813 74.0945 149.899 74.1806C149.98 74.2619 150.023 74.3767 150.023 74.4916C150.023 74.8934 150.014 75.2953 149.999 75.6923C149.99 75.9315 149.798 76.1181 149.559 76.1181H149.555H149.55ZM149.579 73.7261C149.339 73.7261 149.143 73.53 149.139 73.2908C149.139 72.8937 149.129 72.4966 149.119 72.1043C149.119 71.9847 149.158 71.8747 149.239 71.7934C149.32 71.7073 149.43 71.6594 149.545 71.6546C149.794 71.6546 149.99 71.846 149.995 72.0804C150.004 72.4823 150.014 72.8841 150.014 73.286C150.014 73.53 149.818 73.7261 149.579 73.7261ZM149.516 71.3389C149.282 71.3389 149.091 71.1571 149.076 70.9227C149.057 70.5256 149.038 70.1333 149.014 69.7363C149.005 69.6214 149.048 69.5066 149.124 69.4205C149.201 69.3344 149.311 69.2818 149.425 69.2722C149.684 69.2722 149.875 69.454 149.889 69.6836C149.913 70.0807 149.937 70.4826 149.952 70.8844C149.961 71.1236 149.775 71.3293 149.531 71.3437H149.512L149.516 71.3389ZM149.368 68.9517C149.139 68.9517 148.947 68.7747 148.933 68.5498C148.899 68.1575 148.866 67.7605 148.828 67.3682C148.804 67.129 148.981 66.9137 149.22 66.8898C149.488 66.8898 149.674 67.0572 149.693 67.2821C149.732 67.6791 149.77 68.081 149.803 68.4781C149.822 68.7173 149.645 68.9325 149.402 68.9517H149.363H149.368ZM149.129 66.574C148.909 66.574 148.718 66.4066 148.694 66.1865C148.646 65.7942 148.598 65.402 148.546 65.0097C148.531 64.8949 148.56 64.78 148.632 64.6844C148.703 64.5935 148.804 64.5313 148.923 64.5169H148.986C149.201 64.5169 149.387 64.6748 149.416 64.8901C149.473 65.2871 149.521 65.6842 149.569 66.0861C149.583 66.2009 149.55 66.3157 149.478 66.4066C149.406 66.4975 149.301 66.5597 149.186 66.5692H149.134L149.129 66.574ZM148.804 64.206C148.589 64.206 148.407 64.0481 148.373 63.8376C148.311 63.4453 148.249 63.053 148.182 62.6655C148.163 62.5507 148.187 62.4359 148.254 62.3402C148.321 62.2445 148.421 62.1823 148.536 62.1584H148.555L148.608 62.1536C148.823 62.1536 149.005 62.3067 149.043 62.5172C149.11 62.9095 149.177 63.3066 149.239 63.7036C149.277 63.9428 149.11 64.1677 148.876 64.206H148.809H148.804ZM148.393 61.8474C148.182 61.8474 148 61.6991 147.962 61.4934C147.886 61.1059 147.809 60.7184 147.723 60.3309C147.699 60.2161 147.723 60.0965 147.785 60.0008C147.847 59.9004 147.948 59.8334 148.063 59.8095H148.087L148.153 59.7999C148.359 59.7999 148.541 59.9482 148.584 60.1491C148.665 60.5414 148.746 60.9337 148.823 61.326C148.866 61.5652 148.713 61.7948 148.474 61.8427H148.45L148.388 61.8522L148.393 61.8474ZM147.895 59.5081C147.69 59.5081 147.513 59.3693 147.47 59.1684C147.379 58.7857 147.288 58.3982 147.192 58.0155C147.164 57.9007 147.183 57.7858 147.24 57.6854C147.297 57.5849 147.398 57.5132 147.508 57.4844C147.541 57.4749 147.58 57.4701 147.618 57.4701C147.819 57.4701 147.991 57.604 148.043 57.8002C148.144 58.1877 148.235 58.58 148.326 58.9723C148.354 59.0871 148.335 59.2019 148.273 59.3024C148.211 59.4028 148.115 59.4698 148 59.4985H147.972L147.9 59.5081H147.895ZM147.307 57.1878C147.111 57.1878 146.934 57.0539 146.886 56.8625C146.781 56.4798 146.676 56.0971 146.566 55.7192C146.532 55.6091 146.547 55.4895 146.599 55.3843C146.657 55.279 146.748 55.2073 146.862 55.1738C146.905 55.1594 146.944 55.1546 146.987 55.1546C147.178 55.1546 147.355 55.2838 147.407 55.4704C147.522 55.8579 147.627 56.2406 147.733 56.6281C147.795 56.8625 147.656 57.1017 147.427 57.1639C147.388 57.1735 147.35 57.1783 147.312 57.1783L147.307 57.1878ZM146.638 54.8915C146.446 54.8915 146.274 54.7671 146.217 54.5853C146.097 54.2074 145.978 53.8295 145.853 53.4515C145.777 53.2219 145.901 52.9731 146.131 52.8966C146.179 52.8822 146.222 52.8727 146.269 52.8727C146.456 52.8727 146.623 52.9923 146.685 53.1693C146.815 53.552 146.934 53.9347 147.054 54.3174C147.125 54.5471 146.996 54.7958 146.767 54.8676C146.724 54.882 146.681 54.8867 146.638 54.8867V54.8915ZM145.882 52.6191C145.696 52.6191 145.533 52.5043 145.471 52.3273C145.337 51.9541 145.203 51.581 145.064 51.2078C144.978 50.9782 145.098 50.7294 145.323 50.6433C145.37 50.6242 145.423 50.6146 145.476 50.6146C145.657 50.6146 145.825 50.7294 145.887 50.9017C146.025 51.2796 146.164 51.6575 146.298 52.0355C146.336 52.1455 146.332 52.2651 146.279 52.3704C146.226 52.4756 146.14 52.5569 146.03 52.5952C145.982 52.6143 145.935 52.6191 145.882 52.6191ZM145.045 50.3754C144.863 50.3754 144.706 50.2654 144.639 50.098C144.495 49.7296 144.342 49.3612 144.194 48.9976C144.103 48.7728 144.208 48.5192 144.428 48.4236C144.486 48.3996 144.538 48.3901 144.596 48.3901C144.773 48.3901 144.93 48.4953 145.002 48.658C145.155 49.0311 145.308 49.4043 145.456 49.7774C145.547 50.0023 145.433 50.2558 145.208 50.3467C145.155 50.3659 145.103 50.3754 145.045 50.3754ZM144.127 48.1652C143.955 48.1652 143.797 48.06 143.725 47.9021C143.568 47.5385 143.405 47.1749 143.238 46.8161C143.19 46.7109 143.185 46.5913 143.223 46.4813C143.262 46.3712 143.343 46.2851 143.453 46.2373C143.51 46.2086 143.572 46.199 143.635 46.199C143.807 46.199 143.964 46.2995 144.031 46.4573C144.199 46.8209 144.361 47.1893 144.524 47.5577C144.62 47.7777 144.519 48.0408 144.299 48.1365C144.242 48.1604 144.184 48.1748 144.122 48.1748L144.127 48.1652ZM143.128 45.9885C142.96 45.9885 142.802 45.888 142.731 45.7397C142.559 45.3809 142.386 45.0269 142.205 44.6729C142.095 44.4576 142.186 44.1945 142.401 44.0845C142.463 44.0558 142.53 44.0366 142.597 44.0366C142.764 44.0366 142.917 44.1275 142.989 44.2806C143.171 44.6394 143.348 45.003 143.52 45.3618C143.625 45.5819 143.529 45.8402 143.314 45.9454C143.257 45.9742 143.19 45.9885 143.123 45.9885H143.128ZM142.052 43.8453C141.889 43.8453 141.741 43.7544 141.664 43.6109C141.483 43.2568 141.291 42.9076 141.105 42.5584C141.047 42.4579 141.033 42.3383 141.067 42.2235C141.1 42.1087 141.172 42.0178 141.277 41.9604C141.339 41.9269 141.416 41.9078 141.487 41.9078C141.645 41.9078 141.793 41.9939 141.87 42.1374C142.061 42.4914 142.253 42.8454 142.439 43.1994C142.549 43.4147 142.468 43.6778 142.253 43.7927C142.19 43.8261 142.119 43.8405 142.052 43.8405V43.8453ZM140.904 41.7403C140.746 41.7403 140.598 41.6542 140.521 41.5203C140.325 41.1758 140.125 40.8314 139.924 40.4917C139.866 40.3912 139.847 40.2716 139.876 40.1616C139.905 40.0468 139.976 39.9511 140.077 39.8937C140.144 39.8554 140.22 39.8315 140.301 39.8315C140.454 39.8315 140.598 39.9128 140.679 40.0468C140.885 40.396 141.086 40.7405 141.282 41.0897C141.339 41.1902 141.353 41.3098 141.325 41.4198C141.291 41.5346 141.22 41.6255 141.119 41.6829C141.052 41.7212 140.98 41.7403 140.904 41.7403ZM139.685 39.6784C139.532 39.6784 139.393 39.6019 139.312 39.4679C139.101 39.1283 138.891 38.7934 138.68 38.4585C138.618 38.358 138.599 38.2432 138.623 38.1284C138.647 38.0136 138.719 37.9179 138.814 37.8557C138.886 37.8127 138.967 37.7887 139.049 37.7887C139.197 37.7887 139.335 37.8653 139.417 37.9897C139.632 38.3293 139.847 38.669 140.058 39.0134C140.12 39.1139 140.139 39.2287 140.11 39.3435C140.081 39.4583 140.015 39.554 139.914 39.6162C139.847 39.6593 139.766 39.6832 139.685 39.6832V39.6784ZM138.393 37.6548C138.245 37.6548 138.111 37.583 138.03 37.4586C137.81 37.1285 137.59 36.7984 137.365 36.4731C137.298 36.3775 137.274 36.2626 137.298 36.143C137.317 36.0282 137.384 35.9278 137.48 35.8608C137.552 35.8129 137.638 35.7842 137.729 35.7842C137.872 35.7842 138.011 35.856 138.092 35.9756C138.317 36.3057 138.542 36.6406 138.762 36.9707C138.896 37.1716 138.838 37.4443 138.637 37.5782C138.566 37.6261 138.48 37.65 138.393 37.65V37.6548ZM137.045 35.6838C136.901 35.6838 136.768 35.6168 136.686 35.4972C136.457 35.1767 136.227 34.8561 135.988 34.5356C135.845 34.3395 135.888 34.0668 136.084 33.9233C136.16 33.8659 136.251 33.8372 136.342 33.8372C136.481 33.8372 136.615 33.9041 136.696 34.0142C136.935 34.3395 137.169 34.6648 137.399 34.9901C137.537 35.1862 137.49 35.4589 137.298 35.6024C137.222 35.6551 137.136 35.6838 137.045 35.6838Z" fill="#B0D1EC"/>
<path d="M22.1768 112.764C22.0237 112.764 21.8851 112.687 21.8038 112.558C21.5886 112.218 21.3782 111.874 21.1725 111.529C21.1104 111.429 21.096 111.309 21.1247 111.199C21.1534 111.084 21.2251 110.989 21.3256 110.927C21.3925 110.888 21.4738 110.864 21.5503 110.864C21.7033 110.864 21.8468 110.946 21.9281 111.075C22.1337 111.415 22.3393 111.749 22.5497 112.089C22.6789 112.295 22.6167 112.563 22.4111 112.692C22.3393 112.735 22.2628 112.759 22.1768 112.759V112.764ZM20.9382 110.716C20.7804 110.716 20.637 110.635 20.5604 110.496C20.3596 110.147 20.1588 109.798 19.9675 109.448C19.8479 109.238 19.9244 108.97 20.1348 108.85C20.2018 108.812 20.2735 108.798 20.3453 108.798C20.5031 108.798 20.6513 108.884 20.7278 109.023C20.9191 109.372 21.1152 109.716 21.316 110.056C21.4355 110.266 21.3638 110.534 21.1582 110.654C21.0912 110.692 21.0147 110.711 20.9382 110.711V110.716ZM19.7762 108.626C19.6136 108.626 19.4654 108.535 19.3889 108.391C19.1976 108.037 19.0159 107.678 18.8341 107.324C18.7815 107.219 18.772 107.099 18.8054 106.989C18.8437 106.879 18.9202 106.788 19.0254 106.736C19.0876 106.702 19.1545 106.688 19.2263 106.688C19.3936 106.688 19.5419 106.779 19.6184 106.927C19.8001 107.281 19.9818 107.63 20.1683 107.98C20.2257 108.085 20.2353 108.2 20.2018 108.315C20.1683 108.429 20.0918 108.52 19.9866 108.573C19.9244 108.606 19.8527 108.626 19.781 108.626H19.7762ZM18.6859 106.492C18.5185 106.492 18.3655 106.396 18.2938 106.248C18.1168 105.884 17.9447 105.521 17.7725 105.162C17.6721 104.942 17.763 104.684 17.9829 104.578C18.0403 104.55 18.1025 104.535 18.1694 104.535C18.3368 104.535 18.4946 104.636 18.5664 104.789C18.7337 105.148 18.9059 105.506 19.078 105.86C19.1832 106.08 19.0924 106.344 18.8772 106.449C18.815 106.477 18.7528 106.492 18.6859 106.492ZM17.6769 104.32C17.5047 104.32 17.3469 104.219 17.2752 104.062C17.1126 103.693 16.95 103.325 16.797 102.956C16.7492 102.851 16.7492 102.732 16.797 102.622C16.8401 102.512 16.9261 102.425 17.0313 102.382C17.0839 102.358 17.1413 102.349 17.2035 102.349C17.3804 102.349 17.5382 102.454 17.6052 102.617C17.7582 102.98 17.916 103.344 18.0786 103.708C18.1264 103.813 18.1312 103.932 18.0882 104.042C18.0451 104.152 17.9638 104.239 17.8586 104.286C17.8012 104.31 17.7438 104.325 17.6817 104.325L17.6769 104.32ZM16.7396 102.119C16.5579 102.119 16.4001 102.009 16.3332 101.842C16.1849 101.469 16.0367 101.095 15.8932 100.722C15.8071 100.497 15.9219 100.244 16.1467 100.158C16.1993 100.139 16.2519 100.129 16.3045 100.129C16.4862 100.129 16.6488 100.244 16.7157 100.411C16.8592 100.78 17.0026 101.148 17.1509 101.516C17.1939 101.627 17.1939 101.741 17.1509 101.851C17.1078 101.961 17.0218 102.043 16.9118 102.086C16.8592 102.105 16.8066 102.119 16.7492 102.119H16.7396ZM15.8884 99.8804C15.7019 99.8804 15.5394 99.7655 15.4772 99.5933C15.3385 99.2154 15.2094 98.8375 15.0755 98.4595C15.0372 98.3495 15.0468 98.2299 15.0946 98.1246C15.1472 98.0194 15.2333 97.9381 15.3481 97.9046C15.3959 97.8902 15.4437 97.8807 15.4915 97.8807C15.678 97.8807 15.8454 98.0003 15.9076 98.1773C16.0367 98.5504 16.1658 98.9236 16.3045 99.2967C16.3427 99.4068 16.3379 99.5263 16.2901 99.6316C16.2423 99.7368 16.1514 99.8182 16.0415 99.8564C15.9984 99.8756 15.9458 99.8804 15.8932 99.8804H15.8884ZM15.109 97.6175C14.9177 97.6175 14.7503 97.4932 14.6929 97.3114C14.5686 96.9286 14.4491 96.5459 14.3343 96.1632C14.2626 95.9288 14.3965 95.6848 14.626 95.6178C14.6642 95.6035 14.7073 95.5987 14.7551 95.5987C14.9464 95.5987 15.1185 95.7279 15.1759 95.9096C15.2907 96.2876 15.4102 96.6655 15.5298 97.0435C15.568 97.1535 15.5585 97.2731 15.5011 97.3783C15.4485 97.4836 15.3576 97.5601 15.2429 97.5936C15.1998 97.608 15.152 97.6127 15.109 97.6127V97.6175ZM14.4156 95.3308C14.2195 95.3308 14.0474 95.2016 13.9948 95.0103C13.8848 94.6228 13.7796 94.2352 13.6744 93.8477C13.6122 93.6133 13.7509 93.3741 13.9852 93.3119C14.0235 93.3024 14.0617 93.2976 14.1 93.2976C14.296 93.2976 14.473 93.4315 14.5256 93.6229C14.626 94.0056 14.7312 94.3883 14.8412 94.7711C14.8747 94.8811 14.8603 95.0007 14.8029 95.1059C14.7455 95.2064 14.6547 95.2829 14.5399 95.3164C14.5017 95.326 14.4586 95.3356 14.4204 95.3356L14.4156 95.3308ZM13.8035 93.0153C13.6026 93.0153 13.4257 92.8766 13.3779 92.6805C13.2823 92.2882 13.1866 91.9007 13.1005 91.5084C13.0479 91.274 13.1962 91.0395 13.4305 90.9821H13.4592L13.5309 90.9726C13.7318 90.9726 13.9135 91.1161 13.9565 91.3122C14.0426 91.6997 14.1382 92.0825 14.2339 92.47C14.2913 92.7044 14.1478 92.9436 13.9135 93.001C13.8752 93.0106 13.8417 93.0153 13.8083 93.0153H13.8035ZM13.2679 90.6855C13.0623 90.6855 12.8806 90.5372 12.8375 90.3363C12.7562 89.944 12.6749 89.5469 12.5984 89.1546C12.5745 89.0398 12.5984 88.925 12.6654 88.8245C12.7323 88.7289 12.8327 88.6619 12.9475 88.638H12.9714L13.0288 88.6284C13.2392 88.6284 13.4209 88.7767 13.4592 88.9872C13.5357 89.3747 13.6122 89.7622 13.6935 90.1497C13.7413 90.3889 13.5931 90.6186 13.354 90.6712H13.3301L13.2631 90.6807L13.2679 90.6855ZM12.8184 88.3366C12.6032 88.3366 12.4215 88.1835 12.388 87.973C12.3211 87.5759 12.2541 87.1836 12.192 86.7866C12.1537 86.5474 12.3211 86.3225 12.5602 86.2842H12.6271C12.8471 86.2795 13.0288 86.4373 13.0623 86.6526C13.1244 87.0449 13.1866 87.4324 13.2536 87.8247C13.2727 87.9395 13.2488 88.0543 13.1818 88.15C13.1149 88.2457 13.0145 88.3079 12.8997 88.3318H12.8806L12.8232 88.3366H12.8184ZM12.4502 85.9685C12.2302 85.9685 12.0437 85.8059 12.015 85.5906C11.9576 85.1935 11.9098 84.7964 11.862 84.3946C11.8477 84.2798 11.8811 84.1649 11.9529 84.0693C12.0246 83.9784 12.1298 83.921 12.2446 83.9066H12.2972C12.5171 83.9066 12.7084 84.0741 12.7323 84.2893C12.7801 84.6816 12.8327 85.0739 12.8853 85.4662C12.8997 85.581 12.871 85.6958 12.7993 85.7915C12.7275 85.8872 12.6271 85.9446 12.5076 85.9589H12.4454L12.4502 85.9685ZM12.1633 83.5956C11.9385 83.5956 11.752 83.4282 11.7281 83.2034C11.6851 82.8063 11.6468 82.4044 11.6133 82.0074C11.5942 81.7682 11.7711 81.5529 12.015 81.5337C12.2733 81.5337 12.4645 81.7155 12.4837 81.9356C12.5171 82.3279 12.5554 82.725 12.5936 83.1172C12.6176 83.3564 12.4406 83.5717 12.2015 83.6004H12.1585L12.1633 83.5956ZM11.9576 81.2132C11.7281 81.2132 11.5368 81.0314 11.5225 80.8018C11.4938 80.3999 11.4699 80.0029 11.4508 79.601C11.4412 79.357 11.6277 79.1513 11.8668 79.1417C12.1298 79.1417 12.3115 79.3188 12.3259 79.558C12.345 79.955 12.3689 80.3473 12.3976 80.7444C12.4071 80.8592 12.3689 80.974 12.2924 81.0601C12.2159 81.1462 12.1107 81.2037 11.9911 81.2084H11.9624L11.9576 81.2132ZM11.8381 78.826C11.599 78.826 11.4077 78.6394 11.3982 78.4002C11.3838 77.9984 11.3742 77.5965 11.3695 77.1947C11.3695 77.0751 11.4125 76.965 11.4938 76.8837C11.5751 76.8024 11.6851 76.7545 11.7998 76.7497C12.0389 76.7497 12.2398 76.9459 12.2446 77.1803C12.2493 77.5774 12.2589 77.9697 12.2733 78.3667C12.2828 78.6107 12.0915 78.8116 11.8477 78.8212H11.8333L11.8381 78.826ZM11.7998 76.434C11.556 76.434 11.3599 76.2379 11.3599 75.9939C11.3599 75.592 11.3599 75.1902 11.3742 74.7883C11.3742 74.5491 11.5703 74.3577 11.8046 74.3577C12.0628 74.3625 12.2589 74.5635 12.2541 74.8027C12.2446 75.1997 12.2446 75.5968 12.2398 75.9891C12.2398 76.2283 12.0437 76.4292 11.7998 76.4292V76.434ZM11.8142 74.042C11.709 74.042 11.6038 73.9894 11.5225 73.9033C11.4412 73.8172 11.4029 73.7071 11.4029 73.5875C11.4173 73.1857 11.4364 72.7886 11.4555 72.3867C11.4699 72.1475 11.6564 71.9705 11.8907 71.9705C12.1585 71.9849 12.345 72.1906 12.3306 72.4298C12.3115 72.8269 12.2924 73.2192 12.278 73.6162C12.2685 73.8554 12.0772 74.0372 11.8381 74.0372H11.8094L11.8142 74.042ZM11.9337 71.65C11.6994 71.6357 11.5177 71.4252 11.532 71.1812C11.5607 70.7793 11.5942 70.3823 11.6277 69.9804C11.6468 69.7508 11.8381 69.5785 12.0628 69.5785C12.2159 69.5881 12.3211 69.6455 12.3976 69.7364C12.4741 69.8273 12.5076 69.9421 12.498 70.0569C12.4645 70.4492 12.4311 70.8463 12.4024 71.2386C12.388 71.4682 12.1967 71.6452 11.9672 71.6452H11.929L11.9337 71.65ZM12.1394 69.2676C12.0198 69.2532 11.9146 69.1958 11.8429 69.1049C11.7711 69.014 11.7377 68.8992 11.7472 68.7844C11.7903 68.3873 11.8333 67.9855 11.8811 67.5884C11.905 67.3731 12.0963 67.2009 12.3163 67.2009H12.3737C12.4837 67.22 12.5889 67.2774 12.6606 67.3683C12.7323 67.4592 12.7658 67.574 12.7515 67.6936C12.7036 68.0859 12.6606 68.483 12.6176 68.8753C12.5936 69.1001 12.4071 69.2676 12.1824 69.2676H12.1394ZM12.4071 66.8947C12.2924 66.8804 12.192 66.8182 12.1202 66.7225C12.0485 66.6268 12.0198 66.512 12.0342 66.3972C12.0915 66.0001 12.1489 65.603 12.2111 65.206C12.2446 64.9955 12.4311 64.8376 12.6462 64.8376H12.7132C12.828 64.8615 12.9284 64.9237 13.0001 65.0194C13.0671 65.1151 13.0958 65.2299 13.0766 65.3447C13.0145 65.737 12.9571 66.1293 12.8997 66.5168C12.871 66.7321 12.6845 66.8947 12.4645 66.8947H12.4024H12.4071ZM12.8232 64.5362H12.7658C12.651 64.5075 12.5506 64.4453 12.4837 64.3496C12.4167 64.254 12.3928 64.1391 12.4119 64.0195C12.4789 63.6273 12.5554 63.2302 12.6271 62.8379C12.6654 62.6322 12.8471 62.4839 13.0575 62.4839H13.0814L13.1436 62.4934C13.3779 62.5365 13.5357 62.7709 13.4879 63.0053C13.4114 63.3928 13.3396 63.7851 13.2727 64.1726C13.2344 64.3831 13.0527 64.5362 12.8423 64.5362H12.8232ZM13.2727 62.1921L13.2057 62.1825C13.091 62.1586 12.9953 62.0916 12.9284 61.9911C12.8614 61.8907 12.8423 61.7758 12.8662 61.661C12.9475 61.2687 13.0336 60.8765 13.1244 60.4842C13.1723 60.2832 13.3444 60.1445 13.55 60.1445H13.5787L13.6505 60.1541C13.7652 60.178 13.8609 60.2498 13.923 60.3502C13.9852 60.4507 14.0043 60.5655 13.9804 60.6803C13.8896 61.0678 13.8083 61.4553 13.727 61.838C13.6839 62.039 13.5022 62.1873 13.2966 62.1873H13.2727V62.1921ZM13.8322 59.8622C13.7987 59.8622 13.7605 59.8622 13.727 59.8479C13.6122 59.8192 13.5166 59.7474 13.4544 59.647C13.3922 59.5465 13.3779 59.4269 13.4066 59.3169C13.5022 58.9294 13.6026 58.5419 13.7031 58.1544C13.7557 57.963 13.9278 57.829 14.1239 57.829C14.1621 57.829 14.1956 57.8291 14.2339 57.8434C14.4682 57.9056 14.6116 58.1448 14.5495 58.3792C14.4491 58.7619 14.3486 59.1446 14.253 59.5322C14.2052 59.7283 14.0282 59.867 13.8274 59.867L13.8322 59.8622ZM14.4443 57.5516C14.406 57.5516 14.363 57.5468 14.3247 57.5372C14.21 57.5037 14.1191 57.432 14.0617 57.3267C14.0043 57.2263 13.99 57.1067 14.0235 56.9918C14.1334 56.6091 14.2434 56.2216 14.363 55.8389C14.4204 55.6523 14.5877 55.5279 14.7838 55.5279C14.8268 55.5279 14.8699 55.5327 14.9129 55.5471C15.1424 55.6188 15.2763 55.8628 15.2046 56.0925C15.0898 56.4704 14.9799 56.8531 14.8699 57.231C14.8173 57.4176 14.6451 57.5516 14.4491 57.5516H14.4443ZM15.1377 55.2648C15.0898 55.2648 15.0468 55.26 15.0038 55.2457C14.8938 55.2074 14.8029 55.1309 14.7503 55.0304C14.6977 54.9252 14.6882 54.8056 14.7216 54.6955C14.846 54.3128 14.9703 53.9349 15.0994 53.5569C15.1568 53.3799 15.3242 53.2603 15.5154 53.2603C15.5633 53.2603 15.6111 53.2699 15.6541 53.2843C15.7689 53.3225 15.855 53.4039 15.9076 53.5091C15.9602 53.6143 15.9649 53.734 15.9267 53.844C15.7976 54.2171 15.6732 54.5951 15.5537 54.9682C15.4963 55.15 15.3289 55.2744 15.1377 55.2744V55.2648ZM15.9076 53.0068C15.855 53.0068 15.8071 52.9972 15.7593 52.9829C15.5298 52.9015 15.415 52.648 15.4963 52.4231C15.6302 52.0452 15.7737 51.672 15.9123 51.2941C15.9745 51.1267 16.1419 51.0119 16.3236 51.0119C16.3762 51.0119 16.4288 51.0214 16.4766 51.0406C16.7014 51.1267 16.8161 51.3802 16.7301 51.6051C16.5914 51.9734 16.4527 52.3466 16.3188 52.7197C16.2567 52.892 16.0893 53.0116 15.9076 53.0116V53.0068ZM16.754 50.7727C16.6966 50.7727 16.644 50.7631 16.5914 50.744C16.4814 50.7009 16.3953 50.6148 16.3523 50.5095C16.3045 50.4043 16.3045 50.2847 16.3523 50.1747C16.5005 49.8015 16.6536 49.4331 16.8066 49.0648C16.8735 48.9021 17.0313 48.7969 17.2083 48.7969C17.2656 48.7969 17.3278 48.8064 17.3804 48.8304C17.4856 48.8734 17.5717 48.9595 17.6147 49.0696C17.6578 49.1796 17.6578 49.2992 17.6147 49.4044C17.4617 49.768 17.3135 50.1364 17.1652 50.5C17.0983 50.6674 16.9405 50.7774 16.7588 50.7774L16.754 50.7727ZM17.6817 48.572C17.6195 48.572 17.5621 48.5577 17.5048 48.5337C17.3948 48.4859 17.3135 48.3998 17.2704 48.2898C17.2274 48.1797 17.2322 48.0601 17.28 47.9549C17.4426 47.5913 17.6052 47.2229 17.7725 46.8593C17.8443 46.7063 18.0021 46.6058 18.1694 46.6058C18.2316 46.6058 18.2938 46.6201 18.3512 46.6441C18.5711 46.7445 18.6668 47.0077 18.5664 47.2277C18.399 47.5865 18.2364 47.9501 18.0786 48.3089C18.0069 48.4668 17.8491 48.572 17.6769 48.572H17.6817ZM18.6811 46.4049C18.6142 46.4049 18.552 46.3905 18.4898 46.3618C18.2699 46.2566 18.179 45.9934 18.2842 45.7734C18.4564 45.4146 18.6333 45.0558 18.815 44.697C18.8915 44.5487 19.0398 44.4578 19.2071 44.4578C19.2741 44.4578 19.341 44.4721 19.4032 44.5056C19.6184 44.6157 19.7092 44.8788 19.5993 45.0941C19.4223 45.4481 19.2454 45.8021 19.0732 46.1609C19.0015 46.3092 18.8485 46.4097 18.6763 46.4097L18.6811 46.4049ZM19.7523 44.2712C19.6806 44.2712 19.6136 44.2521 19.5467 44.2234C19.4415 44.1707 19.3649 44.0751 19.3315 43.965C19.298 43.855 19.3076 43.7354 19.3602 43.6301C19.5467 43.2761 19.7332 42.9221 19.9292 42.5729C20.0057 42.4342 20.154 42.3433 20.3118 42.3433C20.3835 42.3433 20.46 42.3624 20.5222 42.3959C20.6226 42.4533 20.6991 42.5442 20.7326 42.659C20.7661 42.7738 20.7517 42.8886 20.6943 42.9939C20.5031 43.3431 20.3166 43.6876 20.1348 44.0368C20.0583 44.1803 19.9101 44.2712 19.7475 44.2712H19.7523ZM20.9 42.1758C20.8234 42.1758 20.7469 42.1567 20.68 42.1184C20.4696 41.9988 20.3979 41.7309 20.5174 41.5204C20.7135 41.1712 20.9191 40.8267 21.1199 40.4823C21.1964 40.3483 21.3447 40.267 21.4977 40.267C21.5742 40.267 21.6555 40.2861 21.7225 40.3292C21.9329 40.4536 21.9998 40.7215 21.8755 40.932C21.6746 41.2716 21.4738 41.6161 21.2777 41.9558C21.2012 42.0945 21.053 42.1758 20.8952 42.1758H20.9ZM22.1194 40.1235C22.0381 40.1235 21.9568 40.0996 21.8898 40.0565C21.6842 39.9273 21.622 39.6594 21.7464 39.4537C21.9568 39.1141 22.1672 38.7744 22.3872 38.4395C22.4685 38.3151 22.6071 38.2386 22.7554 38.2386C22.8414 38.2386 22.9227 38.2625 22.9897 38.3104C23.0901 38.3725 23.1571 38.473 23.181 38.583C23.2049 38.6979 23.181 38.8127 23.1236 38.9131C22.9132 39.248 22.698 39.5829 22.4924 39.9178C22.4111 40.0469 22.2724 40.1283 22.1194 40.1283V40.1235ZM23.4057 38.119C23.3196 38.119 23.2384 38.0951 23.1618 38.0472C23.0614 37.9803 22.9993 37.8846 22.9753 37.7698C22.9514 37.6549 22.9753 37.5401 23.0423 37.4397C23.2623 37.1096 23.487 36.7747 23.7166 36.4446C23.7978 36.325 23.9317 36.2532 24.0752 36.2532C24.1661 36.2532 24.2521 36.2819 24.3239 36.3298C24.4195 36.3968 24.4865 36.4972 24.5056 36.612C24.5247 36.7268 24.5056 36.8417 24.4339 36.9421C24.2091 37.2674 23.9891 37.5927 23.7692 37.9228C23.6879 38.0424 23.554 38.119 23.4057 38.119ZM24.759 36.1528C24.6682 36.1528 24.5773 36.1241 24.5056 36.0714C24.4099 36.0045 24.3478 35.904 24.3286 35.7844C24.3095 35.6696 24.3382 35.5548 24.4052 35.4591C24.6347 35.1338 24.8738 34.8132 25.1129 34.4879C25.1942 34.3779 25.3281 34.3109 25.4668 34.3109C25.5624 34.3109 25.6533 34.3396 25.7298 34.397C25.8254 34.4688 25.8876 34.5693 25.9019 34.6841C25.921 34.7989 25.8876 34.9137 25.8206 35.0094C25.5863 35.3251 25.352 35.6457 25.1225 35.9662C25.0412 36.081 24.9073 36.148 24.7686 36.148L24.759 36.1528ZM26.1793 34.2392C26.0836 34.2392 25.988 34.2057 25.9115 34.1483C25.7202 34 25.682 33.7225 25.8302 33.5311C26.0741 33.2154 26.318 32.8997 26.5714 32.5839C26.6575 32.4787 26.7818 32.4165 26.9157 32.4165C27.0161 32.4165 27.1118 32.45 27.1883 32.5121C27.2791 32.5839 27.3365 32.6892 27.3509 32.804C27.3652 32.9188 27.3317 33.0336 27.2552 33.1293C27.0113 33.4402 26.7675 33.7512 26.5284 34.0622C26.4423 34.1722 26.318 34.2344 26.1793 34.2344V34.2392ZM27.6665 32.3734C27.5661 32.3734 27.4656 32.3399 27.3891 32.2729C27.2026 32.1199 27.1787 31.8424 27.3317 31.6558C27.5852 31.3449 27.8434 31.0387 28.1064 30.7325C28.1877 30.6368 28.312 30.5794 28.4412 30.5794C28.5464 30.5794 28.6468 30.6177 28.7233 30.6847C28.8142 30.7612 28.8668 30.8665 28.8763 30.9813C28.8859 31.0961 28.8476 31.2109 28.7711 31.3018C28.5129 31.6032 28.2594 31.9046 28.006 32.2108C27.9247 32.3112 27.8004 32.3686 27.6665 32.3686V32.3734ZM29.2158 30.5555C29.1106 30.5555 29.0054 30.5172 28.9241 30.4455C28.7424 30.2876 28.7281 30.0053 28.8859 29.8283C29.1489 29.5269 29.4215 29.2303 29.6893 28.9337C29.7705 28.8428 29.8901 28.7902 30.0144 28.7902C30.1244 28.7902 30.2296 28.8285 30.3109 28.905C30.397 28.9863 30.4496 29.0916 30.4544 29.2112C30.4592 29.3308 30.4209 29.4408 30.3396 29.5269C30.0718 29.8188 29.8088 30.1154 29.5458 30.412C29.4597 30.5077 29.3402 30.5603 29.2158 30.5603V30.5555ZM30.8322 28.7902C30.7222 28.7902 30.6122 28.7471 30.5309 28.6706C30.4448 28.5893 30.397 28.4792 30.3922 28.3644C30.3922 28.2496 30.4305 28.1348 30.5118 28.0535C30.7843 27.7616 31.0665 27.4746 31.3438 27.1876C31.4299 27.1014 31.5399 27.0584 31.6594 27.0584C31.779 27.0584 31.8842 27.1014 31.9655 27.1828C32.0468 27.2641 32.0946 27.3741 32.0946 27.489C32.0946 27.6086 32.0516 27.7186 31.9703 27.7999C31.6929 28.0822 31.4156 28.3692 31.1478 28.6562C31.0665 28.7424 30.9469 28.795 30.8274 28.795L30.8322 28.7902ZM32.5011 27.0823C32.3815 27.0823 32.2715 27.0345 32.1902 26.9531C32.0181 26.7809 32.0229 26.5034 32.1902 26.3312C32.4389 26.0872 32.6876 25.8433 32.9362 25.6041L33.051 25.494C33.1323 25.4175 33.2423 25.3696 33.3523 25.3696C33.4622 25.3696 33.5866 25.4175 33.6679 25.5036C33.7492 25.5897 33.7922 25.6997 33.7922 25.8146C33.7922 25.9342 33.7444 26.0394 33.6583 26.1207L33.5435 26.2308C33.2949 26.47 33.051 26.7092 32.8071 26.9484C32.7258 27.0297 32.6158 27.0727 32.5011 27.0727V27.0823ZM34.2321 25.4318C34.1078 25.4318 33.993 25.3792 33.9118 25.2931C33.7492 25.1161 33.7587 24.8386 33.9357 24.6712C34.2321 24.3985 34.5286 24.1306 34.8251 23.8627C34.9064 23.7909 35.0068 23.7527 35.1168 23.7527C35.2411 23.7527 35.3607 23.8053 35.442 23.901C35.5185 23.9871 35.5568 24.1019 35.552 24.2167C35.5472 24.3315 35.4946 24.4415 35.4085 24.5181C35.112 24.7812 34.8203 25.0491 34.5286 25.317C34.4473 25.3936 34.3421 25.4318 34.2321 25.4318ZM36.0158 23.8388C35.8867 23.8388 35.7672 23.7861 35.6859 23.6857C35.5281 23.4991 35.5472 23.2216 35.7289 23.0685C36.035 22.8054 36.341 22.5471 36.647 22.2887C36.7236 22.2218 36.824 22.1883 36.9292 22.1883C37.0583 22.1883 37.1826 22.2457 37.2639 22.3462C37.4169 22.5327 37.393 22.8102 37.2065 22.9633C36.9005 23.2168 36.5992 23.4752 36.298 23.7335C36.2167 23.8005 36.1163 23.8388 36.011 23.8388H36.0158ZM37.8521 22.3079C37.7182 22.3079 37.5939 22.2505 37.5078 22.1452C37.3548 21.9587 37.3883 21.6812 37.5748 21.5281C37.8856 21.2745 38.2012 21.0258 38.5168 20.7818C38.5933 20.7244 38.689 20.6909 38.7846 20.6909C38.9185 20.6909 39.0476 20.7531 39.1289 20.8583C39.2006 20.9492 39.2341 21.064 39.2198 21.1836C39.2054 21.2985 39.148 21.4037 39.0524 21.4755C38.7416 21.7195 38.4307 21.9634 38.1199 22.2122C38.0434 22.2744 37.943 22.3079 37.8473 22.3079H37.8521ZM39.7362 20.8392C39.5975 20.8392 39.4684 20.7722 39.3871 20.6622C39.3202 20.5713 39.2867 20.4565 39.3058 20.3369C39.325 20.2173 39.3823 20.1168 39.478 20.0498C39.7984 19.8106 40.1236 19.5714 40.4487 19.337C40.5252 19.2844 40.6113 19.2557 40.707 19.2557C40.8456 19.2557 40.9795 19.3227 41.0608 19.4375C41.1278 19.5332 41.1565 19.648 41.1373 19.7628C41.1182 19.8776 41.056 19.9781 40.9604 20.0498C40.64 20.2795 40.3196 20.5187 40.004 20.7531C39.9275 20.8105 39.8366 20.8392 39.741 20.8392H39.7362ZM41.6729 19.4327C41.5295 19.4327 41.3956 19.3609 41.3143 19.2461C41.2473 19.1504 41.2234 19.0356 41.2425 18.916C41.2617 18.8012 41.3286 18.7008 41.4243 18.6338C41.7542 18.4041 42.0842 18.1745 42.4141 17.9544C42.4859 17.9066 42.5719 17.8779 42.658 17.8779C42.8063 17.8779 42.9401 17.9497 43.0214 18.074C43.0884 18.1697 43.1123 18.2845 43.0884 18.3994C43.0645 18.5142 43.0023 18.6146 42.9019 18.6816C42.5719 18.9017 42.2468 19.1265 41.9216 19.3562C41.8499 19.4088 41.759 19.4375 41.6729 19.4375V19.4327ZM43.6574 18.098C43.5092 18.098 43.3705 18.0214 43.2892 17.897C43.1553 17.6913 43.2175 17.4186 43.4183 17.2895C43.7531 17.0694 44.0926 16.8541 44.4321 16.6436C44.5039 16.6006 44.5804 16.5767 44.6617 16.5767C44.8147 16.5767 44.9534 16.6532 45.0347 16.7824C45.0968 16.8828 45.116 16.9977 45.092 17.1125C45.0634 17.2273 44.9964 17.323 44.896 17.3852C44.5612 17.5957 44.2265 17.8061 43.8918 18.0214C43.82 18.0693 43.7387 18.0932 43.6527 18.0932L43.6574 18.098Z" fill="#B0D1EC"/>
<path d="M53.5753 14.4524C53.3745 14.4524 53.188 14.3663 53.0493 14.2228C52.9106 14.0793 52.8389 13.8879 52.8389 13.687L52.8532 12.9216C52.8532 12.8498 52.8293 12.778 52.7767 12.7254C52.7289 12.6728 52.6572 12.6441 52.5854 12.6441L51.7964 12.6297C51.5956 12.6297 51.4091 12.5436 51.2704 12.4001C51.1317 12.2566 51.06 12.0652 51.06 11.8643C51.0696 11.4576 51.4043 11.1276 51.8108 11.1276L52.6141 11.1419C52.7672 11.1419 52.8867 11.0223 52.8915 10.874L52.9058 10.1086C52.9154 9.70192 53.2501 9.37183 53.6566 9.37183H53.7427C53.9435 9.37661 54.13 9.45794 54.2687 9.60146C54.4074 9.74498 54.4839 9.93634 54.4791 10.1373L54.4648 10.9027C54.4648 10.9745 54.4887 11.0462 54.5413 11.0941C54.5939 11.1419 54.6608 11.1754 54.7326 11.1754L55.5168 11.1897C55.9281 11.1993 56.258 11.5438 56.2532 11.9552C56.2437 12.3618 55.9089 12.6919 55.5025 12.6919L54.6991 12.6776C54.5461 12.6776 54.4265 12.7972 54.4217 12.9455L54.4074 13.7109C54.3978 14.1175 54.0631 14.4476 53.6566 14.4476H53.5705L53.5753 14.4524Z" fill="#B0D1EC"/>
<path d="M148.737 89.542C147.704 89.542 146.748 89.1354 146.035 88.3891C145.342 87.6667 144.973 86.7195 144.993 85.7196C145.012 84.7198 145.423 83.7869 146.145 83.0932C146.843 82.4234 147.766 82.0503 148.737 82.0503C149.77 82.0503 150.726 82.4569 151.439 83.1985C152.132 83.9208 152.5 84.8681 152.481 85.8679C152.462 86.8678 152.051 87.8007 151.329 88.4943C150.63 89.1641 149.708 89.5372 148.737 89.5372V89.542ZM148.732 82.9258C147.986 82.9258 147.283 83.208 146.748 83.7247C146.193 84.2557 145.882 84.9685 145.868 85.7388C145.853 86.5042 146.135 87.2314 146.666 87.7863C147.211 88.3556 147.948 88.6666 148.737 88.6666C149.483 88.6666 150.186 88.3843 150.721 87.8676C151.276 87.3366 151.587 86.6238 151.601 85.8584C151.616 85.0929 151.333 84.3658 150.803 83.8108C150.257 83.2415 149.521 82.9306 148.732 82.9306V82.9258Z" fill="#B0D1EC"/>
</g>
<defs>
<clipPath id="clip0_767_2872">
<rect width="161" height="132" fill="white" transform="translate(0.5)"/>
</clipPath>
</defs>
</svg>
