<svg width="636" height="386" viewBox="0 0 636 386" fill="none" xmlns="http://www.w3.org/2000/svg">
<g clip-path="url(#clip0_803_4510)">
<path d="M84.2767 383.838C84.2767 383.838 18.5334 308.701 45.9848 220.38C70.6239 141.111 182.029 89.8082 241.225 129.069C269.862 148.061 292.998 71.7246 388.04 43.7816C458.323 23.1158 562.249 69.4615 535.853 211.385C515.785 319.289 615.33 265.49 593.592 384.695L84.2767 383.838Z" fill="#EBF3FA"/>
<path d="M432.614 113.765C432.614 113.765 418.327 98.3491 430.791 87.7502C430.791 87.7502 439.959 81.7344 447.625 81.9057C447.625 81.9057 437.469 100.443 441.043 102.115C444.618 103.786 450.867 80.6444 450.867 80.6444C450.867 80.6444 472.137 77.7793 479.13 80.8157C479.13 80.8157 461.439 96.3975 465.318 97.1423C469.195 97.8846 488.358 82.5234 488.358 82.5234C488.358 82.5234 508.355 85.1523 507.749 97.2825C507.146 109.413 500.439 113.404 497.419 113.194C494.398 112.986 476.544 106.942 476.253 109.415C475.961 111.888 486.859 119.531 494.294 119.627C494.294 119.627 480.868 135.562 471.39 131.464C461.913 127.366 460.854 120.344 454.951 117.917C449.048 115.491 444.095 115.683 446.592 118.291C449.09 120.899 459.691 123.126 463.232 128.856C466.77 134.589 469.897 138.427 460.212 137.343C450.526 136.258 434.605 129.814 433.613 121.789L432.622 113.765H432.614Z" fill="#599DAD"/>
<path d="M497.996 97.9754C497.996 97.9754 443.951 97.9235 432.614 113.765C432.614 113.765 430.275 121.737 422.434 129.212L421.3 132.697C421.3 132.697 430.28 122.511 433.605 121.789C433.605 121.789 427.653 102.912 497.996 97.9728V97.9754Z" fill="#599DAD"/>
<path d="M422.434 129.214C422.434 129.214 411.172 138.194 410.943 153.493L413.053 153.602C413.053 153.602 416.159 137.675 422.614 131.252C429.068 124.826 422.437 129.214 422.437 129.214H422.434Z" fill="#599DAD"/>
<path d="M400.324 95.3931C400.324 95.3931 368.213 88.168 374.85 63.4873C374.85 63.4873 381.314 47.6252 391.346 41.067C391.346 41.067 394.736 73.9357 400.828 72.9288C406.921 71.9218 394.403 36.5773 394.403 36.5773C394.403 36.5773 419.263 14.0714 430.97 11.8005C430.97 11.8005 422.028 47.524 427.684 45.0507C433.34 42.5775 444.376 5.83669 444.376 5.83669C444.376 5.83669 472.475 -8.46307 482.48 7.70266C492.483 23.8684 487.392 34.9397 483.313 37.3429C479.233 39.7461 450.859 47.7524 452.682 51.1962C454.506 54.6401 475.339 54.8451 485.004 48.3986C485.004 48.3986 481.866 80.8079 466.012 83.9092C450.159 87.0105 442.552 78.903 432.788 80.9974C423.025 83.0917 416.815 87.7216 422.348 88.8713C427.884 90.021 443.522 83.5147 453.177 87.7683C462.831 92.0219 470.271 94.2019 456.826 101.373C443.382 108.543 417.14 114.323 408.729 104.858L400.321 95.3931H400.324Z" fill="#86D1CD"/>
<path d="M470.528 17.2168C470.528 17.2168 400.848 64.951 400.32 95.3931C400.32 95.3931 404.394 107.736 400.934 124.301L402.568 129.796C402.568 129.796 405.086 108.727 408.728 104.858C408.728 104.858 384.282 85.7985 470.525 17.2168H470.528Z" fill="#6BB7BF"/>
<path d="M400.937 124.301C400.937 124.301 394.407 145.832 407.712 165.747L410.527 164.022C410.527 164.022 400.37 140.753 402.977 126.767C405.584 112.779 400.94 124.299 400.94 124.299L400.937 124.301Z" fill="#6BB7BF"/>
<path d="M221.95 279.196C221.95 279.196 254.061 271.97 247.425 247.29C247.425 247.29 240.96 231.428 230.928 224.87C230.928 224.87 227.539 257.738 221.446 256.729C215.353 255.719 227.872 220.377 227.872 220.377C227.872 220.377 203.011 197.871 191.304 195.6C191.304 195.6 200.246 231.324 194.59 228.851C188.934 226.377 177.899 189.637 177.899 189.637C177.899 189.637 149.8 175.337 139.794 191.503C129.791 207.668 134.882 218.74 138.962 221.143C143.041 223.546 171.416 231.552 169.592 234.996C167.768 238.44 146.935 238.648 137.271 232.198C137.271 232.198 140.408 264.608 156.262 267.709C172.115 270.81 179.722 262.703 189.483 264.797C199.247 266.892 205.457 271.522 199.923 272.671C194.387 273.821 178.749 267.315 169.095 271.568C159.441 275.822 152 278.002 165.445 285.172C178.89 292.343 205.132 298.123 213.542 288.658L221.95 279.193V279.196Z" fill="#86D1CD"/>
<path d="M151.743 201.019C151.743 201.019 221.423 248.753 221.951 279.196C221.951 279.196 217.877 291.539 221.337 308.104L219.703 313.598C219.703 313.598 217.185 292.53 213.543 288.66C213.543 288.66 237.989 269.601 151.746 201.019H151.743Z" fill="#6BB7BF"/>
<path d="M221.334 308.101C221.334 308.101 227.864 329.631 214.56 349.547L211.745 347.821C211.745 347.821 221.902 324.555 219.295 310.567C216.688 296.581 221.334 308.099 221.334 308.099V308.101Z" fill="#6BB7BF"/>
<path d="M434.844 57.321H201.153V384.695H434.844V57.321Z" fill="#739AF0"/>
<path d="M426.633 66.3888H209.366V378.635H426.633V66.3888Z" fill="#DDEBFD"/>
<path d="M409.115 104.7H231.742V114.818H409.115V104.7Z" fill="#A8C3F7"/>
<path d="M409.115 166.464H231.742V171.107H409.115V166.464Z" fill="#A8C3F7"/>
<path d="M409.115 177.387H231.742V182.03H409.115V177.387Z" fill="#A8C3F7"/>
<path d="M409.115 188.31H231.742V192.953H409.115V188.31Z" fill="#A8C3F7"/>
<path d="M409.115 199.231H231.742V203.874H409.115V199.231Z" fill="#A8C3F7"/>
<path d="M409.115 210.155H231.742V214.797H409.115V210.155Z" fill="#A8C3F7"/>
<path d="M409.115 221.078H231.742V225.721H409.115V221.078Z" fill="#A8C3F7"/>
<path d="M283.682 284.513C283.682 292.052 277.555 298.167 269.995 298.167C262.435 298.167 256.309 292.055 256.309 284.513C256.309 276.972 262.435 270.86 269.995 270.86C277.555 270.86 283.682 276.972 283.682 284.513Z" fill="#A8C3F7"/>
<path d="M340.981 297.637C340.942 297.637 340.905 297.635 340.866 297.627C340.494 297.565 340.242 297.212 340.307 296.841C340.435 296.091 343.549 278.427 353.369 272.414C354.069 271.986 354.509 272.209 354.707 272.381C355.568 273.115 354.912 274.991 351.957 282.066C350.778 284.884 349.381 288.227 348.806 290.259C349.852 288.891 351.418 286.548 352.662 284.687C356.546 278.871 357.303 277.921 358.06 277.921C358.341 277.921 358.593 278.051 358.752 278.28C359.166 278.871 358.853 279.857 357.779 282.756C357.368 283.867 356.738 285.57 356.556 286.483C357.113 285.982 357.932 284.916 358.427 284.275C359.772 282.528 360.456 281.692 361.257 281.819C361.424 281.845 361.835 281.965 362.032 282.507C362.113 282.73 362.152 282.985 362.191 283.255C362.298 283.955 362.418 284.747 363.26 285.222C364.964 286.182 369.879 286.125 383.602 280.418C383.95 280.273 384.351 280.439 384.497 280.787C384.642 281.134 384.476 281.534 384.127 281.679C372.54 286.499 365.493 288.045 362.587 286.413C361.171 285.619 360.961 284.285 360.838 283.48C360.448 283.89 359.907 284.594 359.509 285.11C358.024 287.041 357.048 288.201 356.052 288.118C355.747 288.092 355.49 287.936 355.326 287.679C354.85 286.932 355.315 285.461 356.491 282.287C356.679 281.778 356.894 281.194 357.084 280.652C356.135 281.947 354.844 283.88 353.799 285.445C349.449 291.959 348.661 292.906 347.784 292.667C347.649 292.631 347.209 292.462 347.173 291.829C347.084 290.306 348.51 286.769 350.692 281.544C351.803 278.889 353.255 275.412 353.614 273.883C344.68 279.868 341.686 296.898 341.655 297.072C341.597 297.404 341.309 297.64 340.981 297.64V297.637Z" fill="#A8C3F7"/>
<path d="M369.187 52.0163H341.631C342.248 50.3891 342.589 48.627 342.589 46.7817C342.589 38.6119 335.95 31.9915 327.763 31.9915C319.576 31.9915 312.936 38.6145 312.936 46.7817C312.936 48.6244 313.277 50.3891 313.894 52.0163H286.338C284.122 52.0163 282.324 53.8096 282.324 56.0208V67.1258C282.324 69.3369 284.122 71.1303 286.338 71.1303H369.187C371.403 71.1303 373.201 69.3369 373.201 67.1258V56.0208C373.201 53.8096 371.403 52.0163 369.187 52.0163ZM327.763 52.2421C324.74 52.2421 322.289 49.7974 322.289 46.7817C322.289 43.7661 324.74 41.3214 327.763 41.3214C330.786 41.3214 333.236 43.7661 333.236 46.7817C333.236 49.7974 330.786 52.2421 327.763 52.2421Z" fill="#F99746"/>
<path d="M286.338 71.1303H369.186C371.403 71.1303 373.2 69.3369 373.2 67.1258V56.0208L286.338 71.1303Z" fill="#ED7D2B"/>
<path d="M65.0129 383.407C70.5359 377.778 80.2656 373.906 91.5043 373.449V356.858H72.115C71.6858 356.858 71.3008 356.484 71.0562 355.908C70.8871 355.503 70.7857 355 70.7857 354.455V353.617C70.7857 352.296 71.384 351.213 72.115 351.213H91.5043V304.87C91.5043 303.645 92.5085 302.644 93.7364 302.644C94.9643 302.644 95.9685 303.645 95.9685 304.87V351.213H115.358C116.089 351.213 116.687 352.296 116.687 353.617V354.455C116.687 355.018 116.578 355.537 116.398 355.947C116.154 356.503 115.779 356.858 115.358 356.858H95.9685V373.449C107.207 373.906 116.937 377.778 122.46 383.407C122.861 383.817 123.24 384.233 123.594 384.658H63.8838C64.2376 384.233 64.6174 383.815 65.0181 383.407H65.0129Z" fill="#D39E7A"/>
<path d="M91.5039 373.532C99.3449 374.257 106.085 378.033 109.985 383.407C110.282 383.817 110.563 384.233 110.825 384.658H116.351C116.088 384.233 115.81 383.815 115.511 383.407C111.158 377.41 103.273 373.405 94.2667 373.405C93.3328 373.405 92.4092 373.449 91.5039 373.532Z" fill="#E0B594"/>
<path d="M152.627 373.613C152.627 373.613 153.303 384.482 155.411 384.637C155.692 384.658 166.103 384.658 166.103 384.658L179.394 384.58C179.394 384.58 179.308 381.386 175.422 380.711C171.537 380.036 165.034 377.311 162.682 372.191C160.205 366.803 152.63 373.613 152.63 373.613H152.627Z" fill="#163560"/>
<path d="M99.99 293.752C101.887 296.963 104.082 299.97 106.343 302.82C113.333 311.623 120.943 318.882 122.27 325.744C122.532 327.111 122.951 328.583 123.497 330.135C124.052 331.708 124.736 333.358 125.524 335.068C128.49 341.497 132.928 348.699 137.356 355.246C145.012 366.564 151.279 374.158 151.279 374.158C151.279 374.158 153.288 375.72 159.029 375.718C160.627 375.718 166.007 374.843 166.007 374.843C165.478 373.522 159.128 358.498 151.422 339.4C148.295 331.648 144.968 323.4 141.758 315.448C141.331 314.387 140.902 313.328 140.48 312.28C139.499 309.845 138.534 307.45 137.59 305.117C130.355 287.184 124.595 272.905 124.595 272.905C124.595 272.905 95.6845 261.979 92.6797 269.059C90.203 274.895 92.2192 280.615 99.9848 293.75L99.99 293.752Z" fill="#233862"/>
<path d="M192.977 263.775H149.19V384.661H192.977V263.775Z" fill="#D39E7A"/>
<path d="M191.156 384.661H222.479L222.479 263.775H191.156V384.661Z" fill="#F2C7AA"/>
<path d="M191.46 261.338H146.22V263.775H191.46V261.338Z" fill="#AF7D5B"/>
<path d="M225.717 261.338H191.457V263.775H225.717V261.338Z" fill="#E2B291"/>
<path d="M145.533 245.068C145.533 245.068 151.808 248.626 153.564 248.626C155.32 248.626 162.214 247.298 164.136 248.276C166.059 249.254 169.537 253.197 170.19 254.484C171.363 256.799 165.466 255.776 162.677 253.804C162.274 253.518 161.769 253.412 161.285 253.516C159.841 253.83 156.842 254.375 155.393 253.84C153.444 253.121 143.184 252.322 143.184 252.322L145.533 245.066V245.068Z" fill="#ED975D"/>
<path d="M97.7969 196.597C97.7969 196.597 104.301 242.712 115.071 246.843C120.386 248.881 143.87 253.503 150.819 253.965C150.819 253.965 152.52 252.587 152.106 246.981C152.106 246.981 127.501 237.97 124.005 233.068C118.802 225.775 127.233 203.269 120.706 196.42C114.179 189.569 103.182 186.626 97.7969 196.597Z" fill="#82B378"/>
<path d="M122.051 342.564C122.051 342.564 112.867 348.45 113.757 350.362C113.877 350.617 118.95 359.684 118.95 359.684L125.495 371.223C125.495 371.223 128.25 369.59 126.947 365.877C125.643 362.163 124.858 355.171 128.193 350.624C131.702 345.841 122.048 342.561 122.048 342.561L122.051 342.564Z" fill="#163560"/>
<path d="M127.27 353.85C127.27 353.85 120.805 347.86 119.793 344.157C119.793 344.157 143.444 315.89 148.574 309.552C148.808 309.261 148.748 308.942 148.439 308.592C144.565 304.234 101.533 295.379 95.9087 286.649C93.9706 283.641 92.8727 280.786 92.2744 278.292C90.9996 272.967 92.0064 269.287 92.0064 269.287L134.984 268.046C134.984 268.046 170.765 290.272 174.818 305.428C178.869 320.582 127.268 353.85 127.268 353.85H127.27Z" fill="#2B478B"/>
<path d="M148.439 308.592C144.565 304.234 101.533 295.38 95.9088 286.649C93.9706 283.641 92.8728 280.786 92.2744 278.292V272.866L110.54 270.001C110.54 270.001 115.719 285.902 131.061 291.863C145.429 297.448 148.15 307.357 148.436 308.592H148.439Z" fill="#233862"/>
<path d="M123.224 193.69C114.53 195.933 100.117 187.898 100.117 187.898C100.117 187.898 105.713 184.145 107.787 175.903C107.893 175.487 107.987 175.062 108.073 174.626C108.983 174.434 110.7 174.07 112.537 173.681L119.176 179.616C119.176 179.616 119.025 182.082 118.195 186.317C118.052 187.057 117.886 187.848 117.696 188.694C121.26 190.898 123.224 193.693 123.224 193.693V193.69Z" fill="#FFB27D"/>
<path d="M90.9133 229.64C92.1595 246.348 90.5205 271.76 91.9331 276.162C93.1533 279.959 107.045 277.701 112.589 276.434C114.642 275.965 117.126 275.295 119.694 274.503C126.856 272.292 134.658 269.131 135.496 266.788C135.527 266.694 135.556 266.606 135.574 266.518C135.652 266.178 135.634 265.859 135.558 265.534C135.28 264.34 134.203 263.045 134.078 260.087C133.937 256.783 133.958 252.89 133.833 248.707C133.828 248.237 133.82 247.723 133.768 247.253V247.082C133.763 246.991 133.761 246.903 133.761 246.815C133.641 242.149 133.396 237.241 133.113 232.378C132.933 229.32 132.725 226.294 132.483 223.395C131.859 215.911 131.016 209.254 129.903 205.047C128.081 198.188 124.067 193.714 120.415 190.436L117.772 188.175C114.821 188.819 111.335 188.391 108.182 186.901C104.769 185.284 103.591 184.127 102.995 184.563C95.1122 190.631 89.4435 209.22 90.9133 229.647V229.64Z" fill="#A8D29F"/>
<path d="M119.695 274.501C126.857 272.29 134.659 269.129 135.496 266.785C135.528 266.692 135.556 266.604 135.574 266.515C135.569 266.188 135.567 265.861 135.559 265.532C135.28 264.338 134.203 263.043 134.078 260.084C133.938 256.781 133.959 252.888 133.834 248.704C133.829 248.234 133.821 247.721 133.769 247.251V247.08C133.764 246.989 133.761 246.9 133.761 246.812L104.809 210.017C104.809 210.017 85.3466 250.446 119.695 274.503V274.501Z" fill="#82B378"/>
<path d="M119.179 179.614C119.179 179.614 119.028 182.079 118.198 186.315C111.712 184.223 108.772 178.381 107.789 175.903C107.896 175.487 107.989 175.062 108.075 174.626C108.986 174.434 110.703 174.07 112.539 173.681L119.179 179.616V179.614Z" fill="#ED975D"/>
<path d="M120.05 183.348C120.05 183.348 105.909 180.994 107.514 172.23C109.119 163.469 108.375 157.261 117.472 158.395C126.57 159.527 127.707 163.191 127.884 166.246C128.061 169.3 123.771 183.735 120.05 183.348Z" fill="#FFB27D"/>
<path d="M151.027 259.186L186.343 259.181L195.94 228.228L197.194 228.614L187.048 261.338H151.012L151.027 259.186Z" fill="#1C468A"/>
<path d="M141.661 260.082C141.661 260.082 153.235 263.126 157.577 262.807C161.917 262.487 165.528 260.427 166.074 259.352C166.62 258.278 167.768 256.371 164.812 256.723C161.857 257.076 157.822 257.702 157.697 257.136C157.572 256.57 160.106 256.625 160.106 256.625C160.106 256.625 160.871 255.514 159.908 255.473C158.943 255.434 156.131 254.671 155.085 255.192C154.039 255.714 153.077 257.637 152.312 257.559C151.55 257.479 142.626 253.549 142.626 253.549L141.661 260.084V260.082Z" fill="#FFB27D"/>
<path d="M100.669 198.891C100.669 198.891 102.037 245.442 112.285 250.731C117.342 253.342 140.173 260.515 147.028 261.74C147.028 261.74 148.873 260.559 149.078 254.941C149.078 254.941 125.618 243.278 122.686 238.022C118.32 230.2 129.19 208.761 123.458 201.235C117.727 193.709 107.123 189.572 100.669 198.891Z" fill="#A8D29F"/>
<path d="M107.789 175.9C107.789 175.9 107.628 172.895 109.486 171.171C109.486 171.171 108.838 168.156 110.034 167.66C111.229 167.164 111.478 169.697 112.027 169.3C112.576 168.903 115.016 167.014 116.062 164.232C117.108 161.45 126.682 164.818 127.798 165.322C128.914 165.823 132.499 163.985 133.196 162.493C133.196 162.493 131.203 160.902 130.308 159.711C129.411 158.517 123.136 150.469 114.369 152.756C105.601 155.042 104.407 159.215 104.904 162.791C105.401 166.368 104.199 174.701 107.789 175.9Z" fill="#233862"/>
<path d="M124.073 287.744C110.781 287.744 97.6253 285.061 85.4007 279.855L77.4661 276.476C70.265 273.408 62.2627 278.679 62.2627 286.491V301.598C62.2627 303.067 63.4672 304.271 64.9423 304.271H124.073C125.545 304.271 126.752 303.069 126.752 301.598V290.417C126.752 288.949 125.548 287.744 124.073 287.744Z" fill="#912F2F"/>
<path d="M355.208 299.374C342.752 301.507 330.665 301.971 321.469 301.25C312.179 300.523 306.752 297.663 306.19 294.398C305.68 291.44 309.122 288.051 316.138 284.596C309.413 287.908 306.154 291.637 306.617 294.326C307.129 297.31 312.551 299.423 321.487 300.124C330.65 300.84 342.539 300.064 354.961 297.938C367.383 295.81 378.851 292.59 387.251 288.865C395.443 285.232 399.845 281.438 399.333 278.453C398.789 275.292 392.941 272.251 384.072 270.515C373.986 268.54 362.087 269.204 350.364 271.21C328.355 274.978 319.736 279.092 312.429 283.649C319.767 279.071 328.087 273.883 350.174 270.102C361.944 268.088 374.007 268.07 384.14 270.055C393.196 271.828 399.182 275.02 399.762 278.381C400.324 281.646 395.943 285.523 387.428 289.296C378.999 293.033 367.667 297.24 355.211 299.374H355.208Z" fill="#C65447"/>
<path d="M500.269 258.66C500.269 258.66 499.549 265.661 498.755 266.985C497.964 268.309 494.59 272.541 493.154 273.372C491.718 274.202 494.031 267.797 493.739 266.549C493.445 265.303 492.556 268.825 491.924 268.906C491.291 268.989 491.453 265.82 491.432 264.665C491.408 263.513 494.512 260.663 495.607 258.208C496.7 255.753 500.272 258.657 500.272 258.657L500.269 258.66Z" fill="#FFB27D"/>
<path d="M414.044 194.085L412.431 191.048C412.431 191.048 413.232 185.637 406.437 182.217C406.437 182.217 403.953 181.207 402.553 183.229C401.263 185.09 405.014 184.755 404.814 187.937C404.613 191.121 406.128 192.99 408.237 194.025L409.98 196.039L414.049 194.082L414.044 194.085Z" fill="#FFB27D"/>
<path d="M478.263 186.829C478.263 186.829 472.427 215.4 440.314 224.735C430.29 227.649 407.517 194.726 407.517 194.726C407.517 194.726 408.318 191.692 413.334 192.388C413.334 192.388 435.506 207.032 438.298 208.623C440.775 210.035 457.065 190.477 464.49 187.322C471.915 184.166 478.26 186.826 478.26 186.826L478.263 186.829Z" fill="#4A75CB"/>
<path d="M392.802 181.201L391.892 187.116L421.712 191.684L422.623 185.769L392.802 181.201Z" fill="#C65447"/>
<path d="M385.425 183.104L391.903 187.121L392.813 181.209L385.425 183.104Z" fill="#FFB27D"/>
<path d="M425.798 188.271L425.51 190.14C425.333 191.29 424.253 192.079 423.101 191.902L421.722 191.692L422.632 185.777L424.133 186.008C425.221 186.175 425.965 187.189 425.798 188.271Z" fill="#FFB27D"/>
<path d="M516.602 366.44C516.602 366.44 520.585 370.065 519.809 372.642C519.031 375.219 515.436 376.937 514.952 380.085C514.466 383.236 512.522 384.954 510.774 384.954H502.436C502.436 384.954 501.148 382.738 504.257 382.071C507.366 381.404 508.539 377.7 508.344 374.267C508.149 370.831 508.636 366.25 508.636 366.25L515.244 364.724L516.604 366.442L516.602 366.44Z" fill="#233862"/>
<path d="M467.727 375.822C467.727 375.822 468.442 384.074 466.694 384.933L444.311 384.887C444.311 384.887 444.311 382.31 447.906 381.736C451.501 381.163 457.818 379.063 458.884 374.386C459.954 369.71 467.727 375.819 467.727 375.819V375.822Z" fill="#233862"/>
<path d="M448.829 259.228C448.829 259.228 450.01 273.696 451.397 291.087C453.283 314.711 455.551 343.731 455.775 349.228C456.163 358.773 457.719 374.044 457.719 374.044C457.719 374.044 461.41 377.672 468.796 376.143C468.796 376.143 475.378 354.346 477.259 331.282C477.287 330.903 477.316 330.524 477.347 330.143C479.095 306.664 481.817 257.224 481.817 257.224L448.832 259.228H448.829Z" fill="#2B478B"/>
<path d="M448.829 259.228C448.829 259.228 450.01 273.696 451.397 291.087L477.259 331.282C477.287 330.903 477.316 330.524 477.347 330.143C479.095 306.664 481.817 257.224 481.817 257.224L448.832 259.228H448.829Z" fill="#233862"/>
<path d="M454.223 260.946C454.223 260.946 475.503 313.344 489.494 337.967C503.485 362.591 507.858 369.463 507.858 369.463C507.858 369.463 515.874 366.313 516.602 364.166C516.602 364.166 511.251 316.629 501.883 305.039C496.589 298.491 490.368 278.84 490.077 271.968C489.786 265.096 488.183 251.497 488.183 251.497L454.223 260.946Z" fill="#2B478B"/>
<path d="M482.218 180.198C482.218 180.198 467.821 187.127 459.52 184.555C459.52 184.555 461.562 181.983 465.139 180.071C464.853 178.41 464.629 176.967 464.501 175.744C464.15 172.921 464.15 171.322 464.15 171.322L469.705 166.965L474.973 162.794C474.556 174.522 482.221 180.198 482.221 180.198H482.218Z" fill="#FFB27D"/>
<path d="M489.806 254.18C489.837 255.057 487.953 256.062 487.124 256.438C480.963 259.134 475.216 261.016 468.705 261.644C461.012 262.428 451.912 260.702 448.785 260.767C448.465 260.767 448.179 260.642 447.924 260.422C447.7 260.263 447.541 251.014 447.7 239.38C447.7 238.91 447.7 238.437 447.731 237.968V237.812C447.796 233.265 447.955 228.498 448.179 223.733C448.626 213.258 449.456 203.16 450.861 197.581C452.552 190.996 456.384 186.636 459.862 183.47L462.734 180.961C465.606 181.526 468.64 181.368 471.673 179.894C474.993 178.295 478.567 176.57 479.142 177.008C483.484 180.174 486.421 187.293 487.985 196.387C488.88 201.624 489.327 207.487 489.293 213.635C489.293 215.893 489.228 218.213 489.101 220.502C488.336 232.92 489.101 243.706 489.548 249.947C489.676 251.767 489.772 253.178 489.803 254.18H489.806Z" fill="#699DEE"/>
<path d="M489.552 253.609C439.134 253.508 480.254 199.034 480.254 199.034L488.422 196.387C489.068 201.982 489.393 208.247 489.369 214.813C489.369 217.227 489.323 219.705 489.232 222.15C488.677 235.417 489.232 246.942 489.554 253.609H489.552Z" fill="#4A75CB"/>
<path d="M475.066 167.276C475.066 167.276 471.427 173.891 464.499 175.742C464.147 172.918 464.147 171.319 464.147 171.319L469.702 166.962L475.066 167.276Z" fill="#ED985F"/>
<path d="M461.616 171.13C461.616 171.13 475.352 173.372 476.64 164.948C477.93 156.524 480.571 151.141 471.856 149.353C463.14 147.565 460.94 150.529 459.813 153.236C458.687 155.945 458.075 170.328 461.613 171.127L461.616 171.13Z" fill="#FFB27D"/>
<path d="M481.632 148.346C481.757 148.204 482.043 148.089 482.683 148.053C482.683 148.053 482.17 147.734 481.489 147.718C481.353 146.831 480.882 145.258 479.35 144.877C479.35 144.877 480.172 145.315 480.281 146.257C478.507 144.441 474.706 143.117 464.181 143.945C450.309 145.037 454.88 153.898 456.675 154.954C458.47 156.01 462.992 153.114 466.337 153.379C469.683 153.643 470.32 158.468 471.455 159.13C472.589 159.791 472.144 158.621 473.679 157.928C475.214 157.235 475.362 159.773 474.917 161.424C474.472 163.074 476.585 165.252 476.585 165.252L478.718 162.96C480.851 160.669 482.86 150.965 481.892 148.897C481.806 148.712 481.723 148.528 481.634 148.344L481.632 148.346Z" fill="#2C3A64"/>
<path d="M479.137 176.938C479.137 176.938 487.826 181.044 491.994 187.355C498.456 197.145 505.948 232.821 506.086 236.125C506.224 239.429 500.618 262.752 500.618 262.752C500.618 262.752 494.931 262.379 493.464 259.516C493.464 259.516 494.601 235.552 493.88 234.01C493.159 232.468 470.175 201.863 472.758 195.331C475.344 188.798 479.134 176.936 479.134 176.936L479.137 176.938Z" fill="#699DEE"/>
<path d="M412.402 190.906C412.402 190.906 412.876 189.045 411.58 188.207C410.285 187.368 409.093 185.092 408.547 185.401C407.415 186.04 409.166 188.028 408.846 190.503C408.734 191.37 410.758 193.644 412.402 190.906Z" fill="#FFB27D"/>
<path d="M26.5203 386H609.48C609.766 386 610 385.699 610 385.33C610 384.962 609.766 384.661 609.48 384.661H26.5203C26.2341 384.661 26 384.962 26 385.33C26 385.699 26.2341 386 26.5203 386Z" fill="#283250"/>
</g>
<defs>
<clipPath id="clip0_803_4510">
<rect width="584" height="386" fill="white" transform="translate(26)"/>
</clipPath>
</defs>
</svg>
