<svg width="167" height="22" viewBox="0 0 167 22" fill="none" xmlns="http://www.w3.org/2000/svg">
<path d="M0.24 19.568V4.028C0.24 1.984 1.304 1.34 2.928 1.34H13.036C14.38 1.34 15.36 1.732 15.36 3.188C15.36 4.644 14.38 5.036 13.036 5.036H4.832V9.74H11.776C12.98 9.74 13.932 10.076 13.932 11.504C13.932 12.932 12.98 13.268 11.776 13.268H4.832V19.568C4.832 20.94 3.936 21.864 2.536 21.864C1.136 21.864 0.24 20.94 0.24 19.568ZM28.9337 14.948H19.6937C19.6937 17.104 21.0937 18.672 23.4737 18.672C26.5537 18.672 26.5537 16.656 28.2057 16.656C29.1857 16.656 29.8857 17.496 29.8857 18.252C29.8857 20.716 25.9377 21.864 23.4737 21.864C17.7617 21.864 15.6057 18 15.6057 14.444C15.6057 9.684 18.4897 6.492 23.3337 6.492C28.0377 6.492 30.7257 9.824 30.7257 13.184C30.7257 14.584 30.3057 14.948 28.9337 14.948ZM19.6937 12.596H26.8617C26.6377 10.72 25.2377 9.348 23.4177 9.348C21.3737 9.348 20.1417 10.608 19.6937 12.596ZM46.0782 14.948H36.8382C36.8382 17.104 38.2382 18.672 40.6182 18.672C43.6982 18.672 43.6982 16.656 45.3502 16.656C46.3302 16.656 47.0302 17.496 47.0302 18.252C47.0302 20.716 43.0822 21.864 40.6182 21.864C34.9062 21.864 32.7502 18 32.7502 14.444C32.7502 9.684 35.6342 6.492 40.4782 6.492C45.1822 6.492 47.8702 9.824 47.8702 13.184C47.8702 14.584 47.4502 14.948 46.0782 14.948ZM36.8382 12.596H44.0062C43.7822 10.72 42.3822 9.348 40.5622 9.348C38.5182 9.348 37.2862 10.608 36.8382 12.596ZM64.3707 3.02V19.932C64.3707 21.192 63.7827 21.864 62.5227 21.864C61.3187 21.864 60.6747 21.192 60.6747 19.932V19.288H60.6187C59.9467 21.024 58.2947 21.864 56.3067 21.864C52.8907 21.864 49.8947 19.372 49.8947 14.08C49.8947 10.16 51.8827 6.492 56.1947 6.492C58.0147 6.492 59.4147 7.248 60.2267 8.564H60.2827V3.02C60.2827 1.676 61.0947 0.975999 62.3267 0.975999C63.5587 0.975999 64.3707 1.676 64.3707 3.02ZM53.9827 14.22C53.9827 16.628 55.0467 18.616 57.2307 18.672C59.6107 18.672 60.5067 16.544 60.5067 14.22C60.5067 12.12 59.7227 9.656 57.2307 9.684C54.6267 9.684 53.9827 12.316 53.9827 14.22Z" fill="#006AC3"/>
<path d="M83.4105 8.956L87.2465 9.824C91.4465 10.776 92.5105 13.268 92.5105 15.62C92.5105 19.26 89.7665 21.976 84.2225 21.976C78.3985 21.976 75.7945 19.064 75.7945 16.88C75.7945 15.76 76.6065 14.976 77.7265 14.976C80.2185 14.976 79.5745 18.616 84.2225 18.616C86.6025 18.616 87.9185 17.3 87.9185 15.956C87.9185 15.144 87.5265 14.248 85.9585 13.856L80.7785 12.54C76.6065 11.476 75.8505 9.18 75.8505 7.024C75.8505 2.544 79.9945 0.863999 83.8865 0.863999C87.4705 0.863999 91.6985 2.88 91.6985 5.568C91.6985 6.716 90.7185 7.388 89.5985 7.388C87.4705 7.388 87.8625 4.392 83.5785 4.392C81.4505 4.392 80.2745 5.372 80.2745 6.772C80.2745 8.172 81.9545 8.62 83.4105 8.956ZM94.5705 14.472C94.5705 9.768 97.2305 6.492 102.242 6.492C105.658 6.492 108.206 8.424 108.206 10.328C108.206 11.504 107.338 12.092 106.302 12.092C104.37 12.092 105.07 9.684 102.13 9.684C100.534 9.684 98.6585 10.776 98.6585 14.472C98.6585 17.02 99.8625 18.672 102.102 18.672C104.958 18.672 104.342 16.04 106.498 16.04C107.534 16.04 108.206 16.796 108.206 17.608C108.206 19.4 106.19 21.864 101.99 21.864C96.9505 21.864 94.5705 18.756 94.5705 14.472ZM110.394 19.82V3.02C110.394 1.676 111.206 0.975999 112.438 0.975999C113.67 0.975999 114.482 1.676 114.482 3.02V8.648H114.538C115.35 7.584 116.778 6.492 119.102 6.492C121.566 6.492 124.254 7.724 124.254 11.868V19.82C124.254 20.912 123.806 21.864 122.21 21.864C120.614 21.864 120.166 20.912 120.166 19.82V12.68C120.166 11.028 119.354 9.852 117.59 9.852C116.162 9.852 114.482 11.028 114.482 13.072V19.82C114.482 20.912 114.034 21.864 112.438 21.864C110.842 21.864 110.394 20.912 110.394 19.82ZM130.983 14.164C130.983 16.656 132.019 18.84 134.455 18.84C136.891 18.84 137.927 16.656 137.927 14.164C137.927 11.504 136.835 9.516 134.455 9.516C132.075 9.516 130.983 11.504 130.983 14.164ZM126.895 14.164C126.895 9.852 129.527 6.492 134.455 6.492C139.383 6.492 142.015 9.852 142.015 14.164C142.015 18.252 140.027 21.864 134.455 21.864C128.883 21.864 126.895 18.252 126.895 14.164ZM148.127 14.164C148.127 16.656 149.163 18.84 151.599 18.84C154.035 18.84 155.071 16.656 155.071 14.164C155.071 11.504 153.979 9.516 151.599 9.516C149.219 9.516 148.127 11.504 148.127 14.164ZM144.039 14.164C144.039 9.852 146.671 6.492 151.599 6.492C156.527 6.492 159.159 9.852 159.159 14.164C159.159 18.252 157.171 21.864 151.599 21.864C146.027 21.864 144.039 18.252 144.039 14.164ZM162.024 19.82V3.02C162.024 1.676 162.836 0.975999 164.068 0.975999C165.3 0.975999 166.112 1.676 166.112 3.02V19.82C166.112 21.164 165.3 21.864 164.068 21.864C162.836 21.864 162.024 21.164 162.024 19.82Z" fill="#6BBF59"/>
</svg>
