<svg width="34" height="22" viewBox="0 0 34 22" fill="none" xmlns="http://www.w3.org/2000/svg">
<path d="M0.24 19.068V3.528C0.24 1.484 1.304 0.839999 2.928 0.839999H13.036C14.38 0.839999 15.36 1.232 15.36 2.688C15.36 4.144 14.38 4.536 13.036 4.536H4.832V9.24H11.776C12.98 9.24 13.932 9.576 13.932 11.004C13.932 12.432 12.98 12.768 11.776 12.768H4.832V19.068C4.832 20.44 3.936 21.364 2.536 21.364C1.136 21.364 0.24 20.44 0.24 19.068Z" fill="#006AC3"/>
<path d="M24.4847 8.456L28.3207 9.324C32.5207 10.276 33.5847 12.768 33.5847 15.12C33.5847 18.76 30.8407 21.476 25.2967 21.476C19.4727 21.476 16.8687 18.564 16.8687 16.38C16.8687 15.26 17.6807 14.476 18.8007 14.476C21.2927 14.476 20.6487 18.116 25.2967 18.116C27.6767 18.116 28.9927 16.8 28.9927 15.456C28.9927 14.644 28.6007 13.748 27.0327 13.356L21.8527 12.04C17.6807 10.976 16.9247 8.68 16.9247 6.524C16.9247 2.044 21.0687 0.363999 24.9607 0.363999C28.5447 0.363999 32.7727 2.38 32.7727 5.068C32.7727 6.216 31.7927 6.888 30.6727 6.888C28.5447 6.888 28.9367 3.892 24.6527 3.892C22.5247 3.892 21.3487 4.872 21.3487 6.272C21.3487 7.672 23.0287 8.12 24.4847 8.456Z" fill="#6BBF59"/>
</svg>
