<svg width="38" height="36" viewBox="0 0 38 36" fill="none" xmlns="http://www.w3.org/2000/svg">
<g clip-path="url(#clip0_990_11982)">
<path d="M33.4155 12.0817C33.81 10.9172 33.8766 9.62904 33.5343 8.35516C32.6122 4.91852 29.0805 2.87935 25.6438 3.79674C24.9594 3.98212 24.3367 4.26731 23.7758 4.63807C21.7414 2.02375 18.2667 0.73561 14.8633 1.64824C11.46 2.56088 9.09758 5.41286 8.64126 8.69264C7.97105 8.65461 7.28657 8.71641 6.6021 8.89703C3.16546 9.81917 1.12629 13.3509 2.04368 16.7875C2.38592 18.0614 3.0894 19.1452 4.01155 19.9532C3.48868 20.8563 3.31281 21.9544 3.60276 23.0381C4.18266 25.2056 6.41196 26.489 8.57472 25.9091C9.97219 25.5336 10.9989 24.4736 11.3982 23.1902C13.2662 26.2181 15.0059 29.745 16.508 34.1846C18.9607 34.5459 21.2898 34.427 23.4858 33.8376C25.6866 33.2482 27.7591 32.1835 29.7032 30.6482C28.7858 26.0517 28.5291 22.1302 28.6337 18.5748C29.6223 19.4874 31.0436 19.8914 32.4363 19.5159C34.6038 18.936 35.8872 16.7067 35.3073 14.544C35.0173 13.4602 34.3139 12.5951 33.4107 12.077L33.4155 12.0817Z" stroke="#47200E" stroke-width="2.41943" stroke-linejoin="round"/>
<path d="M18.4045 14.8767L7.59552 17.7715C10.8896 21.9876 14.022 26.8455 16.508 34.1894C18.9607 34.5506 21.2898 34.4318 23.4858 33.8424C25.6866 33.253 27.759 32.1882 29.7031 30.6529C28.1868 23.0476 28.4673 17.2771 29.2135 11.9772L18.4045 14.8719V14.8767Z" fill="#B9D53C"/>
<g style="mix-blend-mode:multiply">
<path d="M23.4906 33.8471C25.6913 33.2577 27.7638 32.193 29.7079 30.6577C28.1916 23.0524 28.472 17.2819 29.2183 11.9819L23.8138 13.4317C23.8138 13.4317 27.7115 24.0553 23.4906 33.8519V33.8471Z" fill="#B9D53C"/>
</g>
<path d="M14.4926 13.4602C15.4147 16.8968 13.3755 20.4285 9.93415 21.3507C6.49751 22.2728 2.96581 20.2336 2.04366 16.7922C1.12152 13.3556 3.16069 9.8239 6.60208 8.90176C10.0387 7.97962 13.5704 10.0188 14.4926 13.4602Z" fill="#51A245"/>
<mask id="mask0_990_11982" style="mask-type:luminance" maskUnits="userSpaceOnUse" x="1" y="8" width="14" height="14">
<path d="M14.4926 13.4602C15.4147 16.8968 13.3755 20.4285 9.93415 21.3507C6.49751 22.2728 2.96581 20.2336 2.04366 16.7922C1.12152 13.3556 3.16069 9.8239 6.60208 8.90176C10.0387 7.97962 13.5704 10.0188 14.4926 13.4602Z" fill="white"/>
</mask>
<g mask="url(#mask0_990_11982)">
<g style="mix-blend-mode:multiply">
<path d="M6.59733 8.90182C8.68403 7.40928 11.7879 7.76578 13.8128 9.40092C17.3445 12.0438 17.5632 17.743 14.3595 20.7566C11.5978 23.6941 5.98415 23.6418 4.00677 19.9628C6.22181 20.7898 8.23721 20.5997 9.75352 19.7869C12.8099 18.2183 13.7083 14.3729 11.6739 11.6064C10.6709 10.2042 8.94546 9.14899 6.59257 8.90182H6.59733Z" fill="#51A245"/>
</g>
</g>
<path d="M11.4457 20.9466C12.0256 23.1141 10.7422 25.3387 8.57469 25.9186C6.40719 26.4985 4.18264 25.2151 3.60274 23.0476C3.02283 20.8801 4.30623 18.6555 6.47373 18.0756C8.64124 17.4957 10.8658 18.7791 11.4457 20.9466Z" fill="#51A245"/>
<mask id="mask1_990_11982" style="mask-type:luminance" maskUnits="userSpaceOnUse" x="3" y="17" width="9" height="10">
<path d="M11.4457 20.9466C12.0256 23.1141 10.7422 25.3387 8.57469 25.9186C6.40719 26.4985 4.18264 25.2151 3.60274 23.0476C3.02283 20.8801 4.30623 18.6555 6.47373 18.0756C8.64124 17.4957 10.8658 18.7791 11.4457 20.9466Z" fill="white"/>
</mask>
<g mask="url(#mask1_990_11982)">
<g style="mix-blend-mode:multiply">
<path d="M6.47374 18.0757C7.96153 16.6924 10.5901 17.144 11.9638 18.589C13.1759 19.7773 13.7178 21.6692 13.3613 23.3613C12.5912 27.5918 6.83499 29.3933 4.21117 25.776C3.63127 24.9394 3.3936 23.9317 3.60275 23.0476C4.83385 24.3643 6.18379 24.6542 7.19624 24.4926C8.53192 24.293 9.60617 23.195 9.725 21.8498C9.78204 20.0245 8.77909 18.6698 6.47374 18.0709V18.0757Z" fill="#51A245"/>
</g>
</g>
<path d="M35.312 14.5534C35.8919 16.721 34.6085 18.9455 32.441 19.5254C30.2735 20.1053 28.049 18.8219 27.4691 16.6544C26.8892 14.4869 28.1726 12.2624 30.3401 11.6824C32.5076 11.1025 34.7321 12.3859 35.312 14.5534Z" fill="#51A245"/>
<mask id="mask2_990_11982" style="mask-type:luminance" maskUnits="userSpaceOnUse" x="27" y="11" width="9" height="9">
<path d="M35.312 14.5534C35.8919 16.721 34.6085 18.9455 32.441 19.5254C30.2735 20.1053 28.049 18.8219 27.4691 16.6544C26.8892 14.4869 28.1726 12.2624 30.3401 11.6824C32.5076 11.1025 34.7321 12.3859 35.312 14.5534Z" fill="white"/>
</mask>
<g mask="url(#mask2_990_11982)">
<g style="mix-blend-mode:multiply">
<path d="M30.3353 11.6777C31.8231 10.2945 34.4517 10.7461 35.8254 12.1911C37.0375 13.3794 37.5793 15.2712 37.2228 16.9634C36.4528 21.1938 30.6966 22.9953 28.0727 19.3781C27.4928 18.5415 27.2552 17.5338 27.4643 16.6497C28.6954 17.9663 30.0454 18.2563 31.0578 18.0947C32.3935 17.895 33.4677 16.797 33.5866 15.4518C33.6436 13.6266 32.6407 12.2719 30.3353 11.673V11.6777Z" fill="#51A245"/>
</g>
</g>
<path d="M33.5343 8.35513C34.4565 11.7918 32.4173 15.3235 28.9759 16.2456C25.5393 17.1678 22.0076 15.1286 21.0854 11.6872C20.1633 8.25056 22.2024 4.71886 25.6438 3.79672C29.0805 2.87458 32.6122 4.91374 33.5343 8.35513Z" fill="#51A245"/>
<mask id="mask3_990_11982" style="mask-type:luminance" maskUnits="userSpaceOnUse" x="20" y="3" width="14" height="14">
<path d="M33.5343 8.35513C34.4565 11.7918 32.4173 15.3235 28.9759 16.2456C25.5393 17.1678 22.0076 15.1286 21.0854 11.6872C20.1633 8.25056 22.2024 4.71886 25.6438 3.79672C29.0805 2.87458 32.6122 4.91374 33.5343 8.35513Z" fill="white"/>
</mask>
<g mask="url(#mask3_990_11982)">
<g style="mix-blend-mode:multiply">
<path d="M25.6438 3.80151C28.1536 2.16637 31.6758 2.99345 33.6389 5.16571C36.5289 8.19356 36.1676 13.4032 33.04 16.1363C30.1024 18.8837 24.9784 18.7839 22.4306 15.5897C21.537 14.4822 21.0093 13.08 21.0902 11.6872C23.2006 14.7864 26.4566 15.699 29.3419 14.1304C34.2758 10.9457 31.5427 3.99639 25.6438 3.79676V3.80151Z" fill="#51A245"/>
</g>
</g>
<path d="M24.601 13.7979C26.7746 9.63477 25.1619 4.49777 20.9987 2.32411C16.8356 0.150449 11.6986 1.76324 9.52491 5.92638C7.35124 10.0895 8.96404 15.2265 13.1272 17.4002C17.2903 19.5738 22.4273 17.9611 24.601 13.7979Z" fill="#51A245"/>
<mask id="mask4_990_11982" style="mask-type:luminance" maskUnits="userSpaceOnUse" x="8" y="1" width="18" height="18">
<path d="M24.601 13.7979C26.7746 9.63477 25.1619 4.49777 20.9987 2.32411C16.8356 0.150449 11.6986 1.76324 9.52491 5.92638C7.35124 10.0895 8.96404 15.2265 13.1272 17.4002C17.2903 19.5738 22.4273 17.9611 24.601 13.7979Z" fill="white"/>
</mask>
<g mask="url(#mask4_990_11982)">
<g style="mix-blend-mode:multiply">
<path d="M14.8633 1.65297C17.278 0.317296 20.3724 0.531195 22.7633 1.91441C27.2932 4.45742 28.7572 10.67 26.1239 15.1001C23.02 20.5996 15.0772 21.8117 10.823 16.9871C9.62994 15.6134 8.88368 13.8595 8.8504 12.0722C10.9514 15.7703 14.5544 17.3817 18.1621 16.5546C20.7099 15.9271 22.8109 13.9117 23.4573 11.3592C24.7264 6.16861 20.496 1.50562 14.8586 1.65773L14.8633 1.65297Z" fill="#51A245"/>
</g>
</g>
<path d="M18.1384 21.8593C18.5424 23.3709 17.6488 24.9205 16.1372 25.3245C14.6257 25.7285 13.0761 24.8349 12.6721 23.3234C12.268 21.8118 13.1617 20.2622 14.6732 19.8582C16.1848 19.4542 17.7343 20.3478 18.1384 21.8593Z" fill="#010101"/>
<path d="M15.0962 21.4458C15.2388 21.9781 14.9251 22.5248 14.3927 22.6674C13.8604 22.81 13.3137 22.4962 13.1711 21.9639C13.0285 21.4315 13.3423 20.8849 13.8746 20.7423C14.407 20.5997 14.9536 20.9134 15.0962 21.4458Z" fill="white"/>
<path d="M16.3131 20.5997C16.3844 20.8659 16.2275 21.1416 15.9614 21.2129C15.6952 21.2842 15.4195 21.1273 15.3482 20.8611C15.2769 20.595 15.4337 20.3193 15.6999 20.248C15.9661 20.1767 16.2418 20.3335 16.3131 20.5997Z" fill="white"/>
<path d="M27.5974 19.3258C28.0015 20.8373 27.1078 22.3869 25.5963 22.7909C24.0847 23.195 22.5352 22.3013 22.1311 20.7898C21.7271 19.2782 22.6207 17.7287 24.1323 17.3246C25.6438 16.9206 27.1934 17.8142 27.5974 19.3258Z" fill="#010101"/>
<path d="M24.5553 18.9075C24.6979 19.4399 24.3842 19.9865 23.8518 20.1291C23.3195 20.2717 22.7728 19.958 22.6302 19.4256C22.4876 18.8932 22.8014 18.3466 23.3337 18.204C23.8661 18.0614 24.4127 18.3751 24.5553 18.9075Z" fill="white"/>
<path d="M25.7722 18.0661C25.8435 18.3323 25.6866 18.608 25.4204 18.6793C25.1543 18.7506 24.8786 18.5938 24.8073 18.3276C24.736 18.0614 24.8928 17.7857 25.159 17.7144C25.4252 17.6431 25.7009 17.8 25.7722 18.0661Z" fill="white"/>
<path d="M23.3717 25.2151C23.676 26.3464 23.0057 27.511 21.8744 27.8105C20.7432 28.1147 19.5786 27.4444 19.2791 26.3132L23.3765 25.2151H23.3717Z" fill="#EF486C"/>
<path d="M23.3717 25.2151C23.676 26.3464 23.0057 27.511 21.8744 27.8105C20.7432 28.1147 19.5786 27.4444 19.2791 26.3132L23.3765 25.2151H23.3717Z" stroke="#010101" stroke-width="0.651203" stroke-miterlimit="10" stroke-linecap="round"/>
<path d="M16.6221 28.281C16.7932 28.9275 16.1372 29.6642 15.1533 29.9304C14.1693 30.1918 13.2329 29.8829 13.0571 29.2364C12.8812 28.59 13.5419 27.8532 14.5258 27.587C15.5098 27.3256 16.4462 27.6346 16.6221 28.281Z" fill="#F599B0"/>
<path d="M30.2118 24.64C30.3829 25.2864 29.7269 26.0232 28.743 26.2894C27.7591 26.5508 26.8227 26.2418 26.6468 25.5954C26.4709 24.9489 27.1316 24.2122 28.1156 23.946C29.0995 23.6845 30.0359 23.9935 30.2118 24.64Z" fill="#F599B0"/>
<path d="M13.4754 9.41036C14.1361 9.23448 14.811 9.62426 14.9869 10.285C15.1628 10.9457 14.773 11.6206 14.1123 11.7965C13.4516 11.9724 12.7766 11.5826 12.6008 10.9219C12.4249 10.2612 12.8147 9.58623 13.4754 9.41036Z" fill="#B9D53C"/>
<path d="M11.5788 7.20488C12.0589 7.07654 12.5532 7.36174 12.6816 7.84182C12.8099 8.3219 12.5247 8.81625 12.0446 8.94459C11.5646 9.07293 11.0702 8.78773 10.9419 8.30764C10.8135 7.82756 11.0987 7.33322 11.5788 7.20488Z" fill="#B9D53C"/>
<path d="M14.1361 7.10976C14.4641 7.01945 14.8063 7.21909 14.8919 7.54707C14.9822 7.87505 14.7825 8.21728 14.4546 8.30284C14.1266 8.39316 13.7843 8.19352 13.6988 7.86554C13.6085 7.53756 13.8081 7.19532 14.1361 7.10976Z" fill="#B9D53C"/>
<g style="mix-blend-mode:multiply">
<path d="M19.2744 31.2423C19.7735 31.1092 20.2868 31.4039 20.4199 31.903C20.553 32.4021 20.2583 32.9154 19.7592 33.0485C19.2601 33.1816 18.7468 32.8869 18.6137 32.3878C18.4806 31.8887 18.7753 31.3754 19.2744 31.2423Z" fill="#B9D53C"/>
<path d="M17.8389 29.5739C18.2002 29.4788 18.5757 29.6927 18.6708 30.054C18.7658 30.4152 18.5519 30.7907 18.1907 30.8858C17.8294 30.9809 17.4539 30.767 17.3588 30.4057C17.2638 30.0445 17.4777 29.669 17.8389 29.5739Z" fill="#B9D53C"/>
<path d="M19.7783 29.4978C20.0254 29.4313 20.2821 29.5786 20.3534 29.8306C20.42 30.0825 20.2726 30.3344 20.0207 30.4057C19.7688 30.4723 19.5168 30.3249 19.4455 30.073C19.379 29.8258 19.5263 29.5691 19.7783 29.4978Z" fill="#B9D53C"/>
</g>
<g style="mix-blend-mode:multiply">
<path d="M19.8068 13.7501C19.3267 13.5362 19.108 12.9753 19.3219 12.4952C19.5358 12.0152 20.0967 11.7965 20.5768 12.0104C21.0569 12.2243 21.2755 12.7852 21.0616 13.2653C20.8477 13.7454 20.2869 13.964 19.8068 13.7501Z" fill="#51A245"/>
<path d="M21.6701 11.8821C21.4276 11.7776 21.3231 11.4971 21.4276 11.2547C21.5322 11.0123 21.8127 10.9077 22.0551 11.0123C22.2975 11.1168 22.4021 11.3973 22.2975 11.6397C22.1929 11.8821 21.9125 11.9867 21.6701 11.8821Z" fill="#51A245"/>
</g>
<g style="mix-blend-mode:multiply">
<path d="M28.144 7.53281C28.6431 7.39971 29.1565 7.69442 29.2896 8.19352C29.4227 8.69261 29.128 9.20597 28.6289 9.33906C28.1298 9.47215 27.6164 9.17745 27.4833 8.67835C27.3502 8.17926 27.6449 7.6659 28.144 7.53281Z" fill="#51A245"/>
<path d="M26.7086 5.86442C27.0698 5.76936 27.4453 5.98326 27.5404 6.34451C27.6354 6.70576 27.4215 7.08127 27.0603 7.17633C26.699 7.2714 26.3235 7.0575 26.2285 6.69625C26.1334 6.335 26.3473 5.95949 26.7086 5.86442Z" fill="#51A245"/>
<path d="M28.6431 5.78837C28.8903 5.72182 29.147 5.86917 29.2183 6.1211C29.2848 6.36827 29.1375 6.62495 28.8855 6.69625C28.6336 6.76279 28.3817 6.61544 28.3104 6.36352C28.2439 6.11634 28.3912 5.85967 28.6431 5.78837Z" fill="#51A245"/>
</g>
<path d="M5.48984 15.1286C5.77979 14.7626 6.31692 14.7008 6.68292 14.9955C7.04892 15.2855 7.11072 15.8226 6.81601 16.1886C6.52606 16.5546 5.98894 16.6164 5.62293 16.3217C5.25693 16.0318 5.19514 15.4946 5.48984 15.1286Z" fill="#B9D53C"/>
<path d="M3.54573 14.6866C3.75963 14.4204 4.14465 14.3776 4.41558 14.5867C4.68177 14.8006 4.72455 15.1857 4.5154 15.4566C4.30626 15.7275 3.91649 15.7656 3.64555 15.5564C3.37936 15.3425 3.33658 14.9575 3.54573 14.6866Z" fill="#B9D53C"/>
</g>
<defs>
<clipPath id="clip0_990_11982">
<rect width="36.7193" height="35.4549" fill="white" transform="translate(0.612915 0.15094)"/>
</clipPath>
</defs>
</svg>
