<svg width="14" height="19" viewBox="0 0 14 19" fill="none" xmlns="http://www.w3.org/2000/svg">
<g clip-path="url(#clip0_990_12138)">
<path d="M5.88998 10.1601C8.20998 10.7801 9.58998 13.1701 8.96998 15.4901C8.34998 17.8101 5.95998 19.1901 3.63998 18.5701C1.31998 17.9501 -0.0600163 15.5601 0.559984 13.2401C1.17998 10.9201 3.56998 9.54008 5.88998 10.1601Z" fill="#C5D52D"/>
<path d="M3.99003 0.109967C5.68003 0.559967 6.68003 2.29997 6.23003 3.98997C5.78003 5.67997 4.04003 6.67997 2.35003 6.22997C0.660028 5.76997 -0.339972 4.03997 0.110028 2.34997C0.560028 0.659967 2.30003 -0.340033 3.99003 0.109967Z" fill="#C5D52D"/>
<path d="M11.96 4.31002C13.12 4.62002 13.81 5.81002 13.5 6.97002C13.19 8.13002 12 8.82002 10.84 8.51002C9.68001 8.20002 8.99001 7.01002 9.30001 5.85002C9.61001 4.69002 10.8 4.00002 11.96 4.31002Z" fill="#C5D52D"/>
</g>
<defs>
<clipPath id="clip0_990_12138">
<rect width="13.58" height="18.72" fill="white"/>
</clipPath>
</defs>
</svg>
