<svg width="43" height="38" viewBox="0 0 43 38" fill="none" xmlns="http://www.w3.org/2000/svg">
<g clip-path="url(#clip0_990_11837)">
<path d="M36.6799 15.1318C36.87 14.6945 37.0316 14.2381 37.1599 13.7581C38.5431 8.59597 35.4773 3.28653 30.3152 1.90332C26.6409 0.919386 22.8953 2.18852 20.5424 4.85987C19.7628 4.45109 18.931 4.11836 18.0422 3.88069C11.5539 2.15049 4.88026 6.00067 3.1453 12.4889C1.63375 18.1216 4.33838 23.8873 9.32459 26.4494C9.08693 30.1142 11.4493 33.5556 15.1331 34.5443C18.1182 35.3428 21.1556 34.3066 23.0664 32.1343C24.0361 32.7855 25.1293 33.2941 26.3224 33.6126C32.1547 35.1764 38.1439 31.716 39.7077 25.8837C40.782 21.8815 39.4843 17.8031 36.6846 15.1318H36.6799Z" fill="white"/>
<mask id="mask0_990_11837" style="mask-type:luminance" maskUnits="userSpaceOnUse" x="2" y="1" width="39" height="34">
<path d="M36.6799 15.1318C36.87 14.6945 37.0316 14.2381 37.1599 13.7581C38.5431 8.59597 35.4773 3.28653 30.3152 1.90332C26.6409 0.919386 22.8953 2.18852 20.5424 4.85987C19.7628 4.45109 18.931 4.11836 18.0422 3.88069C11.5539 2.15049 4.88026 6.00067 3.1453 12.4889C1.63375 18.1216 4.33838 23.8873 9.32459 26.4494C9.08693 30.1142 11.4493 33.5556 15.1331 34.5443C18.1182 35.3428 21.1556 34.3066 23.0664 32.1343C24.0361 32.7855 25.1293 33.2941 26.3224 33.6126C32.1547 35.1764 38.1439 31.716 39.7077 25.8837C40.782 21.8815 39.4843 17.8031 36.6846 15.1318H36.6799Z" fill="white"/>
</mask>
<g mask="url(#mask0_990_11837)">
<path d="M18.0422 3.89021C10.936 2.88726 4.20529 8.47239 4.68062 15.6119C4.87551 19.2481 7.21413 22.7275 10.4701 24.2201L11.8676 24.8713L11.8248 26.6158C11.7583 28.7975 13.1463 30.9603 15.1902 31.7113C17.2008 32.5384 19.5775 31.9395 21.013 30.3328L22.6291 28.5503C24.0123 29.4582 25.6902 30.7939 27.3634 31.0744C35.9336 32.9662 41.3143 22.7276 35.5628 16.3058L34.7167 15.3599C36.195 13.0261 36.6751 10.117 35.6722 7.4742C34.7785 4.99773 32.8012 2.95381 30.3104 1.90808C33.9942 2.33588 37.198 5.21163 38.3245 8.75759C39.0327 11.0344 38.9805 13.5299 38.1581 15.7782L37.7921 13.9625C42.8972 18.1834 43.653 26.1547 39.5699 31.4023C35.5723 36.9352 27.1637 38.2994 21.5406 34.4017L25.1103 33.9358C22.2536 37.3012 17.1676 38.4895 13.1272 36.7023C9.04891 35.0434 6.41082 30.6466 6.81486 26.283L8.16955 28.6787C0.0509046 24.3342 -1.86468 12.9833 4.85649 6.57107C8.27412 3.23425 13.6501 2.02216 18.0374 3.89021H18.0422Z" fill="#FED8AC"/>
</g>
<path d="M36.6799 15.1318C36.87 14.6945 37.0316 14.2381 37.1599 13.7581C38.5431 8.59597 35.4773 3.28653 30.3152 1.90332C26.6409 0.919386 22.8953 2.18852 20.5424 4.85987C19.7628 4.45109 18.931 4.11836 18.0422 3.88069C11.5539 2.15049 4.88026 6.00067 3.1453 12.4889C1.63375 18.1216 4.33838 23.8873 9.32459 26.4494C9.08693 30.1142 11.4493 33.5556 15.1331 34.5443C18.1182 35.3428 21.1556 34.3066 23.0664 32.1343C24.0361 32.7855 25.1293 33.2941 26.3224 33.6126C32.1547 35.1764 38.1439 31.716 39.7077 25.8837C40.782 21.8815 39.4843 17.8031 36.6846 15.1318H36.6799Z" stroke="#47200E" stroke-width="1.20734" stroke-linejoin="round"/>
<path d="M31.3996 19.9432C32.4906 14.6144 29.0551 9.41014 23.7262 8.31919C18.3974 7.22825 13.1931 10.6637 12.1022 15.9926C11.0112 21.3214 14.4467 26.5257 19.7756 27.6166C25.1044 28.7076 30.3087 25.2721 31.3996 19.9432Z" fill="#FFD106"/>
<path d="M28.6373 10.9298C29.5642 12.9452 29.8208 15.2791 29.2029 17.5892C27.7959 22.8416 22.3962 25.9598 17.139 24.5528C15.4421 24.0965 13.9733 23.2219 12.804 22.0763C13.9876 24.6478 16.2597 26.6918 19.2067 27.4808C24.4591 28.8878 29.8589 25.7696 31.2706 20.5172C32.226 16.9618 31.0995 13.3397 28.642 10.9346L28.6373 10.9298Z" fill="#FBAA19"/>
<path d="M22.1395 11.8947C22.6814 11.5953 23.3611 11.7902 23.6606 12.332C23.96 12.8739 23.7651 13.5536 23.2233 13.8531C22.6814 14.1525 22.0017 13.9577 21.7022 13.4158C21.4027 12.8739 21.5976 12.1942 22.1395 11.8947Z" fill="#FDF7B5"/>
<path d="M19.9862 10.3689C20.3808 10.1503 20.8751 10.2929 21.0938 10.6874C21.3124 11.0819 21.1698 11.5763 20.7753 11.7949C20.3808 12.0136 19.8864 11.871 19.6678 11.4765C19.4491 11.0819 19.5917 10.5876 19.9862 10.3689Z" fill="#FDF7B5"/>
<path d="M22.2203 9.72725C22.4912 9.5799 22.8335 9.67497 22.9808 9.9459C23.1282 10.2168 23.0331 10.5591 22.7622 10.7064C22.4912 10.8538 22.149 10.7587 22.0017 10.4878C21.8543 10.2168 21.9494 9.8746 22.2203 9.72725Z" fill="#FDF7B5"/>
<path d="M31.3996 19.9432C32.4906 14.6144 29.0551 9.41014 23.7262 8.31919C18.3974 7.22825 13.1931 10.6637 12.1022 15.9926C11.0112 21.3214 14.4467 26.5257 19.7756 27.6166C25.1044 28.7076 30.3087 25.2721 31.3996 19.9432Z" stroke="#47200E" stroke-width="1.20734" stroke-linejoin="round"/>
<path d="M20.4426 15.6641C20.0766 17.0236 18.6838 17.8269 17.3244 17.4656C15.965 17.1044 15.1616 15.7069 15.5229 14.3474C15.8889 12.988 17.2816 12.1847 18.6411 12.5459C20.0005 12.9119 20.8038 14.3047 20.4426 15.6641Z" fill="#010101"/>
<path d="M18.2608 13.972C18.1325 14.452 17.6381 14.7372 17.1628 14.6089C16.6875 14.4806 16.3975 13.9862 16.5259 13.5109C16.6542 13.0308 17.1485 12.7456 17.6239 12.8739C18.104 13.0023 18.3891 13.4966 18.2608 13.972Z" fill="white"/>
<path d="M19.587 13.8626C19.5252 14.1003 19.278 14.2429 19.0356 14.1811C18.7979 14.1193 18.6553 13.8721 18.7171 13.6297C18.7837 13.392 19.0261 13.2494 19.2685 13.3112C19.5062 13.373 19.6488 13.6202 19.587 13.8626Z" fill="white"/>
<path d="M28.951 17.9457C28.585 19.3052 27.1923 20.1085 25.8328 19.7472C24.4734 19.3812 23.6701 17.9885 24.0313 16.6291C24.3973 15.2696 25.79 14.4663 27.1495 14.8276C28.5089 15.1936 29.3122 16.5863 28.951 17.9457Z" fill="#010101"/>
<path d="M26.7692 16.2535C26.6409 16.7336 26.1465 17.0188 25.6712 16.8905C25.1911 16.7621 24.9059 16.2678 25.0343 15.7924C25.1626 15.3124 25.657 15.0272 26.1323 15.1555C26.6124 15.2838 26.8976 15.7782 26.7692 16.2535Z" fill="white"/>
<path d="M28.1001 16.1442C28.0336 16.3819 27.7912 16.5245 27.5488 16.4627C27.3111 16.3962 27.1685 16.1537 27.2303 15.9113C27.2968 15.6737 27.5393 15.5311 27.7817 15.5928C28.0193 15.6594 28.1619 15.9018 28.1001 16.1442Z" fill="white"/>
<path d="M23.0094 20.6361C22.7384 21.6533 21.6927 22.257 20.6707 21.986C19.6535 21.7151 19.0499 20.6694 19.3208 19.6474" stroke="#010101" stroke-width="0.58941" stroke-miterlimit="10" stroke-linecap="round"/>
<path d="M16.3737 19.9849C16.2169 20.5648 15.3755 20.8452 14.4867 20.6076C13.6026 20.3699 13.0084 19.7044 13.1653 19.1245C13.3221 18.5446 14.1635 18.2642 15.0523 18.5019C15.9412 18.7395 16.5306 19.405 16.3737 19.9849Z" fill="#F599B0"/>
<path d="M28.604 23.2599C28.4471 23.8398 27.6058 24.1203 26.7169 23.8826C25.8328 23.6449 25.2387 22.9795 25.3955 22.3996C25.5524 21.8197 26.3937 21.5392 27.2826 21.7769C28.1667 22.0145 28.7609 22.68 28.604 23.2599Z" fill="#F599B0"/>
<path d="M33.7186 25.8362C34.3793 26.0121 34.769 26.6918 34.5932 27.3477C34.4173 28.0037 33.7376 28.3982 33.0816 28.2224C32.4209 28.0465 32.0311 27.3668 32.207 26.7108C32.3829 26.0501 33.0626 25.6603 33.7186 25.8362Z" fill="#FED8AC"/>
<path d="M33.1767 22.9795C33.6567 23.1078 33.9419 23.6022 33.8136 24.0822C33.6853 24.5623 33.1909 24.8475 32.7108 24.7192C32.2308 24.5908 31.9456 24.0965 32.0739 23.6164C32.2022 23.1363 32.6966 22.8511 33.1767 22.9795Z" fill="#FED8AC"/>
<path d="M35.4392 24.1725C35.7672 24.2629 35.9621 24.6003 35.8765 24.9283C35.7862 25.2563 35.4487 25.4512 35.1208 25.3656C34.7928 25.2753 34.5979 24.9378 34.6835 24.6098C34.7738 24.2819 35.1113 24.087 35.4392 24.1725Z" fill="#FED8AC"/>
<path d="M32.9295 7.28879C32.7917 7.79739 32.2735 8.09685 31.7649 7.96376C31.2563 7.83067 30.9569 7.3078 31.09 6.7992C31.2278 6.2906 31.7459 5.99114 32.2545 6.12423C32.7631 6.26208 33.0626 6.78019 32.9295 7.28879Z" fill="#FED8AC"/>
<path d="M30.8 5.72969C30.7335 5.98162 30.472 6.13372 30.2154 6.06718C29.9634 6.00063 29.8113 5.7392 29.8779 5.48252C29.9444 5.22584 30.2059 5.07849 30.4625 5.14503C30.7145 5.21158 30.8666 5.47301 30.8 5.72969Z" fill="#FED8AC"/>
</g>
<defs>
<clipPath id="clip0_990_11837">
<rect width="41.4155" height="36.5624" fill="white" transform="translate(0.778152 0.97168)"/>
</clipPath>
</defs>
</svg>
