<svg width="31" height="40" viewBox="0 0 31 40" fill="none" xmlns="http://www.w3.org/2000/svg">
<g clip-path="url(#clip0_990_11878)">
<path d="M21.723 2.17312C15.9668 0.633046 10.0251 4.06018 8.48507 9.81643C8.35673 10.3013 8.25691 10.8004 8.19511 11.2947C8.03826 12.5496 7.4536 13.6999 6.55047 14.527C4.3687 16.5186 2.91895 19.1186 2.36281 22.0467C1.74488 25.3122 2.35806 28.6918 4.08826 31.5675C5.81846 34.4433 8.52309 36.5633 11.6983 37.5472C11.8647 37.5995 12.0358 37.647 12.2069 37.6946C19.4462 39.6339 26.9184 35.3227 28.8577 28.0834C29.5374 25.5404 29.4709 22.8738 28.6581 20.3783C28.3016 19.285 28.3871 18.0111 28.8958 16.7943C29.1809 16.1051 29.3996 15.3825 29.5422 14.641C30.5499 9.38863 27.4983 4.12672 22.436 2.39652C22.1983 2.31572 21.9607 2.24442 21.7183 2.17787L21.723 2.17312Z" fill="#51A245"/>
<path d="M27.0752 16.029C27.3081 15.4729 27.4888 14.8835 27.6076 14.2655C28.4299 9.98279 25.9297 5.66679 21.7991 4.25506C16.9079 2.5819 11.7031 5.41487 10.3864 10.325C10.2771 10.7291 10.201 11.1331 10.1487 11.5371C9.93958 13.2483 9.14578 14.8217 7.87664 15.9815C6.09416 17.6118 4.79175 19.8126 4.29741 22.4127C3.20415 28.1737 6.67406 33.9299 12.2782 35.6601C18.6144 37.6185 25.25 33.9109 26.9517 27.5653C27.5553 25.3122 27.4507 23.0401 26.7805 20.9772C26.2529 19.3516 26.4145 17.6023 27.0752 16.0242V16.029Z" fill="#DFE55F"/>
<path d="M18.9281 1.80236C19.8502 1.80236 20.7914 1.9212 21.723 2.17312C21.9607 2.23967 22.2031 2.31097 22.4408 2.39177C27.4983 4.12198 30.5547 9.38388 29.547 14.6363C29.4044 15.3778 29.1857 16.1003 28.9005 16.7895C28.3919 18.0064 28.3063 19.2803 28.6628 20.3735C29.4757 22.869 29.5422 25.5356 28.8625 28.0786C27.2368 34.1438 21.7325 38.1556 15.7291 38.1556C14.5693 38.1556 13.3857 38.0035 12.2117 37.6898C12.0405 37.6423 11.8742 37.5947 11.7031 37.5425C8.52785 36.5633 5.82797 34.4385 4.09301 31.5628C2.35806 28.687 1.74488 25.3074 2.36757 22.0419C2.9237 19.1139 4.37346 16.5138 6.55523 14.5222C7.46311 13.6951 8.04776 12.5496 8.19987 11.29C8.26166 10.7956 8.35673 10.2965 8.48982 9.81168C9.77797 4.99183 14.1558 1.80236 18.9281 1.80236ZM18.9281 0.595024C13.4998 0.595024 8.72273 4.25982 7.32051 9.50271C7.17791 10.0398 7.06858 10.596 7.00204 11.1474C6.8832 12.117 6.43164 13.0011 5.74241 13.6333C3.35625 15.8008 1.77816 18.6338 1.17449 21.8185C0.499517 25.374 1.16498 29.0578 3.05204 32.1902C4.9391 35.3179 7.8814 37.628 11.337 38.6975C11.5224 38.7545 11.7031 38.8068 11.8884 38.8544C13.1433 39.1918 14.4314 39.3582 15.7148 39.3582C22.4027 39.3582 28.2873 34.8473 30.0175 28.3828C30.759 25.6117 30.683 22.7121 29.8036 19.9933C29.5374 19.1757 29.6087 18.2013 30.008 17.2506C30.3265 16.4853 30.5689 15.682 30.7258 14.8597C31.8476 9.01788 28.4537 3.16656 22.8258 1.24147C22.5644 1.15116 22.2982 1.07035 22.032 0.999055C21.0148 0.728117 19.969 0.590271 18.9233 0.590271L18.9281 0.595024Z" fill="#47200E"/>
<mask id="mask0_990_11878" style="mask-type:luminance" maskUnits="userSpaceOnUse" x="4" y="3" width="24" height="34">
<path d="M27.0752 16.029C27.3081 15.4729 27.4888 14.8835 27.6076 14.2655C28.4299 9.98279 25.9297 5.66679 21.7991 4.25506C16.9079 2.5819 11.7031 5.41487 10.3864 10.325C10.2771 10.7291 10.201 11.1331 10.1487 11.5371C9.93958 13.2483 9.14578 14.8217 7.87664 15.9815C6.09416 17.6118 4.79175 19.8126 4.29741 22.4127C3.20415 28.1737 6.67406 33.9299 12.2782 35.6601C18.6144 37.6185 25.25 33.9109 26.9517 27.5653C27.5553 25.3122 27.4507 23.0401 26.7805 20.9772C26.2529 19.3516 26.4145 17.6023 27.0752 16.0242V16.029Z" fill="white"/>
</mask>
<g mask="url(#mask0_990_11878)">
<path d="M4.29741 22.4127C3.94091 28.5254 8.63242 34.1723 14.5931 34.4195C18.6476 34.6762 22.5834 32.3661 24.2518 28.7203C25.0884 26.9616 25.3831 24.9557 25.0789 23.0306C24.979 22.2796 24.6986 21.5713 24.537 20.8251C24.3231 19.7841 24.3136 18.7289 24.4609 17.7212C24.5988 16.78 24.8887 15.8626 25.2785 15.0023C25.7633 13.8615 25.8869 12.6114 25.7396 11.3755C24.6368 4.37389 15.6911 2.8053 11.589 8.30011C11.0851 8.89428 10.7381 9.59777 10.3816 10.325C10.9806 4.92527 16.8509 1.39357 22.0462 2.85283C27.8215 4.2503 31.1821 10.8954 29.1097 16.4378C28.6628 17.5168 28.4014 18.7859 28.6961 19.9219C29.9082 23.3823 29.7466 27.2991 28.0734 30.5836C24.7414 37.5187 15.5532 40.1568 9.19331 35.8312C4.84404 33.0886 2.58622 27.1232 4.29266 22.4174L4.29741 22.4127Z" fill="#C5D52D"/>
</g>
<path d="M21.0492 28.0866C22.0242 24.4479 20.1957 20.7963 16.9652 19.9307C13.7347 19.0651 10.3255 21.3132 9.35046 24.952C8.37546 28.5907 10.2039 32.2422 13.4344 33.1079C16.6649 33.9735 20.0742 31.7254 21.0492 28.0866Z" fill="#A46828"/>
<path d="M15.558 19.746C16.0238 19.746 16.4944 19.8078 16.965 19.9314C20.1925 20.7965 22.0225 24.4471 21.048 28.0833C20.2162 31.192 17.6019 33.2882 14.8402 33.2882C14.3744 33.2882 13.9038 33.2264 13.4333 33.1028C10.2058 32.2377 8.37574 28.5872 9.35017 24.9509C10.182 21.8422 12.7963 19.746 15.558 19.746ZM15.558 18.5387C12.1784 18.5387 9.14578 21.0484 8.18561 24.6419C7.63898 26.6859 7.83386 28.8058 8.73699 30.6121C9.66389 32.4659 11.223 33.7683 13.1243 34.2769C13.6852 34.429 14.2651 34.505 14.845 34.505C18.2246 34.505 21.2572 31.9953 22.2174 28.4018C23.3629 24.1286 21.1479 19.8031 17.2787 18.7669C16.7178 18.6147 16.1379 18.5387 15.558 18.5387Z" fill="#47200E"/>
<path d="M11.2182 24.3805C11.7934 22.2273 13.8135 20.8964 15.7243 21.4097C17.6352 21.9231 18.7142 24.0811 18.139 26.2343C17.5639 28.3876 15.5437 29.7185 13.6376 29.2051C11.7268 28.6918 10.6478 26.5338 11.223 24.3805H11.2182Z" fill="#B47D3D"/>
<path d="M17.312 11.0095C16.9269 12.4497 15.4439 13.3053 14.0037 12.9203C12.5634 12.5353 11.7078 11.0523 12.0928 9.61201C12.4778 8.17176 13.9609 7.31616 15.4011 7.70118C16.8414 8.0862 17.697 9.56923 17.312 11.0095Z" fill="#010101"/>
<path d="M14.9971 9.2175C14.8592 9.7261 14.3411 10.0256 13.8325 9.89247C13.3239 9.75462 13.0245 9.23652 13.1576 8.72791C13.2954 8.21931 13.8135 7.91985 14.3221 8.05294C14.8307 8.19079 15.1302 8.7089 14.9971 9.2175Z" fill="white"/>
<path d="M16.4088 9.10341C16.3423 9.35533 16.0809 9.50744 15.8242 9.44089C15.5675 9.37434 15.4201 9.11291 15.4867 8.85623C15.5532 8.60431 15.8147 8.4522 16.0713 8.51875C16.3233 8.5853 16.4754 8.84673 16.4088 9.10341Z" fill="white"/>
<path d="M26.3337 13.4289C25.9487 14.8692 24.4657 15.7248 23.0302 15.3397C21.5899 14.9547 20.7343 13.4717 21.1193 12.0314C21.5044 10.5912 22.9874 9.7356 24.4276 10.1206C25.8679 10.5056 26.7235 11.9887 26.3385 13.4289H26.3337Z" fill="#010101"/>
<path d="M24.0189 11.6369C23.881 12.1455 23.3629 12.445 22.8543 12.3119C22.3457 12.1741 22.0462 11.6559 22.1793 11.1473C22.3172 10.6387 22.8353 10.3393 23.3439 10.4724C23.8525 10.6055 24.152 11.1283 24.0189 11.6369Z" fill="white"/>
<path d="M25.4306 11.5181C25.3641 11.77 25.1026 11.9221 24.8459 11.8556C24.594 11.789 24.4419 11.5276 24.5085 11.2709C24.575 11.0142 24.8364 10.8669 25.0931 10.9334C25.345 11 25.4971 11.2614 25.4306 11.5181Z" fill="white"/>
<path d="M20.0356 16.281C19.7456 17.36 18.6381 18.0017 17.5591 17.7117C16.4801 17.4217 15.8384 16.3142 16.1284 15.2352L20.0356 16.281Z" fill="#EF486C"/>
<path d="M20.0356 16.281C19.7456 17.36 18.6381 18.0017 17.5591 17.7117C16.4801 17.4217 15.8384 16.3142 16.1284 15.2352L20.0356 16.281Z" stroke="#010101" stroke-width="0.622683" stroke-miterlimit="10" stroke-linecap="round"/>
<path d="M13.0007 15.5917C12.8343 16.2096 11.9407 16.5043 11.0043 16.2524C10.0679 16.0004 9.44048 15.2969 9.60209 14.679C9.76845 14.0611 10.6621 13.7664 11.5985 14.0183C12.5349 14.2702 13.1623 14.9737 13.0007 15.5917Z" fill="#F599B0"/>
<path d="M25.963 19.0663C25.7966 19.6843 24.903 19.979 23.9666 19.727C23.0302 19.4751 22.4027 18.7716 22.5644 18.1537C22.7307 17.5358 23.6243 17.2411 24.5607 17.493C25.4971 17.7449 26.1246 18.4484 25.963 19.0663Z" fill="#F599B0"/>
<path d="M23.8097 8.75168C23.6719 9.26028 23.1538 9.55974 22.6452 9.42665C22.1366 9.2888 21.8371 8.77069 21.9702 8.26209C22.1033 7.75349 22.6262 7.45403 23.1348 7.58712C23.6434 7.72497 23.9428 8.24308 23.8097 8.75168Z" fill="#C5D52D"/>
<path d="M21.6755 7.19734C21.6089 7.44926 21.3475 7.60137 21.0908 7.53482C20.8341 7.46828 20.6868 7.20685 20.7533 6.95017C20.8199 6.69824 21.0813 6.54614 21.338 6.61268C21.5899 6.67923 21.742 6.94066 21.6755 7.19734Z" fill="#C5D52D"/>
<path d="M6.69782 23.2777C7.35853 23.4536 7.7483 24.1333 7.57243 24.7893C7.39656 25.45 6.71684 25.8398 6.06088 25.6639C5.40017 25.488 5.0104 24.8083 5.18627 24.1523C5.36215 23.4916 6.04187 23.1019 6.69782 23.2777Z" fill="#C5D52D"/>
<path d="M6.15595 20.4258C6.63603 20.5541 6.92123 21.0484 6.79289 21.5285C6.66455 22.0086 6.17021 22.2938 5.69012 22.1655C5.21004 22.0371 4.92484 21.5428 5.05318 21.0627C5.18152 20.5826 5.67586 20.2974 6.15595 20.4258Z" fill="#C5D52D"/>
<path d="M8.42328 21.6188C8.75126 21.7091 8.94614 22.0466 8.86058 22.3746C8.77027 22.7026 8.43279 22.8975 8.10481 22.8119C7.77683 22.7216 7.58194 22.3841 7.6675 22.0561C7.75782 21.7282 8.0953 21.5333 8.42328 21.6188Z" fill="#C5D52D"/>
</g>
<defs>
<clipPath id="clip0_990_11878">
<rect width="30.0219" height="38.7679" fill="white" transform="translate(0.917809 0.594971)"/>
</clipPath>
</defs>
</svg>
