<svg width="30" height="38" viewBox="0 0 30 38" fill="none" xmlns="http://www.w3.org/2000/svg">
<g clip-path="url(#clip0_990_11916)">
<path d="M13.5089 2.17901C13.8607 2.39291 14.1696 2.61631 14.4453 2.84922C14.7258 3.08214 14.9682 3.3198 15.2059 3.56222C15.6669 4.04706 16.0567 4.54615 16.3847 5.06426C17.0454 6.09573 17.4732 7.17948 17.7394 8.30126C18.0008 9.42304 18.0864 10.5876 17.9485 11.7997C17.882 12.4081 17.7489 13.0308 17.5492 13.6677C17.4447 13.9862 17.3258 14.3094 17.1737 14.6422C17.0311 14.9701 16.8505 15.3076 16.6223 15.6546C16.2658 15.4407 15.9569 15.2173 15.6859 14.9844C15.4055 14.7515 15.1583 14.5138 14.9254 14.2714C14.4643 13.7866 14.0746 13.2875 13.7466 12.7694C13.0906 11.7379 12.6581 10.6541 12.4014 9.53237C12.1495 8.41059 12.0592 7.24603 12.197 6.02918C12.2636 5.42076 12.3967 4.79808 12.5963 4.16114C12.7009 3.84266 12.8149 3.51944 12.967 3.18671C13.1096 2.85873 13.2903 2.52125 13.5137 2.17426L13.5089 2.17901Z" stroke="#47200E" stroke-width="2.41943" stroke-linejoin="round"/>
<path d="M22.9775 9.98394C22.7351 9.97443 22.5069 9.98394 22.3025 10.0125C22.0886 10.0362 21.8938 10.0743 21.6989 10.117C21.3139 10.2073 20.9621 10.3262 20.6341 10.4783C19.9782 10.773 19.4173 11.1723 18.9229 11.6381C18.4334 12.1087 18.0151 12.6505 17.6918 13.297C17.5302 13.6155 17.3924 13.9672 17.2878 14.3475C17.2355 14.5376 17.188 14.7372 17.1595 14.9464C17.1262 15.1555 17.1072 15.3789 17.1024 15.6214C17.3449 15.6309 17.573 15.6214 17.7822 15.5928C17.9961 15.5691 18.1909 15.531 18.3858 15.4883C18.7708 15.398 19.1226 15.2791 19.4506 15.127C20.6294 14.9084 22.0649 12.9452 22.3881 12.3036C22.6876 11.6096 22.892 10.8681 22.9252 10.6542C22.9633 10.445 22.9823 10.2216 22.9823 9.97919L22.9775 9.98394Z" stroke="#47200E" stroke-width="2.41943" stroke-linejoin="round"/>
<path d="M13.5089 2.17901C13.8607 2.39291 14.1696 2.61631 14.4453 2.84922C14.7258 3.08214 14.9682 3.3198 15.2059 3.56222C15.6669 4.04706 16.0567 4.54615 16.3847 5.06426C17.0454 6.09573 17.4732 7.17948 17.7394 8.30126C18.0008 9.42304 18.0864 10.5876 17.9485 11.7997C17.882 12.4081 17.7489 13.0308 17.5492 13.6677C17.4447 13.9862 17.3258 14.3094 17.1737 14.6422C17.0311 14.9701 16.8505 15.3076 16.6223 15.6546C16.2658 15.4407 15.9569 15.2173 15.6859 14.9844C15.4055 14.7515 15.1583 14.5138 14.9254 14.2714C14.4643 13.7866 14.0746 13.2875 13.7466 12.7694C13.0906 11.7379 12.6581 10.6541 12.4014 9.53237C12.1495 8.41059 12.0592 7.24603 12.197 6.02918C12.2636 5.42076 12.3967 4.79808 12.5963 4.16114C12.7009 3.84266 12.8149 3.51944 12.967 3.18671C13.1096 2.85873 13.2903 2.52125 13.5137 2.17426L13.5089 2.17901Z" fill="#B9D53C"/>
<path d="M22.9775 9.98394C22.7351 9.97443 22.5069 9.98394 22.3025 10.0125C22.0886 10.0362 21.8937 10.0743 21.6989 10.117C21.3138 10.2073 20.9621 10.3262 20.6341 10.4783C19.9782 10.773 19.4173 11.1723 18.9229 11.6381C18.4333 12.1087 18.0151 12.6505 17.6918 13.297C17.5302 13.6155 17.3924 13.9672 17.2878 14.3475C17.2355 14.5376 17.188 14.7372 17.1595 14.9464C17.1262 15.1555 17.1072 15.3789 17.1024 15.6214C17.3448 15.6309 17.573 15.6214 17.7821 15.5928C17.996 15.5691 18.1909 15.531 18.3858 15.4883C18.7708 15.398 19.1226 15.2791 19.4505 15.127C20.1065 14.8323 20.6674 14.433 21.157 13.9625C21.6466 13.4919 22.0649 12.9452 22.3881 12.3036C22.5497 11.9851 22.6875 11.6333 22.7921 11.2531C22.8444 11.0629 22.8919 10.8633 22.9252 10.6542C22.9632 10.445 22.9823 10.2216 22.9823 9.97919L22.9775 9.98394Z" fill="#B9D53C"/>
<g style="mix-blend-mode:multiply">
<path d="M13.5089 2.17902C13.8607 2.39291 14.1696 2.61632 14.4453 2.84923C14.7258 3.08214 14.9682 3.31981 15.2059 3.56223C15.6669 4.04706 16.0567 4.54616 16.3847 5.06427C17.0454 6.09574 17.4732 7.17949 17.7394 8.30127C18.0008 9.42305 18.0864 10.5876 17.9485 11.7997C17.882 12.4081 17.7489 13.0308 17.5492 13.6677C17.4447 13.9862 17.3258 14.3094 17.1737 14.6422C17.0311 14.9702 16.8505 15.3076 16.6223 15.6546C17.3211 11.6428 15.7382 5.32095 13.5089 2.18377V2.17902Z" fill="#B9D53C"/>
</g>
<g style="mix-blend-mode:multiply">
<path d="M22.9775 9.98395C22.255 11.7379 19.4553 14.7468 17.0977 15.6261C17.3401 15.6356 17.5682 15.6261 17.7774 15.5976C17.9913 15.5738 18.1862 15.5358 18.3811 15.493C18.7661 15.4027 19.1178 15.2839 19.4458 15.1318C20.1018 14.8371 20.6626 14.4378 21.1522 13.9672C21.6418 13.4966 22.0601 12.95 22.3833 12.3083C22.545 11.9898 22.6828 11.6381 22.7874 11.2578C22.8397 11.0677 22.8872 10.8681 22.9205 10.6589C22.9585 10.4498 22.9775 10.2264 22.9775 9.98395Z" fill="#B9D53C"/>
</g>
<path d="M16.9551 15.2363C16.9931 14.6849 17.1024 14.1525 17.2498 13.6297L17.3639 13.2352L17.4922 12.8454C17.573 12.584 17.6776 12.332 17.7822 12.0754C17.882 11.8187 18.0056 11.5763 18.1244 11.3243C18.2385 11.0724 18.3716 10.83 18.5047 10.5923C18.7661 10.1075 19.0798 9.65117 19.384 9.1901C20.0257 8.29648 20.6389 7.33631 21.542 6.6756C22.0316 6.41417 22.6495 6.75641 22.6828 7.34582C22.6971 7.59774 22.5782 7.84016 22.3976 8.02079C21.8652 8.5484 20.6674 9.63691 20.3537 9.96014C20.0162 10.3499 19.6692 10.7349 19.365 11.1532C19.2034 11.3576 19.0418 11.562 18.8992 11.7807C18.7518 11.9945 18.5997 12.2037 18.4666 12.4319C17.901 13.3065 17.4209 14.2571 17.1072 15.2601L16.9551 15.2363Z" fill="#47200E"/>
<path d="M17.0929 14.9891C8.11868 8.70528 1.3785 14.124 1.08379 21.0781C0.708282 29.9383 2.07723 34.4729 11.0562 35.2525C18.999 39.5114 22.6305 36.4646 27.1604 28.845C30.7159 22.8654 28.0398 14.6422 17.0929 14.9891Z" fill="#D5563F"/>
<g style="mix-blend-mode:multiply">
<g style="mix-blend-mode:multiply" opacity="0.5">
<path d="M19.9449 15.1033C24.779 17.6558 25.5063 23.2124 22.911 27.5759C19.5836 33.1753 16.7412 36.2983 12.3158 35.88C19.3983 39.1597 22.8777 36.0511 27.1604 28.8451C30.3831 23.4216 28.4866 16.1585 19.9449 15.108V15.1033Z" fill="#D5563F"/>
</g>
</g>
<path d="M17.0929 14.9891C8.11868 8.70528 1.3785 14.124 1.08379 21.0781C0.708282 29.9383 2.07723 34.4729 11.0562 35.2525C18.999 39.5114 22.6305 36.4646 27.1604 28.845C30.7159 22.8654 28.0398 14.6422 17.0929 14.9891Z" stroke="#47200E" stroke-width="1.20734" stroke-miterlimit="10"/>
<path d="M13.268 19.1001C13.361 17.2885 11.9679 15.7445 10.1562 15.6514C8.34464 15.5584 6.80061 16.9516 6.70757 18.7632C6.61453 20.5748 8.00771 22.1188 9.81932 22.2119C11.6309 22.3049 13.175 20.9117 13.268 19.1001Z" fill="#010101"/>
<path d="M10.3813 17.6082C10.2006 18.2214 9.55417 18.5684 8.941 18.3878C8.32782 18.2071 7.98083 17.5607 8.16146 16.9475C8.34208 16.3343 8.98853 15.9873 9.60171 16.168C10.2149 16.3486 10.5619 16.995 10.3813 17.6082Z" fill="white"/>
<path d="M12.102 17.5179C12.0116 17.8222 11.6884 17.998 11.3842 17.9077C11.08 17.8174 10.9041 17.4942 10.9944 17.19C11.0847 16.8858 11.408 16.7099 11.7122 16.8002C12.0164 16.8905 12.1923 17.2137 12.102 17.5179Z" fill="white"/>
<path d="M24.028 23.1126C23.5099 24.8523 21.6799 25.841 19.9401 25.3229C18.2004 24.8048 17.2117 22.9747 17.7299 21.235C18.248 19.4953 20.078 18.5066 21.8177 19.0248C23.5574 19.5429 24.5461 21.3729 24.028 23.1126Z" fill="#010101"/>
<path d="M21.2758 20.8547C21.0952 21.4679 20.4488 21.8149 19.8356 21.6343C19.2224 21.4536 18.8754 20.8072 19.056 20.194C19.2367 19.5808 19.8831 19.2339 20.4963 19.4145C21.1095 19.5951 21.4565 20.2416 21.2758 20.8547Z" fill="white"/>
<path d="M22.9918 20.7597C22.9015 21.0639 22.5782 21.2398 22.274 21.1495C21.9698 21.0592 21.7939 20.7359 21.8843 20.4317C21.9746 20.1275 22.2978 19.9516 22.602 20.042C22.9062 20.1323 23.0821 20.4555 22.9918 20.7597Z" fill="white"/>
<path d="M16.2706 26.3686C16.0805 27.0055 15.4102 27.3668 14.7781 27.1766C14.1411 26.9865 13.7799 26.3163 13.97 25.6841" stroke="#010101" stroke-width="0.741515" stroke-miterlimit="10" stroke-linecap="round"/>
<path d="M13.9652 25.6841C13.7751 26.3211 13.1049 26.6823 12.4727 26.4922C11.8358 26.302 11.4745 25.6318 11.6646 24.9996" stroke="#010101" stroke-width="0.741515" stroke-miterlimit="10" stroke-linecap="round"/>
<path d="M7.73841 25.2943C7.515 26.0406 6.41699 26.3686 5.2857 26.0311C4.15442 25.6936 3.4129 24.819 3.63631 24.0727C3.85971 23.3264 4.95773 22.9985 6.08901 23.336C7.2203 23.6734 7.96181 24.548 7.73841 25.2943Z" fill="#F599B0"/>
<path d="M23.3863 29.9573C23.1629 30.7035 22.0649 31.0315 20.9336 30.694C19.8023 30.3566 19.0608 29.482 19.2842 28.7357C19.5076 27.9894 20.6056 27.6614 21.7369 27.9989C22.8682 28.3364 23.6097 29.211 23.3863 29.9573Z" fill="#F599B0"/>
</g>
<defs>
<clipPath id="clip0_990_11916">
<rect width="28.8193" height="36.8238" fill="white" transform="translate(0.42308 0.97168)"/>
</clipPath>
</defs>
</svg>
