<svg width="46" height="35" viewBox="0 0 46 35" fill="none" xmlns="http://www.w3.org/2000/svg">
<g clip-path="url(#clip0_989_11808)">
<path d="M19.6174 31.7534C11.3894 28.716 4.83462 22.6603 1.16507 14.6986L8.94147 11.1146C11.6556 16.9992 16.4992 21.4768 22.5787 23.7203C28.6582 25.9639 35.251 25.7025 41.1356 22.9931L44.7196 30.7695C36.7578 34.439 27.8406 34.7908 19.6126 31.7582L19.6174 31.7534Z" fill="#51A245"/>
<path d="M20.6061 29.0725C13.0959 26.3013 7.11146 20.7733 3.76038 13.5007L6.35093 12.3076C9.38353 18.8862 14.7975 23.8914 21.5948 26.3964C28.392 28.9014 35.7549 28.6162 42.3334 25.5836L43.5265 28.1741C36.254 31.5252 28.1163 31.8484 20.6013 29.0773L20.6061 29.0725Z" fill="white"/>
<path d="M5.05328 12.9065C11.6556 27.2235 28.6107 33.4788 42.9276 26.8765L30.9778 0.951965L5.05328 12.9065Z" fill="#EF486C"/>
<g style="mix-blend-mode:multiply" opacity="0.5">
<path d="M43.5265 28.1741L42.3334 25.5836L41.1404 22.993L30.9778 0.951965C30.9778 0.951965 37.1856 30.7552 19.6174 31.7534C27.8454 34.786 36.7626 34.439 44.7244 30.7647L43.5313 28.1741H43.5265Z" fill="#B5B5B6"/>
</g>
<path d="M43.5265 28.1741L42.3334 25.5836L41.1404 22.993L30.9778 0.951965L8.94148 11.1098L6.35093 12.3029L3.76038 13.4959L1.16983 14.689C4.83938 22.6508 11.3942 28.7113 19.6222 31.7439C27.8501 34.7765 36.7673 34.4295 44.7291 30.7552L43.536 28.1646L43.5265 28.1741Z" stroke="#47200E" stroke-width="1.20734" stroke-linejoin="round"/>
<path d="M29.1002 6.04279C29.1002 6.04279 26.0771 8.69038 27.8786 9.35584C29.6801 10.0213 29.1002 6.04279 29.1002 6.04279Z" fill="#47200E"/>
<path d="M26.966 24.7233C26.966 24.7233 23.9429 27.3709 25.7444 28.0363C27.5459 28.7018 26.966 24.7233 26.966 24.7233Z" fill="#47200E"/>
<path d="M18.5907 21.6336C18.5907 21.6336 15.5676 24.2812 17.3691 24.9467C19.1706 25.6121 18.5907 21.6336 18.5907 21.6336Z" fill="#47200E"/>
<path d="M38.4262 22.2563C38.4262 22.2563 35.4031 24.9039 37.2046 25.5693C39.0061 26.2348 38.4262 22.2563 38.4262 22.2563Z" fill="#47200E"/>
<path d="M11.4797 12.3171C11.4797 12.3171 8.45663 14.9647 10.2581 15.6302C12.0596 16.2957 11.4797 12.3171 11.4797 12.3171Z" fill="#47200E"/>
<path d="M23.5389 13.7288C22.8686 15.5446 20.8532 16.4763 19.0375 15.806C17.2217 15.1358 16.2901 13.1204 16.9603 11.3047C17.6305 9.4889 19.6459 8.55725 21.4617 9.22747C23.2774 9.89768 24.2091 11.9131 23.5389 13.7288Z" fill="#010101"/>
<path d="M20.7582 11.1335C20.5205 11.7752 19.8123 12.1032 19.1706 11.8655C18.5289 11.6279 18.2009 10.9196 18.4386 10.2779C18.6763 9.63623 19.3845 9.30825 20.0262 9.54592C20.6679 9.78358 20.9959 10.4918 20.7582 11.1335Z" fill="white"/>
<path d="M22.593 11.1526C22.4741 11.471 22.1176 11.6374 21.7992 11.5186C21.4807 11.3997 21.3143 11.0432 21.4332 10.7248C21.552 10.4063 21.9085 10.2399 22.227 10.3587C22.5454 10.4776 22.7118 10.8341 22.593 11.1526Z" fill="white"/>
<path d="M34.5333 16.8946C34.0009 18.3396 32.399 19.0763 30.954 18.544C29.509 18.0116 28.7723 16.4097 29.3046 14.9647" stroke="#010101" stroke-width="0.808062" stroke-miterlimit="10" stroke-linecap="round"/>
<path d="M26.4289 20.8683C25.925 22.2278 24.4182 22.9265 23.0588 22.4226C21.6993 21.9188 21.0006 20.412 21.5045 19.0526L26.4336 20.8683H26.4289Z" stroke="#010101" stroke-width="0.808062" stroke-miterlimit="10" stroke-linecap="round"/>
<path d="M17.4166 19.1429C17.1314 19.9224 15.9383 20.1981 14.7548 19.7608C13.5712 19.3235 12.8439 18.3395 13.1291 17.56C13.4143 16.7805 14.6074 16.5048 15.791 16.9421C16.9746 17.3794 17.7018 18.3633 17.4166 19.1429Z" fill="#F599B0"/>
<path d="M33.7663 25.1718C34.0534 24.3935 33.3258 23.4083 32.1411 22.9713C30.9565 22.5342 29.7633 22.8109 29.4762 23.5891C29.1891 24.3674 29.9167 25.3526 31.1014 25.7897C32.286 26.2267 33.4791 25.9501 33.7663 25.1718Z" fill="#F599B0"/>
</g>
<defs>
<clipPath id="clip0_989_11808">
<rect width="44.7666" height="34.0527" fill="white" transform="translate(0.561401 0.348328)"/>
</clipPath>
</defs>
</svg>
