<svg width="14" height="19" viewBox="0 0 14 19" fill="none" xmlns="http://www.w3.org/2000/svg">
<g clip-path="url(#clip0_990_12183)">
<path d="M5.89 10.1601C8.21 10.7801 9.59 13.1701 8.97 15.4901C8.35 17.8101 5.96 19.1901 3.64 18.5701C1.32 17.9501 -0.060001 15.5601 0.559999 13.2401C1.18 10.9201 3.57 9.54008 5.89 10.1601Z" fill="#C5D52D"/>
<path d="M3.99 0.109967C5.68 0.559967 6.68 2.29997 6.23 3.98997C5.78 5.67997 4.04 6.67997 2.35 6.22997C0.659997 5.76997 -0.340002 4.03997 0.109998 2.34997C0.559998 0.659967 2.3 -0.340033 3.99 0.109967Z" fill="#C5D52D"/>
<path d="M11.96 4.31002C13.12 4.62002 13.81 5.81002 13.5 6.97002C13.19 8.13002 12 8.82002 10.84 8.51002C9.68 8.20002 8.99 7.01002 9.3 5.85002C9.61 4.69002 10.8 4.00002 11.96 4.31002Z" fill="#C5D52D"/>
</g>
<defs>
<clipPath id="clip0_990_12183">
<rect width="13.58" height="18.72" fill="white"/>
</clipPath>
</defs>
</svg>
