<svg width="38" height="38" viewBox="0 0 38 38" fill="none" xmlns="http://www.w3.org/2000/svg">
<g clip-path="url(#clip0_990_11953)">
<path d="M26.7855 8.30217L35.8881 21.3785C37.0859 23.0992 36.6628 25.4616 34.9422 26.6594L20.9104 36.4227C19.1897 37.6205 16.8273 37.1975 15.6295 35.4768L6.52691 22.4005L6.50314 22.3672C5.10092 21.754 3.84129 20.7558 2.90489 19.4106C0.195507 15.5224 1.15567 10.1797 5.03912 7.4751C7.26842 5.92552 9.97781 5.57853 12.3925 6.29628C12.844 4.73244 13.8185 3.30645 15.2635 2.3035C18.6051 -0.0208629 23.2015 0.801459 25.5259 4.14303C26.429 5.43593 26.8568 6.92371 26.8473 8.38773L26.7855 8.30217Z" fill="#FABA7B"/>
<path d="M15.2635 2.3035C13.8232 3.30645 12.8488 4.73244 12.3972 6.29628C9.98255 5.57853 7.27316 5.92077 5.04386 7.4751C1.15566 10.1797 0.195494 15.5224 2.90012 19.4106C3.84128 20.7606 5.09615 21.754 6.49837 22.3672L6.52214 22.4005L15.6247 35.4768C16.8225 37.1975 19.1849 37.6205 20.9056 36.4227L34.9374 26.6594C36.6581 25.4616 37.0811 23.0992 35.8833 21.3785L26.7807 8.30217L26.8425 8.38773C26.852 6.91896 26.4242 5.43593 25.5211 4.14303C23.1967 0.801459 18.605 -0.0208629 15.2635 2.3035ZM24.1854 7.66998C24.1997 7.77931 24.2044 7.89339 24.1902 8.00747C24.1189 8.63966 24.2805 9.27185 24.6417 9.79471L33.6587 22.7522C34.077 23.3511 33.9297 24.183 33.326 24.6012L19.5319 34.1982C18.933 34.6165 18.1012 34.4691 17.6829 33.8654L8.63736 20.8699C8.36167 20.4754 7.98141 20.1617 7.53935 19.9715C6.5364 19.5342 5.6713 18.8212 5.03911 17.9134C3.16156 15.2135 3.82702 11.4916 6.52689 9.61408C8.01468 8.58262 9.86371 8.2784 11.6034 8.78701L11.6795 8.81078C12.4305 9.02467 13.2338 8.88683 13.8803 8.44002C14.3698 8.09778 14.7216 7.61294 14.8927 7.03779C15.2017 5.97305 15.8434 5.07468 16.7465 4.44724C18.8997 2.94995 21.8753 3.48232 23.3726 5.63557C23.8004 6.2535 24.0713 6.93797 24.1759 7.66998H24.1854Z" fill="#9B5E2E"/>
<g style="mix-blend-mode:multiply" opacity="0.5">
<path d="M26.7855 8.30216L35.888 21.3785C37.0859 23.0992 36.6628 25.4616 34.9421 26.6594L20.9104 36.4227C30.2174 22.5763 19.8314 7.65572 15.2635 2.29874C18.605 -0.0256235 23.2015 0.796698 25.5258 4.13827C26.429 5.43117 26.8568 6.91895 26.8473 8.38297L26.7855 8.29741V8.30216Z" fill="#FABA7B"/>
</g>
<path d="M35.2273 27.0777L21.1956 36.8458C19.2515 38.2005 16.5659 37.7204 15.2112 35.7715L6.16563 22.7712C4.68736 22.0963 3.41822 21.0363 2.48658 19.6959C-0.374913 15.589 0.642294 9.91831 4.7539 7.05682C6.89764 5.56428 9.53572 5.07469 12.0645 5.68311C12.6159 4.1573 13.6378 2.82163 14.9783 1.88998C18.5432 -0.591246 23.4629 0.292868 25.9441 3.85785C26.8473 5.1555 27.3321 6.66229 27.3559 8.23089L36.3063 21.0933C37.661 23.0374 37.1809 25.723 35.2321 27.0777H35.2273ZM5.32905 7.88865C1.67851 10.4317 0.775386 15.4702 3.31365 19.1207C4.16925 20.3471 5.33856 21.3072 6.698 21.9061C6.78356 21.9442 6.85961 22.006 6.9119 22.082L16.0382 35.1964C17.0745 36.6842 19.1279 37.0502 20.6157 36.0187L34.6474 26.2507C36.1352 25.2144 36.5012 23.161 35.4697 21.6732L26.3672 8.59689C26.2578 8.44003 26.2483 8.24039 26.3291 8.07878C26.2769 6.77162 25.8586 5.5215 25.1028 4.43775C22.9448 1.32433 18.6573 0.5543 15.5487 2.71705C14.2605 3.61067 13.3146 4.93209 12.8773 6.43414C12.8393 6.56248 12.7537 6.6718 12.6349 6.73835C12.516 6.80489 12.3782 6.81915 12.2499 6.78113C9.87796 6.07289 7.35871 6.47692 5.3338 7.88865H5.32905Z" fill="#47200E"/>
<path d="M14.655 16.7584C15.7293 18.2984 15.349 20.4184 13.8042 21.4926C12.2641 22.5669 10.1441 22.1866 9.0699 20.6418C7.99566 19.1017 8.37592 16.9818 9.92074 15.9075C11.4608 14.8333 13.5808 15.2135 14.655 16.7584Z" fill="#010101"/>
<path d="M11.0473 17.5283C11.4276 18.0702 11.2897 18.8165 10.7478 19.1967C10.206 19.577 9.4597 19.4392 9.07944 18.8973C8.69917 18.3554 8.83702 17.6091 9.37889 17.2289C9.92077 16.8486 10.667 16.9865 11.0473 17.5283Z" fill="white"/>
<path d="M12.0835 16.0786C12.2736 16.3495 12.2071 16.7251 11.9362 16.9104C11.6652 17.1006 11.2897 17.034 11.1043 16.7631C10.9142 16.4921 10.9807 16.1166 11.2517 15.9265C11.5226 15.7364 11.8981 15.8029 12.0835 16.0739V16.0786Z" fill="white"/>
<path d="M20.3352 14.8047C19.4987 13.6449 19.7601 12.0288 20.9151 11.1922C22.0749 10.3556 23.6911 10.6171 24.5277 11.7721" stroke="#010101" stroke-width="0.741515" stroke-miterlimit="10" stroke-linecap="round"/>
<path d="M21.9371 18.422C22.7404 19.577 22.4552 21.1647 21.3002 21.968C20.1451 22.7713 18.5575 22.4861 17.7542 21.331L21.9371 18.422Z" fill="#EF486C"/>
<path d="M21.9371 18.422C22.7404 19.577 22.4552 21.1647 21.3002 21.968C20.1451 22.7713 18.5575 22.4861 17.7542 21.331L21.9371 18.422Z" stroke="#010101" stroke-width="0.784295" stroke-miterlimit="10" stroke-linecap="round"/>
<path d="M15.5582 24.6298C16.0192 25.2905 15.5772 26.3933 14.5695 27.092C13.5665 27.7908 12.3782 27.824 11.9171 27.1633C11.4561 26.5026 11.8981 25.3998 12.9058 24.7011C13.9088 24.0024 15.0971 23.9691 15.5582 24.6298Z" fill="#F599B0"/>
<path d="M29.4378 14.9758C29.8989 15.6365 29.4568 16.7393 28.4491 17.438C27.4462 18.1368 26.2579 18.17 25.7968 17.5093C25.3357 16.8486 25.7778 15.7458 26.7855 15.0471C27.7884 14.3484 28.9768 14.3151 29.4378 14.9758Z" fill="#F599B0"/>
<path d="M9.49772 12.5944C9.88749 13.1553 9.74964 13.9253 9.18875 14.3151C8.62786 14.7049 7.85783 14.567 7.46806 14.0061C7.07829 13.4452 7.21613 12.6752 7.77702 12.2854C8.33791 11.8957 9.10795 12.0335 9.49772 12.5944Z" fill="#9B5E2E"/>
<path d="M11.8886 12.4376C12.0835 12.718 12.0122 13.1031 11.7365 13.2979C11.4608 13.4928 11.071 13.4215 10.8762 13.1458C10.6813 12.8654 10.7526 12.4804 11.0283 12.2855C11.304 12.0906 11.6937 12.1619 11.8886 12.4376Z" fill="#9B5E2E"/>
<path d="M26.9519 23.3464C27.3416 23.9072 27.2038 24.6773 26.6429 25.0671C26.082 25.4568 25.312 25.319 24.9222 24.7581C24.5324 24.1972 24.6703 23.4272 25.2312 23.0374C25.792 22.6476 26.5621 22.7855 26.9519 23.3464Z" fill="#9B5E2E"/>
<path d="M28.3826 20.8129C28.6678 21.2217 28.568 21.7826 28.1592 22.063C27.7504 22.3434 27.1895 22.2484 26.9091 21.8396C26.6286 21.4308 26.7237 20.8699 27.1325 20.5895C27.5412 20.309 28.1021 20.4041 28.3826 20.8129Z" fill="#9B5E2E"/>
<path d="M29.3427 23.1848C29.5376 23.4652 29.4663 23.8502 29.1906 24.0451C28.9149 24.24 28.5252 24.1687 28.3303 23.893C28.1354 23.6126 28.2067 23.2276 28.4824 23.0327C28.7581 22.8378 29.1479 22.9091 29.3427 23.1848Z" fill="#9B5E2E"/>
</g>
<defs>
<clipPath id="clip0_990_11953">
<rect width="36.2107" height="37.1328" fill="white" transform="translate(0.860962 0.478271)"/>
</clipPath>
</defs>
</svg>
