<svg width="34" height="49" viewBox="0 0 34 49" fill="none" xmlns="http://www.w3.org/2000/svg">
<g clip-path="url(#clip0_990_12068)">
<path d="M30.566 12.3511C30.566 12.3511 26.0313 11.4004 22.3475 13.5251C22.1954 13.6154 22.048 13.7057 21.9007 13.8008C21.9102 13.6297 21.9197 13.4538 21.9197 13.278C21.9197 12.4794 21.8104 11.7094 21.6345 10.9869C21.606 10.868 21.5727 10.7492 21.5394 10.6304C21.5062 10.5115 21.4729 10.3974 21.4349 10.2786C21.3636 10.0505 21.2828 9.8223 21.202 9.60365C21.0356 9.16634 20.8502 8.75756 20.6601 8.3773C20.6125 8.28223 20.565 8.18716 20.5175 8.09685C20.3273 7.73085 20.1277 7.39811 19.9423 7.10341C19.8473 6.95606 19.757 6.81821 19.6714 6.68987C19.1913 5.98163 18.8253 5.57285 18.8253 5.57285C18.8253 5.57285 16.2443 8.4581 15.7974 12.199C15.7024 11.8472 15.6406 11.4907 15.5693 11.1342C15.4837 10.7539 15.4314 10.3689 15.3792 9.98867C15.2413 9.22814 15.1938 8.45335 15.1225 7.68807C15.0987 7.0131 15.1795 4.60317 15.1605 3.48139C15.1558 3.10113 15.0179 2.72086 14.7327 2.47369C14.0672 1.89854 13.0548 2.20751 12.8314 3.00131C12.5985 4.65546 12.9882 6.31436 13.2829 7.92573C13.4636 8.73379 13.6252 9.54186 13.8724 10.3262C13.9912 10.7207 14.11 11.1104 14.2621 11.4955C14.3239 11.6666 14.3905 11.8377 14.4523 12.0088C14.3097 11.8377 14.1623 11.6761 14.015 11.5192C13.8438 11.3386 13.668 11.1675 13.4921 11.0059C13.3162 10.8443 13.1356 10.6874 12.955 10.54C12.4131 10.098 11.8617 9.72248 11.3484 9.41827C11.1772 9.3137 11.0109 9.21863 10.8493 9.13307C9.72273 8.51514 8.88139 8.23945 8.88139 8.23945C8.88139 8.23945 7.93073 12.7741 10.0555 16.4579C10.1458 16.61 10.2361 16.7574 10.3311 16.9047C10.16 16.8952 9.98416 16.8857 9.80828 16.8857C5.55408 16.8857 2.10318 19.9754 2.10318 19.9754C2.10318 19.9754 4.07105 21.7388 6.87074 22.6039C5.73946 24.6051 5.44 27.1766 6.34313 30.5562C8.61521 39.0266 18.5829 43.7181 23.3695 42.4347C28.156 41.1513 34.4447 32.1058 32.1726 23.6354C31.2695 20.2558 29.7246 18.1739 27.7425 17.0093C29.7341 14.8656 30.5565 12.3511 30.5565 12.3511H30.566Z" stroke="#47200E" stroke-width="2.41943" stroke-linejoin="round"/>
<path d="M17.2567 16.8192C16.7053 16.2107 16.249 15.5358 15.8355 14.8323L15.5313 14.2999L15.2508 13.758C15.0559 13.3968 14.8943 13.0213 14.7232 12.6458C14.5521 12.2703 14.419 11.8852 14.2716 11.5002C14.1195 11.1152 14.0007 10.7254 13.8819 10.3309C13.6347 9.54186 13.4683 8.73855 13.2924 7.93049C12.9977 6.31436 12.608 4.65546 12.8409 3.00606C13.0643 2.20751 14.0767 1.9033 14.7422 2.47845C15.0274 2.72562 15.1652 3.10588 15.17 3.48615C15.1843 4.60793 15.1035 7.02261 15.132 7.69282C15.1985 8.4581 15.2508 9.23289 15.3887 9.99342C15.4409 10.3784 15.4932 10.7635 15.5788 11.139C15.6548 11.5192 15.7214 11.9042 15.826 12.2798C16.1777 13.7961 16.6958 15.2981 17.4421 16.6766L17.2615 16.8192H17.2567Z" fill="#B9D53C"/>
<g style="mix-blend-mode:multiply" opacity="0.5">
<path d="M17.2567 16.8192C12.4654 9.0713 14.0767 1.90331 14.7374 2.47846C15.0226 2.72563 15.1605 3.1059 15.1652 3.48616C15.1795 4.60794 15.0987 7.02262 15.1272 7.69284C15.1938 8.45812 15.2461 9.23291 15.3839 9.99344C15.4362 10.3785 15.4885 10.7635 15.574 11.139C15.6501 11.5192 15.7166 11.9043 15.8212 12.2798C16.1729 13.7961 16.6911 15.2981 17.4373 16.6766L17.2567 16.8192Z" fill="#B9D53C"/>
</g>
<path d="M15.7357 13.2827C15.7357 17.5369 18.8253 20.9878 18.8253 20.9878C18.8253 20.9878 21.915 17.5369 21.915 13.2827C21.915 9.02847 18.8253 5.57758 18.8253 5.57758C18.8253 5.57758 15.7357 9.02847 15.7357 13.2827Z" fill="#B9D53C"/>
<g style="mix-blend-mode:multiply" opacity="0.5">
<path d="M18.8253 20.9831C18.8253 20.9831 21.915 17.5322 21.915 13.278C21.915 9.02377 18.8253 5.57288 18.8253 5.57288C20.7076 11.0487 20.7552 15.5881 18.8253 20.9831Z" fill="#B9D53C"/>
</g>
<path d="M22.3475 13.5299C18.6637 15.6594 17.2234 20.0609 17.2234 20.0609C17.2234 20.0609 21.7581 21.0116 25.4419 18.8869C29.1257 16.7574 30.566 12.3558 30.566 12.3558C30.566 12.3558 26.0313 11.4052 22.3475 13.5299Z" fill="#B9D53C"/>
<g style="mix-blend-mode:multiply" opacity="0.5">
<path d="M17.2187 20.0562C17.2187 20.0562 21.7533 21.0068 25.4371 18.8821C29.121 16.7526 30.5612 12.3511 30.5612 12.3511C26.5114 16.4009 22.0623 18.9677 17.2187 20.0562Z" fill="#B9D53C"/>
</g>
<path d="M15.4172 13.3683C17.5466 17.0521 16.5912 21.5867 16.5912 21.5867C16.5912 21.5867 12.1897 20.1465 10.0602 16.4627C7.93071 12.7789 8.88612 8.2442 8.88612 8.2442C8.88612 8.2442 13.2877 9.68445 15.4172 13.3683Z" fill="#B9D53C"/>
<g style="mix-blend-mode:multiply" opacity="0.5">
<path d="M15.4172 13.3683C17.5467 17.0521 16.5912 21.5867 16.5912 21.5867C15.2983 16.5577 12.6698 12.1372 8.88614 8.2442C8.88614 8.2442 13.2877 9.68445 15.4172 13.3683Z" fill="#B9D53C"/>
</g>
<path d="M9.81305 16.8857C14.0673 16.8857 17.5181 19.9753 17.5181 19.9753C17.5181 19.9753 14.0673 23.065 9.81305 23.065C5.55884 23.065 2.10794 19.9753 2.10794 19.9753C2.10794 19.9753 5.55884 16.8857 9.81305 16.8857Z" fill="#B9D53C"/>
<g style="mix-blend-mode:multiply" opacity="0.5">
<path d="M9.81305 16.8857C14.0673 16.8857 17.5181 19.9753 17.5181 19.9753C12.5414 18.4685 7.41263 18.4067 2.10794 19.9753C2.10794 19.9753 5.55884 16.8857 9.81305 16.8857Z" fill="#B9D53C"/>
</g>
<path d="M16.4914 16.7384C9.35671 18.6492 4.08054 22.0858 6.35262 30.5562C8.6247 39.0266 18.5924 43.7181 23.379 42.4347C28.1655 41.1513 34.4541 32.1058 32.1821 23.6354C29.91 15.165 23.6261 14.8275 16.4914 16.7384Z" fill="#EF486C"/>
<mask id="mask0_990_12068" style="mask-type:luminance" maskUnits="userSpaceOnUse" x="5" y="15" width="28" height="28">
<path d="M16.4914 16.7384C9.35671 18.6492 4.08054 22.0858 6.35262 30.5562C8.6247 39.0266 18.5924 43.7181 23.379 42.4347C28.1655 41.1513 34.4541 32.1058 32.1821 23.6354C29.91 15.165 23.6261 14.8275 16.4914 16.7384Z" fill="white"/>
</mask>
<g mask="url(#mask0_990_12068)">
<path d="M24.8403 47.8981C30.4088 46.406 34.3352 43.0031 33.6102 40.2975C32.8853 37.5919 27.7834 36.6081 22.215 38.1001C16.6465 39.5922 12.7201 42.9951 13.4451 45.7007C14.1701 48.4063 19.2719 49.3901 24.8403 47.8981Z" fill="white"/>
</g>
<path d="M22.8656 40.5334C22.8656 40.5334 23.5881 37.5293 22.1621 37.9143C20.7361 38.2993 22.8656 40.5334 22.8656 40.5334Z" fill="#47200E"/>
<path d="M26.0836 35.8562C26.0836 35.8562 26.8061 32.8521 25.3801 33.2371C23.9541 33.6221 26.0836 35.8562 26.0836 35.8562Z" fill="#47200E"/>
<path d="M17.7415 38.0902C17.7415 38.0902 18.4641 35.0861 17.0381 35.4712C15.6121 35.8514 17.7415 38.0902 17.7415 38.0902Z" fill="#47200E"/>
<path d="M14.476 22.4804C14.476 22.4804 15.1985 19.4763 13.7726 19.8613C12.3466 20.2463 14.476 22.4804 14.476 22.4804Z" fill="#47200E"/>
<path d="M21.1021 20.7026C21.1021 20.7026 21.8246 17.6985 20.3986 18.0835C18.9726 18.4685 21.1021 20.7026 21.1021 20.7026Z" fill="#47200E"/>
<path d="M9.23313 32.2769C9.23313 32.2769 9.95563 29.2728 8.52964 29.6578C7.10365 30.0428 9.23313 32.2769 9.23313 32.2769Z" fill="#47200E"/>
<path d="M30.5422 26.5682C30.5422 26.5682 31.2647 23.5641 29.8387 23.9491C28.4127 24.3294 30.5422 26.5682 30.5422 26.5682Z" fill="#47200E"/>
<g style="mix-blend-mode:multiply" opacity="0.5">
<path d="M16.4914 16.7384C26.3926 17.5987 30.0574 31.4926 23.379 42.4395C28.1655 41.1561 34.4542 32.1106 32.1821 23.6402C29.91 15.1698 23.6261 14.8323 16.4914 16.7431V16.7384Z" fill="#B5B5B6"/>
</g>
<path d="M16.653 26.3971C17.1093 28.1082 16.0969 29.867 14.3857 30.3233C12.6745 30.7796 10.9158 29.7671 10.4595 28.056C10.0032 26.3448 11.0156 24.586 12.7268 24.1297C14.438 23.6734 16.1967 24.6859 16.653 26.3971Z" fill="#010101"/>
<path d="M13.2069 25.9264C13.3685 26.5301 13.012 27.148 12.4083 27.3097C11.8047 27.4713 11.1867 27.1148 11.0251 26.5111C10.8635 25.9074 11.22 25.2895 11.8237 25.1279C12.4273 24.9663 13.0453 25.3228 13.2069 25.9264Z" fill="white"/>
<path d="M14.5901 24.9711C14.6709 25.2705 14.4903 25.5842 14.1908 25.665C13.8914 25.7459 13.5777 25.5652 13.4969 25.2658C13.4161 24.9663 13.5967 24.6526 13.8961 24.5718C14.1956 24.491 14.5093 24.6716 14.5901 24.9711Z" fill="white"/>
<path d="M27.3717 23.5261C27.828 25.2373 26.8156 26.996 25.1044 27.4523C23.3932 27.9086 21.6345 26.8962 21.1782 25.185C20.7218 23.4738 21.7343 21.7151 23.4455 21.2588C25.1567 20.8024 26.9154 21.8149 27.3717 23.5261Z" fill="#010101"/>
<path d="M23.9256 23.0555C24.0872 23.6591 23.7307 24.2771 23.127 24.4387C22.5234 24.6003 21.9054 24.2438 21.7438 23.6401C21.5822 23.0365 21.9387 22.4185 22.5424 22.2569C23.1461 22.0953 23.764 22.4518 23.9256 23.0555Z" fill="white"/>
<path d="M25.3088 22.1001C25.3896 22.3995 25.209 22.7133 24.9095 22.7941C24.6101 22.8749 24.2964 22.6943 24.2156 22.3948C24.1347 22.0953 24.3154 21.7816 24.6148 21.7008C24.9143 21.62 25.228 21.8006 25.3088 22.1001Z" fill="white"/>
<path d="M22.5851 30.1997C22.7563 30.8414 22.376 31.4974 21.7343 31.6685C21.0926 31.8396 20.4367 31.4593 20.2655 30.8176" stroke="#010101" stroke-width="0.741515" stroke-miterlimit="10" stroke-linecap="round"/>
<path d="M20.2655 30.8224C20.4367 31.4641 20.0564 32.12 19.4147 32.2912C18.773 32.4623 18.117 32.082 17.9459 31.4403" stroke="#010101" stroke-width="0.741515" stroke-miterlimit="10" stroke-linecap="round"/>
<path d="M14.9371 33.6696C15.132 34.4016 14.3905 35.2382 13.2734 35.5377C12.1564 35.8371 11.0964 35.4854 10.9015 34.7534C10.7067 34.0214 11.4482 33.1848 12.5652 32.8853C13.6822 32.5859 14.7422 32.9376 14.9371 33.6696Z" fill="#F599B0"/>
<path d="M30.3378 29.5438C30.5327 30.2758 29.7912 31.1124 28.6742 31.4118C27.5571 31.7113 26.4971 31.3595 26.3023 30.6275C26.1074 29.8955 26.8489 29.0589 27.9659 28.7595C29.0829 28.46 30.1429 28.8118 30.3378 29.5438Z" fill="#F599B0"/>
</g>
<defs>
<clipPath id="clip0_990_12068">
<rect width="32.9689" height="47.6233" fill="white" transform="translate(0.900604 0.97168)"/>
</clipPath>
</defs>
</svg>
